<?xml version="1.0" encoding="UTF-8" standalone="no"?>
<!-- Created with Inkscape (http://www.inkscape.org/) -->
<svg xmlns:dc="http://purl.org/dc/elements/1.1/" xmlns:cc="http://creativecommons.org/ns#" xmlns:rdf="http://www.w3.org/1999/02/22-rdf-syntax-ns#" xmlns:svg="http://www.w3.org/2000/svg" xmlns="http://www.w3.org/2000/svg" xmlns:sodipodi="http://sodipodi.sourceforge.net/DTD/sodipodi-0.dtd" xmlns:inkscape="http://www.inkscape.org/namespaces/inkscape" version="1.1" width="800" height="500" id="svg2" inkscape:version="0.91 r13725" sodipodi:docname="318 Squadron emblem.svg">
  <sodipodi:namedview pagecolor="#ffffff" bordercolor="#666666" borderopacity="1" objecttolerance="10" gridtolerance="10" guidetolerance="10" inkscape:pageopacity="0" inkscape:pageshadow="2" inkscape:window-width="1366" inkscape:window-height="705" id="namedview12" showgrid="false" showguides="false" inkscape:zoom="0.40915876" inkscape:cx="-130.39296" inkscape:cy="270" inkscape:window-x="-8" inkscape:window-y="-8" inkscape:window-maximized="1" inkscape:current-layer="svg2"/>
  <metadata id="metadata22">
    <rdf:RDF>
      <cc:Work rdf:about="">
        <dc:format>image/svg+xml</dc:format>
        <dc:type rdf:resource="http://purl.org/dc/dcmitype/StillImage"/>
        <dc:title/>
      </cc:Work>
    </rdf:RDF>
  </metadata>
  <defs id="defs20"/>
  <g id="g4259" transform="translate(219.76627,-40.678386)">
    <g transform="matrix(0.66480906,-0.28219472,0.28219472,0.66480906,-359.16774,-168.8767)" id="g4">
      <rect width="359" height="539" rx="29.944" x="0.5" y="512.85999" id="rect6-6" style="fill:#ffffff;stroke:#000000;stroke-width:4.15384626;stroke-miterlimit:4;stroke-dasharray:none"/>
      <g id="g8" style="fill:#ff5555">
        <path inkscape:connector-curvature="0" d="m 180,762.36 c 0,0 1.82,-11.153 5.333,-14.667 3.514,-3.514 9.698,-5.333 14.667,-5.333 4.969,0 11.153,1.82 14.667,5.333 3.514,3.514 5.333,9.698 5.333,14.667 0,4.969 -2.667,12 -5.333,14.667 -2.667,2.667 -5.333,4 -8,6.667 -2.667,2.667 -4,2.667 -6.667,5.333 -2.667,2.667 -4,4 -6.667,6.667 -2.667,2.667 -6.667,8 -9.333,13.333 -2.667,5.333 -4,13.333 -4,13.333 0,0 -1.333,-8 -4,-13.333 -2.667,-5.333 -6.667,-10.667 -9.333,-13.333 -2.667,-2.667 -4,-4 -6.667,-6.667 -2.667,-2.667 -4,-2.667 -6.667,-5.333 -2.667,-2.667 -5.333,-4 -8,-6.667 C 142.666,774.36 140,767.329 140,762.36 c 0,-4.969 1.82,-11.153 5.333,-14.667 3.514,-3.514 9.698,-5.333 14.667,-5.333 4.969,0 11.153,1.82 14.667,5.333 3.514,3.514 5.333,14.667 5.333,14.667" id="path10"/>
        <path inkscape:connector-curvature="0" d="m 30,609.86 c 0,0 0.682,-4.182 2,-5.5 1.318,-1.318 3.637,-2 5.5,-2 1.863,0 4.182,0.682 5.5,2 1.318,1.318 2,3.637 2,5.5 0,1.863 -1,4.5 -2,5.5 -1,1 -2,1.5 -3,2.5 -1,1 -1.5,1 -2.5,2 -1,1 -1.5,1.5 -2.5,2.5 -1,1 -2.5,3 -3.5,5 -1,2 -1.5,5 -1.5,5 0,0 -0.5,-3 -1.5,-5 -1,-2 -2.5,-4 -3.5,-5 -1,-1 -1.5,-1.5 -2.5,-2.5 -1,-1 -1.5,-1 -2.5,-2 -1,-1 -2,-1.5 -3,-2.5 -1,-1 -2,-3.637 -2,-5.5 0,-1.863 0.682,-4.182 2,-5.5 1.318,-1.318 3.637,-2 5.5,-2 1.863,0 4.182,0.682 5.5,2 1.318,1.318 2,5.5 2,5.5" id="path12-1"/>
        <path inkscape:connector-curvature="0" d="m 330,954.86 c 0,0 0.682,4.182 2,5.5 1.318,1.318 3.637,2 5.5,2 1.863,0 4.182,-0.682 5.5,-2 1.318,-1.318 2,-3.637 2,-5.5 0,-1.863 -1,-4.5 -2,-5.5 -1,-1 -2,-1.5 -3,-2.5 -1,-1 -1.5,-1 -2.5,-2 -1,-1 -1.5,-1.5 -2.5,-2.5 -1,-1 -2.5,-3 -3.5,-5 -1,-2 -1.5,-5 -1.5,-5 0,0 -0.5,3 -1.5,5 -1,2 -2.5,4 -3.5,5 -1,1 -1.5,1.5 -2.5,2.5 -1,1 -1.5,1 -2.5,2 -1,1 -2,1.5 -3,2.5 -1,1 -2,3.637 -2,5.5 0,1.863 0.682,4.182 2,5.5 1.318,1.318 3.637,2 5.5,2 1.863,0 4.182,-0.682 5.5,-2 1.318,-1.318 2,-5.5 2,-5.5" id="path14-3"/>
        <path inkscape:connector-curvature="0" d="m 30,542.36 c -5.54,0 -10,4.46 -10,10 l 0,5 5,0 0,-5 c 0,-2.77 2.23,-5 5,-5 2.77,0 5,2.23 5,5 l 0,5 c 0,2.77 -2.23,5 -5,5 l -5,0 0,5 5,0 c 2.77,0 5,2.23 5,5 l 0,10 c 0,2.77 -2.23,5 -5,5 -2.77,0 -5,-2.23 -5,-5 l 0,-5 -5,0 0,5 c 0,5.54 4.46,10 10,10 5.54,0 10,-4.46 10,-10 l 0,-10 c 0,-3 -1.323,-5.67 -3.406,-7.5 2.083,-1.83 3.406,-4.496 3.406,-7.5 l 0,-5 c 0,-5.54 -4.46,-10 -10,-10" id="path16-2"/>
        <path inkscape:connector-curvature="0" d="m 180,582.36 c 0,0 1.82,-11.153 5.333,-14.667 3.514,-3.514 9.698,-5.333 14.667,-5.333 4.969,0 11.153,1.82 14.667,5.333 3.514,3.514 5.333,9.698 5.333,14.667 0,4.969 -2.667,12 -5.333,14.667 -2.667,2.667 -5.333,4 -8,6.667 -2.667,2.667 -4,2.667 -6.667,5.333 -2.667,2.667 -4,4 -6.667,6.667 -2.667,2.667 -6.667,8 -9.333,13.333 -2.667,5.333 -4,13.333 -4,13.333 0,0 -1.333,-8 -4,-13.333 -2.667,-5.333 -6.667,-10.667 -9.333,-13.333 -2.667,-2.667 -4,-4 -6.667,-6.667 -2.667,-2.667 -4,-2.667 -6.667,-5.333 -2.667,-2.667 -5.333,-4 -8,-6.667 C 142.666,594.36 140,587.329 140,582.36 c 0,-4.969 1.82,-11.153 5.333,-14.667 3.514,-3.514 9.698,-5.333 14.667,-5.333 4.969,0 11.153,1.82 14.667,5.333 3.514,3.514 5.333,14.667 5.333,14.667" id="path18"/>
        <path inkscape:connector-curvature="0" d="m 180,982.36 c 0,0 1.82,11.153 5.333,14.667 3.514,3.514 9.698,5.333 14.667,5.333 4.969,0 11.153,-1.82 14.667,-5.333 3.514,-3.514 5.333,-9.698 5.333,-14.667 0,-4.969 -2.667,-12 -5.333,-14.667 -2.667,-2.667 -5.333,-4 -8,-6.667 -2.667,-2.667 -4,-2.667 -6.667,-5.333 -2.667,-2.667 -4,-4 -6.667,-6.667 -2.667,-2.667 -6.667,-8 -9.333,-13.333 -2.667,-5.333 -4,-13.333 -4,-13.333 0,0 -1.333,8 -4,13.333 -2.667,5.333 -6.667,10.667 -9.333,13.333 -2.667,2.667 -4,4 -6.667,6.667 -2.667,2.667 -4,2.667 -6.667,5.333 -2.667,2.667 -5.333,4 -8,6.667 -2.667,2.667 -5.333,9.698 -5.333,14.667 0,4.969 1.82,11.153 5.333,14.667 3.514,3.514 9.698,5.333 14.667,5.333 4.969,0 11.153,-1.82 14.667,-5.333 C 178.181,993.513 180,982.36 180,982.36" id="path20"/>
        <path inkscape:connector-curvature="0" d="m 330,1022.36 c 5.54,0 10,-4.46 10,-10 l 0,-5 -5,0 0,5 c 0,2.77 -2.23,5 -5,5 -2.77,0 -5,-2.23 -5,-5 l 0,-5 c 0,-2.77 2.23,-5 5,-5 l 5,0 0,-5 -5,0 c -2.77,0 -5,-2.23 -5,-5 l 0,-10 c 0,-2.77 2.23,-5 5,-5 2.77,0 5,2.23 5,5 l 0,5 5,0 0,-5 c 0,-5.54 -4.46,-10 -10,-10 -5.54,0 -10,4.46 -10,10 l 0,10 c 0,3 1.323,5.67 3.406,7.5 -2.083,1.83 -3.406,4.496 -3.406,7.5 l 0,5 c 0,5.54 4.46,10 10,10" id="path22"/>
      </g>
    </g>
    <g transform="matrix(0.72222222,0,0,0.72222222,50.233717,57.448264)" id="g3353">
      <rect style="fill:#ffffff;stroke:#000000;stroke-width:4.15384626;stroke-miterlimit:4;stroke-dasharray:none" id="rect6" y="0.49998534" x="0.5" rx="29.944" height="539" width="359"/>
      <g id="g3428" transform="translate(67.564453,8.275391)">
        <path sodipodi:nodetypes="ccccc" d="m -43.565,57.724479 0,5 12,10e-7 -9e-5,-5 z" id="path8-4-76" inkscape:connector-curvature="0"/>
        <path id="path8-4-7-8" d="m -40.064453,21.724609 -7.5,50 5,0 5,-33.333984 5,33.333984 5,0 -7.5,-50 -5,0 z" style="fill:#000000" inkscape:connector-curvature="0"/>
      </g>
      <g transform="matrix(1,0,0,-1,367.56445,531.72461)" id="g3432">
        <path inkscape:connector-curvature="0" id="path3434" d="m -43.565,57.724479 0,5 12,10e-7 -9e-5,-5 z" sodipodi:nodetypes="ccccc"/>
        <path inkscape:connector-curvature="0" style="fill:#000000" d="m -40.064453,21.724609 -7.5,50 5,0 5,-33.333984 5,33.333984 5,0 -7.5,-50 -5,0 z" id="path3436"/>
      </g>
      <path inkscape:connector-curvature="0" id="path12" d="m 180,230 c -1.333,6.667 -2.855,8.392 -5.333,12 -2.135,3.109 -5.122,5.562 -8,8 -2.917,2.471 -6.248,4.408 -9.333,6.667 -3.586,2.625 -7.819,4.588 -10.667,8 -3.184,3.815 -6.667,8.364 -6.667,13.333 0,3.975 2.408,7.975 5.333,10.667 3.523,3.241 8.548,5.444 13.333,5.333 5.369,-0.124 10.8,-2.94 14.667,-6.667 2.862,-2.758 5.333,-10.667 5.333,-10.667 l 0,2.667 c 0,1.333 -0.133,7.29 -1.333,10.667 -1.404,3.951 -3.83,7.579 -6.667,10.667 -3.01,3.273 -10.667,8 -10.667,8 l 0,1.333 c 0,0 10.612,-2.221 16,-2.667 2.658,-0.22 5.342,-0.22 8,0 5.388,0.446 16,2.667 16,2.667 l 0,-1.333 c 0,0 -7.66,-4.727 -10.667,-8 -2.836,-3.088 -5.263,-6.716 -6.667,-10.667 -1.2,-3.376 -1.333,-10.667 -1.333,-10.667 l 0,-2.667 c 0,0 2.471,7.908 5.333,10.667 3.867,3.726 9.298,6.543 14.667,6.667 4.786,0.11 9.811,-2.092 13.333,-5.333 2.925,-2.692 5.333,-6.691 5.333,-10.667 0,-4.969 -3.483,-9.518 -6.667,-13.333 -2.848,-3.412 -7.08,-5.375 -10.667,-8 -3.085,-2.258 -6.416,-4.195 -9.333,-6.667 -2.878,-2.438 -5.865,-4.891 -8,-8 -2.478,-3.608 -4,-5.333 -5.333,-12"/>
      <path inkscape:connector-curvature="0" id="path14" d="m 30,90 c -0.5,2.5 -1.071,3.147 -2,4.5 -0.801,1.166 -1.921,2.086 -3,3 -1.094,0.927 -2.343,1.653 -3.5,2.5 -1.345,0.984 -2.932,1.72 -4,3 -1.194,1.431 -2.5,3.137 -2.5,5 0,1.491 0.903,2.991 2,4 1.321,1.216 3.205,2.041 5,2 2.01,-0.05 4.05,-1.103 5.5,-2.5 1.073,-1.034 2,-4 2,-4 l 0,1 c 0,0.5 -0.05,2.734 -0.5,4 -0.527,1.481 -1.436,2.842 -2.5,4 -1.127,1.227 -4,3 -4,3 l 0,0.5 c 0,0 3.979,-0.833 6,-1 0.997,-0.08 2,-0.08 3,0 2.02,0.167 6,1 6,1 l 0,-0.5 c 0,0 -2.873,-1.773 -4,-3 -1.064,-1.158 -1.973,-2.519 -2.5,-4 -0.45,-1.266 -0.5,-4 -0.5,-4 l 0,-1 c 0,0 0.927,2.966 2,4 1.45,1.397 3.487,2.454 5.5,2.5 1.795,0.04 3.679,-0.784 5,-2 1.097,-1.01 2,-2.509 2,-4 0,-1.863 -1.306,-3.569 -2.5,-5 -1.068,-1.28 -2.655,-2.02 -4,-3 -1.157,-0.847 -2.406,-1.573 -3.5,-2.5 -1.079,-0.914 -2.199,-1.834 -3,-3 -0.929,-1.353 -1.5,-2 -2,-4.5"/>
      <path inkscape:connector-curvature="0" id="path16" d="m 330,450 c -0.5,-2.5 -1.071,-3.147 -2,-4.5 -0.801,-1.166 -1.921,-2.086 -3,-3 -1.094,-0.927 -2.343,-1.653 -3.5,-2.5 -1.345,-0.984 -2.932,-1.72 -4,-3 -1.194,-1.431 -2.5,-3.137 -2.5,-5 0,-1.491 0.903,-2.991 2,-4 1.321,-1.216 3.205,-2.041 5,-2 2.01,0.05 4.05,1.103 5.5,2.5 1.073,1.034 2,4 2,4 l 0,-1 c 0,-0.5 -0.05,-2.734 -0.5,-4 -0.527,-1.481 -1.436,-2.842 -2.5,-4 -1.127,-1.227 -4,-3 -4,-3 l 0,-0.5 c 0,0 3.979,0.833 6,1 0.997,0.08 2,0.08 3,0 2.02,-0.167 6,-1 6,-1 l 0,0.5 c 0,0 -2.873,1.773 -4,3 -1.064,1.158 -1.973,2.519 -2.5,4 -0.45,1.266 -0.5,4 -0.5,4 l 0,1 c 0,0 0.927,-2.966 2,-4 1.45,-1.397 3.487,-2.454 5.5,-2.5 1.795,-0.04 3.679,0.784 5,2 1.097,1.01 2,2.509 2,4 0,1.863 -1.306,3.569 -2.5,5 -1.068,1.28 -2.655,2.02 -4,3 -1.157,0.847 -2.406,1.573 -3.5,2.5 -1.079,0.914 -2.199,1.834 -3,3 -0.929,1.353 -1.5,2 -2,4.5"/>
    </g>
    <g transform="matrix(0.92050485,0.39073113,-0.39073113,0.92050485,-255.27187,-1151.2098)" id="g3392">
      <g transform="matrix(0.72222222,0,0,0.72222222,1021.2348,523.31581)" id="g3443">
        <rect id="rect3394" width="359" height="539" rx="29.944" x="0.5" y="512.85999" style="fill:#ffffff;stroke:#000000;stroke-width:4.15384626;stroke-miterlimit:4;stroke-dasharray:none"/>
        <g id="g3396" style="fill:#ff5555">
          <path id="path3398" d="m 100,562.36 c 0,0 8,13.333 17.333,22.667 9.333,9.333 22.667,17.333 22.667,17.333 0,0 -13.333,8 -22.667,17.333 C 108,629.026 100,642.36 100,642.36 c 0,0 -8,-13.333 -17.333,-22.667 C 73.334,610.36 60,602.36 60,602.36 c 0,0 13.333,-8 22.667,-17.333 C 92,575.694 100,562.36 100,562.36" inkscape:connector-curvature="0"/>
          <path id="path3400" d="m 260,562.36 c 0,0 8,13.333 17.333,22.667 9.333,9.333 22.667,17.333 22.667,17.333 0,0 -13.333,8 -22.667,17.333 C 268,629.026 260,642.36 260,642.36 c 0,0 -8,-13.333 -17.333,-22.667 C 233.334,610.36 220,602.36 220,602.36 c 0,0 13.333,-8 22.667,-17.333 C 252,575.694 260,562.36 260,562.36" inkscape:connector-curvature="0"/>
          <path id="path3402" d="m 180,652.36 c 0,0 8,13.333 17.333,22.667 9.333,9.333 22.667,17.333 22.667,17.333 0,0 -13.333,8 -22.667,17.333 C 188,719.026 180,732.36 180,732.36 c 0,0 -8,-13.333 -17.333,-22.667 C 153.334,700.36 140,692.36 140,692.36 c 0,0 13.333,-8 22.667,-17.333 C 172,665.694 180,652.36 180,652.36" inkscape:connector-curvature="0"/>
          <path id="path3404" d="m 100,742.36 c 0,0 8,13.333 17.333,22.667 9.333,9.333 22.667,17.333 22.667,17.333 0,0 -13.333,8 -22.667,17.333 C 108,809.026 100,822.36 100,822.36 c 0,0 -8,-13.333 -17.333,-22.667 C 73.334,790.36 60,782.36 60,782.36 c 0,0 13.333,-8 22.667,-17.333 C 92,755.694 100,742.36 100,742.36" inkscape:connector-curvature="0"/>
          <path id="path3406" d="m 260,742.36 c 0,0 8,13.333 17.333,22.667 9.333,9.333 22.667,17.333 22.667,17.333 0,0 -13.333,8 -22.667,17.333 C 268,809.026 260,822.36 260,822.36 c 0,0 -8,-13.333 -17.333,-22.667 C 233.334,790.36 220,782.36 220,782.36 c 0,0 13.333,-8 22.667,-17.333 C 252,755.694 260,742.36 260,742.36" inkscape:connector-curvature="0"/>
          <path id="path3408" d="m 180,832.36 c 0,0 8,13.333 17.333,22.667 9.333,9.333 22.667,17.333 22.667,17.333 0,0 -13.333,8 -22.667,17.333 C 188,899.026 180,912.36 180,912.36 c 0,0 -8,-13.333 -17.333,-22.667 C 153.334,880.36 140,872.36 140,872.36 c 0,0 13.333,-8 22.667,-17.333 C 172,845.694 180,832.36 180,832.36" inkscape:connector-curvature="0"/>
          <path id="path3410" d="m 100,922.36 c 0,0 8,13.333 17.333,22.667 9.333,9.333 22.667,17.333 22.667,17.333 0,0 -13.333,8 -22.667,17.333 C 108,989.026 100,1002.36 100,1002.36 c 0,0 -8,-13.333 -17.333,-22.667 C 73.334,970.36 60,962.36 60,962.36 c 0,0 13.333,-8 22.667,-17.333 C 92,935.694 100,922.36 100,922.36" inkscape:connector-curvature="0"/>
          <path id="path3412" d="m 260,922.36 c 0,0 8,13.333 17.333,22.667 9.333,9.333 22.667,17.333 22.667,17.333 0,0 -13.333,8 -22.667,17.333 C 268,989.026 260,1002.36 260,1002.36 c 0,0 -8,-13.333 -17.333,-22.667 C 233.334,970.36 220,962.36 220,962.36 c 0,0 13.333,-8 22.667,-17.333 C 252,935.694 260,922.36 260,922.36" inkscape:connector-curvature="0"/>
          <path id="path3414" d="m 330,932.36 c 0,0 3,5 6.5,8.5 3.5,3.5 8.5,6.5 8.5,6.5 0,0 -5,3 -8.5,6.5 -3.5,3.5 -6.5,8.5 -6.5,8.5 0,0 -3,-5 -6.5,-8.5 -3.5,-3.5 -8.5,-6.5 -8.5,-6.5 0,0 5,-3 8.5,-6.5 3.5,-3.5 6.5,-8.5 6.5,-8.5" inkscape:connector-curvature="0"/>
          <path id="path3416" d="m 30,602.36 c 0,0 3,5 6.5,8.5 3.5,3.5 8.5,6.5 8.5,6.5 0,0 -5,3 -8.5,6.5 -3.5,3.5 -6.5,8.5 -6.5,8.5 0,0 -3,-5 -6.5,-8.5 -3.5,-3.5 -8.5,-6.5 -8.5,-6.5 0,0 5,-3 8.5,-6.5 3.5,-3.5 6.5,-8.5 6.5,-8.5" inkscape:connector-curvature="0"/>
          <path id="path3418" d="m 30,542.36 c -5.54,0 -10,4.46 -10,10 l 0,5 c 0,3 1.323,5.67 3.406,7.5 -2.083,1.83 -3.406,4.496 -3.406,7.5 l 0,10 c 0,5.54 4.46,10 10,10 5.54,0 10,-4.46 10,-10 l 0,-10 c 0,-3 -1.323,-5.67 -3.406,-7.5 2.083,-1.83 3.406,-4.496 3.406,-7.5 l 0,-5 c 0,-5.54 -4.46,-10 -10,-10 m 0,5 c 2.77,0 5,2.23 5,5 l 0,5 c 0,2.77 -2.23,5 -5,5 -2.77,0 -5,-2.23 -5,-5 l 0,-5 c 0,-2.77 2.23,-5 5,-5 m 0,20 c 2.77,0 5,2.23 5,5 l 0,10 c 0,2.77 -2.23,5 -5,5 -2.77,0 -5,-2.23 -5,-5 l 0,-10 c 0,-2.77 2.23,-5 5,-5" inkscape:connector-curvature="0"/>
          <path id="path3420" d="m 330,1022.36 c -5.54,0 -10,-4.46 -10,-10 l 0,-5 c 0,-3 1.323,-5.67 3.406,-7.5 -2.083,-1.83 -3.406,-4.496 -3.406,-7.5 l 0,-10 c 0,-5.54 4.46,-10 10,-10 5.54,0 10,4.46 10,10 l 0,10 c 0,3 -1.323,5.67 -3.406,7.5 2.083,1.83 3.406,4.496 3.406,7.5 l 0,5 c 0,5.54 -4.46,10 -10,10 m 0,-5 c 2.77,0 5,-2.23 5,-5 l 0,-5 c 0,-2.77 -2.23,-5 -5,-5 -2.77,0 -5,2.23 -5,5 l 0,5 c 0,2.77 2.23,5 5,5 m 0,-20 c 2.77,0 5,-2.23 5,-5 l 0,-10 c 0,-2.77 -2.23,-5 -5,-5 -2.77,0 -5,2.23 -5,5 l 0,10 c 0,2.77 2.23,5 5,5" inkscape:connector-curvature="0"/>
        </g>
      </g>
    </g>
  </g>
</svg>