<?xml version="1.0" encoding="UTF-8"?>
<svg xmlns="http://www.w3.org/2000/svg" width="167.086" height="242.668">
  <path fill="#FFF" stroke="#000" stroke-width=".5" d="M166.836 235.547c0 3.777-3.086 6.871-6.869 6.871H7.112c-3.774 0-6.861-3.094-6.861-6.871V7.119C.251 3.342 3.338.25 7.112.25h152.855c3.783 0 6.869 3.092 6.869 6.869v228.428z"/>
  <path d="M156.223 212.027v2.844h-.688c-.018-.752-.094-1.307-.23-1.658-.137-.354-.344-.529-.617-.529-.348 0-.591.299-.729.898-.138.598-.205 1.721-.205 3.367v15.984h1.188v1.469h-4.313v-1.469h1.031v-16.08c0-1.957.219-3.385.658-4.287.438-.9 1.141-1.352 2.105-1.352.299 0 .596.068.893.203.299.137.6.341.907.61zm-10.815 4c1.354 0 2.415.831 3.184 2.49s1.154 3.947 1.154 6.863-.386 5.205-1.154 6.869-1.83 2.496-3.184 2.496c-1.361 0-2.426-.83-3.195-2.49-.77-1.658-1.154-3.951-1.154-6.875 0-2.916.387-5.205 1.16-6.863.773-1.66 1.836-2.49 3.189-2.49zm0 1.469c-.691 0-1.204.648-1.537 1.943-.333 1.297-.5 3.277-.5 5.941 0 2.672.167 4.656.5 5.953.333 1.295.846 1.943 1.537 1.943.684 0 1.191-.654 1.525-1.963.334-1.307.5-3.285.5-5.934 0-2.641-.166-4.615-.5-5.922-.333-1.307-.841-1.961-1.525-1.961zm-5.345-1.125v1.469h-1.031v15.094h1.031v1.469h-4.125v-1.469h1.031v-6.576l-3.412 6.576h.859v1.469h-2.998v-1.469h1.076l2.889-5.563-3.939-9.531h-.787v-1.469h2.729l3.584 8.756v-7.287h-1.031v-1.469h4.124zm-9.6 0v1.469h-1.031v15.094h1.031v1.469h-7.219v-4.25h.75v2.594h3.375v-5.781h-2.094v2.281h-.75v-6.219h.75v2.281h2.094v-7.281H123.9v2.594h-.75v-4.25h7.313zm-13.787 8.793c-.313-.104-.579-.34-.799-.709s-.41-.902-.57-1.6l-1.166-5.016h-.834v-1.469h2.648l1.293 5.447c.254 1.125.468 1.841.643 2.15s.416.465.725.465h.336v-6.594h-1.031v-1.469h4.125v1.469h-1.031v15.094h1.031v1.469h-4.598c-.938 0-1.661-.422-2.17-1.264s-.764-2.037-.764-3.584c0-1.258.182-2.252.541-2.98.361-.729.9-1.198 1.621-1.409zm2.275.707h-.707c-.51 0-.904.307-1.186.92-.279.611-.42 1.486-.42 2.623s.14 2.009.42 2.613.676.906 1.186.906h.707v-7.062zM10.325 30.133v-2.844h.688c.017.753.093 1.307.229 1.658.138.354.344.529.619.529.347 0 .589-.299.727-.897s.206-1.722.206-3.368V9.226h-1.188V7.758h4.313v1.469h-1.031v16.081c0 1.956-.219 3.384-.657 4.286-.438.901-1.141 1.352-2.107 1.352-.297 0-.595-.068-.893-.203s-.6-.34-.906-.61zm10.814-4c-1.354 0-2.415-.83-3.184-2.489s-1.154-3.947-1.154-6.864c0-2.916.385-5.205 1.154-6.869s1.83-2.496 3.184-2.496c1.361 0 2.427.83 3.196 2.49.769 1.659 1.153 3.951 1.153 6.875 0 2.917-.387 5.205-1.16 6.864s-1.836 2.489-3.189 2.489zm0-1.469c.691 0 1.204-.648 1.537-1.943.333-1.297.5-3.277.5-5.941 0-2.672-.167-4.656-.5-5.952s-.846-1.944-1.537-1.944c-.684 0-1.192.654-1.525 1.963-.333 1.308-.5 3.285-.5 5.934 0 2.641.167 4.615.5 5.923s.841 1.96 1.525 1.96zm5.346 1.125V24.32h1.031V9.226h-1.031V7.758h4.125v1.469h-1.031v6.576l3.412-6.576h-.858V7.758h2.997v1.469h-1.075l-2.889 5.563 3.939 9.531h.786v1.469h-2.728l-3.585-8.756v7.287h1.031v1.469h-4.124zm9.599 0V24.32h1.031V9.226h-1.031V7.758h7.219v4.25h-.75V9.414h-3.375v5.781h2.094v-2.281h.75v6.219h-.75v-2.281h-2.094v7.281h3.469v-2.594h.75v4.25h-7.313zm13.787-8.793c.313.104.579.34.799.709s.41.902.57 1.601l1.167 5.015h.834v1.469h-2.649l-1.293-5.447c-.253-1.125-.467-1.842-.642-2.15-.175-.311-.417-.465-.726-.465h-.336v6.594h1.031v1.469h-4.125V24.32h1.031V9.226h-1.031V7.758H49.1c.938 0 1.661.422 2.17 1.264s.764 2.037.764 3.585c0 1.258-.181 2.251-.541 2.98s-.901 1.199-1.622 1.409zm-2.275-.707h.707c.511 0 .906-.307 1.186-.919s.42-1.487.42-2.624-.14-2.008-.42-2.612-.675-.907-1.186-.907h-.707v7.062z"/>
  <path fill="#E6180A" d="m101.1401 196.4325-.715 1.387.738 4.821 1.923-.334 3.812-2.59-4.237-4.049-1.521.765zm36.158-130.734c-1.864-2.992-2.79-4.794-2.595-5.974.178-1.074 1.46-2.443-1.219-4.572-1.589-1.263-8.359.63-3.714 6.247 4.325.542 3.748-.388 2.81 4.232-6.495 6.667-10.146 4.545-16.175 3.011-7.416-1.251-9.035 3.314-12.299.448-2.854-9.7 1.77-5.97 3.246-5.374 3.336-1.421 2.516-.402 3.38-4.367-1.727-2.762-.858-2.099-3.614-2.854-2.274 1.058-1.458.315-3.546 3.459-4.942 2.154-7.675 2.983-7.16 11.823 2.478 5.253 2.118 3.953 2.074 6.014-3.938 6.132-2.854 3.598-4.919 10.918-2.715 2.347-2.145 1.206-2.309 4.835-.805 2.018-5.62-.998-5.421 4.906-7.67-4.604-9.635-2.597-20.243 2.317-5.583 1.491-3.6 1.268-8.699 1.142-.709.355-1.976-.025 3.548 5.341 2.064-.127 1.009.087 4.784-1.04.678.441 4.228 1.348.201 5.374-2.035.048-4.251-.759-8.428 6.639-.602 1.065-.761 2.449-1.242 3.976 9.193-1.691 6.836-.869 10.842-3.494 3.62-7.982 6.047-4.05 6.857-1.275-1.924 3.316-.68 2.532-5.32 3.19-4.044 4.021-2.722 1.771-5.653 10.28 1.935 1.833 8.186-.592 12.514-3.596.499-2.63.961-6.299 6.089-3.997.879 2.394.993 1.356-.569 4.367-5.321 1.585-4.677.496-7.779 10.313 0 4.702-.672 3.933 2.594 3.426 6.363-3.031 6.239-2.558 9.735-6.449-2.031-8.746 4.65-5.876 4.751-5.845 1.291 2.073 2.6 2.675-3.579 5.946.156 10.848-.108 8.541.87 11.486 1.475.399 2.286 1.964 9.703-7.59-.062-5.566-.526-6.97 3.914-7.222 4.185 2.515.461 5.02-1.573 6.616.209 3.19.028 7.592 2.677 9.137 6.786-5.764 5.265-4.097 7.162-7.524-1.162-3.803-2.656-5.872 1.84-7.322 3.262 2.646 3.126 1.808 1.036 6.785 1.849 6.329.819 4.245 4.317 9.238.347-.008 2.997 1.055 4.75-8.734-2.226-3.658-2-3.319-.501-5.711 2.255-.04 1.563-.461 2.878 1.848-1.304 4.257-2.028 7.363 8.063 12.094 1.152-.947 1.25 2.027-6.725-17.87-.804-7.42-.453-4.896-1.507-11.153-3.326-5.372-1.478-3.493-8.463-8.129.078-7.092-.108-4.997.735-9.44 7.776-5.291 6.755-5.25 11.543-1.713 1.741 4.504 1.825 3.95-.67 3.998-2.382 1.343-1.746.424-2.608 3.932 2.601 4.543 3.748 3.396 6.121 2.384 1.808-4.665-.809-3.423 1.707-6.986 2.356-7.466-3.575-9.496-1.026-15.617 2.446-3.146 3.812-4.804 5.075-6.284 3.81-8.688 2.43-11.832 1.74-15.59zm-20.085 27.071c-7.897 5.045-5.025 3.93-12.587 5.262l-4.802-.992-2.258-3.224c.18-7.174-.479-4.581 2.576-11.37l3.229-4.787 5.235-2.92s1.595-.177 2.23-.273l3.079-.204 2.187 1.749c-.551 3.11-.505 2.312-.28 3.672 3.215.3 1.955-.052 5.541 1.688l.445 2.825c-1.587 5.336-.593 3.368-4.595 8.574z"/>
  <path fill="#E6180A" d="m115.9261 68.4295.387.456-6.526 5.853-.386-.457zm-62.091 36.793 2.958.669 2.082 3.555-2.292 11.083-5.955 11.125-9.124 9.411h-8.039l-1.292-1.758 10.247-9.284 8.208-13.467 3.207-11.334zm52.393 42.582 1.286-.969 3.695-.914 1.179 1.075 1.981 7.529.697 4.085-.536 7.635-3.053 12.423-2.25 5.483-3.642 4.732-4.446 3.064.321-2.15 3.75-6.184 2.196-6.506 1.98-8.765.697-6.237-.964-6.99-2.785-5.001-.106-2.31zm-28.046-101.318 3.742.328 2.059 4.692-1.576 3.416-5.176-.638-.832-4.844 1.783-2.954zm11.653-4.713 3.075-1.505 1.227.428.442 1.594v1.493l-.871 2.517-3.03 2.735-5.318 1.22-.382-1.473 1.893-.593 2.593-2.549.371-3.867z"/>
  <path fill="#FF009C" d="M53.2141 43.8845c0 1.185-.901 2.145-2.013 2.145s-2.012-.96-2.012-2.145.9-2.145 2.012-2.145 2.013.96 2.013 2.145z"/>
  <path fill="#00FF0A" d="M57.9171 54.7585c0 1.1-.938 1.991-2.095 1.991s-2.095-.892-2.095-1.991.938-1.99 2.095-1.99 2.095.89 2.095 1.99z"/>
  <path fill="#FF9E00" d="M68.4271 71.0155c0 1.146-1.018 2.076-2.272 2.076-1.256 0-2.272-.93-2.272-2.076s1.017-2.075 2.272-2.075c1.254 0 2.272.928 2.272 2.075z"/>
  <path fill="#0072FF" d="M76.8531 76.6005c0 1.263-.997 2.286-2.226 2.286s-2.227-1.023-2.227-2.286.997-2.286 2.227-2.286c1.229 0 2.226 1.023 2.226 2.286z"/>
  <path fill="#FF0" d="M85.7421 79.4165c0 1.393-1.011 2.521-2.256 2.521-1.246 0-2.256-1.129-2.256-2.521s1.01-2.521 2.256-2.521c1.246.001 2.256 1.129 2.256 2.521z"/>
  <path fill="#E6180A" d="M62.4331 64.1485c.326.537.025 1.314-.673 1.738-.697.424-1.528.332-1.854-.204-.326-.537-.025-1.314.672-1.738.698-.424 1.528-.332 1.855.204zm5.406-3.608c0 .501-.351.906-.783.906s-.784-.405-.784-.906.352-.907.784-.907.783.406.783.907zm-11.118 8.684c.094.107.02.324-.191.564s-.526.464-.82.584c-.293.12-.517.115-.582-.013-.094-.107-.021-.324.191-.564.211-.24.526-.465.819-.584s.517-.114.583.013zm-16.648 10.943 3.689-3.441 1.722 1.741-3.688 3.44zm-7.577 5.667 5.376-4.354 1.533 1.776-5.376 4.355zm-1.695 2.931c.18.202.193.522.035.833s-.461.561-.79.65c-.328.09-.628.006-.78-.22-.179-.202-.192-.522-.034-.833.157-.311.461-.561.789-.65s.628-.006.78.22zm-.551 56.416 1.42-.512 2.051 1.097 1.854 1.736.02 1.842-3.961 2.068-1.985-1.322.197-3.957.404-.952zm21.395-59.25c-1.533 20.332-2.207 16.445 1.356 20.594-3.37 12.986-1.911 10.62-6.126 12.536-9.629-3.641-7.926-2.173-8.415-6.306 3.76-18.445 2.136-12.39 6.786-25.617 1.009-1.641 4.892-3.493 6.399-1.207zm37.119 74.222 12.539-2.884 3.251-1.398 2.365-.226.618 1.144.056 5.652-.999.947-17.704 1.397-1.814-.324-.126-2.417 1.814-1.891z"/>
  <path d="m113.5791 84.2485 2.905 1.563 2.324 1.742c-.145-2.673-2.835-4.014-5.229-3.305zm-1.549 2.14h-.969c.184 2.553 3.573 4.139 5.811 4.472-.004-1.266-.059-3.458-1.023-4.391-.941-.909-3.509-1.983-3.819-.081zm.366.138c.159-.289 1.051-1.288 2.058-.339-.336.088-1.48.469-1.68 2.146-.542-.114-.637-1.261-.378-1.807zm3.815 3.498c-.148.149-1.696.019-3.014-1.322 1.873-.377 1.869-1.788 1.867-1.981.933.684 1.535 2.913 1.147 3.303z"/>
  <path d="M115.9031 79.5825c.144-1.132.799-2.563.388-3.694-1.424-3.923-8.405-1.365-10.652-.041-5.451 3.212-9.108 10.067-8.214 16.376.123.871-.115 1.659.221 2.527 1.505 3.891 6.783 3.509 10.124 3.144 7.419-.811 16.003-9.136 13.75-16.95-2.346-1.561-3.907-1.362-5.617-1.362zm-10.341-1.421c.372-.375.582-.379 1.602.22-.43-.062-1.518.583-1.565 1.327 0 0-.237-.515-.271-.783-.047-.369-.177-.352.234-.764zm1.938.624c1.26 1.442 1.871 6.681-1.737 1.425.55.184 1.696-.388 1.737-1.425zm11.36 11.102c-6.338 8.533-20.963 11.618-20.969 1.556-.003-3.771.955-6.359 2.962-9.527 5.23-8.258 2.355-.25 7.109 1.167l-2.131 2.139c2.017-.348 4.632-1.544 5.507-3.5.897-2.007-.955-5.444-3.183-5.639.508 1.834 4.193 5.25.774 6.416 0-2.404-.387-4.984-3.292-5.055.849-2.831 8.132-3.845 9.928-1.489.91 1.193-.895 2.957.229 3.893 1.613 1.344 4.755-.351 5.614 2.651.745 2.597-1.101 5.44-2.548 7.388z"/>
  <path d="M109.3181 91.6375c-1.883-.285-3.809-2.311-5.035-3.694-.443-.5-.969-1.819-1.743-1.819-2.185 0-1.792 4.413-.872 5.471 1.615 1.857 5.521 1.412 7.65 1.016l-1.355 2.139c3.451-.541 2.13-3.683 1.162-5.833-.969.926-.087 1.674.193 2.72zm-6.778-4.666 4.454 5.055c-2.459 0-6.551-1.945-4.454-5.055zm-15.687-42.971.774 1.361c1.267-.777.581-2.006-.774-1.361zm12.975 43.748 2.324-3.11c-1.615.108-2.716 1.491-2.324 3.11zm8.909.584c-.097-1.267-1.233-1.75-2.324-2.14-.193 1.296 1.162 2.013 2.324 2.14zm-18.592 14.582c1.162 5.017 6.964 7.62 11.427 8.703 1.746.424 4.714.748 6.004-.731-3.956-1.028-7.567-.983-11.232-3.229-1.937-1.187-3.974-4.548-6.199-4.743zm12.848.44c.782-.86-3.589-2.164-4.184-1.6-.457.433.328 1.006.632 1.184.818.478 2.713 1.339 3.552.416z"/>
  <path d="M137.2721 64.8075c-.553-1.419-1.793-2.534-2.314-3.879-.264-.68.441-1.448.484-2.148.152-2.477-1.335-4.828-4.046-4.591-2.807.246-4.727 3.674-3.151 6.146 1.027 1.613 2.915 2.078 4.7 1.75-.046 5.462-6.149 8.419-11.039 7.693-2.807-.417-4.97-1.983-7.94-1.853-3.121.137-7.465 2.215-8.626 1.548-2.617-1.505-1.486-4.622-1.252-6.806 6.956 4.905 9.355-5.076 4.262-6.325-1.482-.364-3.229.229-4.136 1.473-.419.575-.443 1.495-1.001 1.948-1.102.894-2.905 1.001-4.121 1.969-2.586 2.058-3.438 6.186-3.106 9.296.484 4.538 2.661 4.96 2.057 6.578-.768 2.054-2.539 3.877-3.482 5.899-.729 1.561-.621 3.523-1.404 4.985-.783 1.464-3.033 1.005-2.24 5.286-2.712-.64-6.126 1.309-5.423 4.278-1.172-.815-2.668-1.962-4.067-2.309-7.317-1.81-15.312 6.283-21.885 6.001-.969-.042-2.379-.554-3.238.006-1.477.961.716 2.296 1.107 3.021.971 1.797-5.354-1.381-6.004-2.699-.669-1.355 1.344-16.856 1.144-19.385-.057-.71-.478-1.412-.138-2.106.492-1.003 1.472-1.783 2.023-2.788.759-1.381 1.018-2.954 2.139-4.124 1.229-1.284 3.614-2.446 4.456-4.06.377-.724-.314-1.39-.02-2.048.323-.72.231.063 7.05-5.339.574-.455 1.441-1.828 2.229-1.046 1.53 1.516.569 7.159-1.509 7.901-1.104.395-2.187-1.176-3.622-.583-1.017.42-1.54 1.468-1.549 2.528-.031 3.766 6.101 3.14 5.035-.584 4.592-1.26 3.638-7.188 4.688-10.693.032-.107 3.011-5.878 4.461-3.845.736 1.033-.106 4.428-.047 5.789.147 3.358 1.173 6.42-.116 9.722-.289.739-.554 1.944-1.28 2.354-.515.55-2.149.233-3.178.714-1.92 1.368-1.481 5.747 2.337 4.394 2.058-.729.95-2.126 1.934-3.424 1.025-1.353 2.662-2.189 3.596-3.647 2.113-3.299 1.037-7.192.388-10.694-.19-1.027-.646-5.015 1.154-5.015.682 0 .974 1.009 1.16 1.515 2.041 5.545 3.903 13.437.522 18.277-.816 1.168-2.601.593-3.225 2.143-.674 1.673.128 3.565 1.938 3.977 1.938.44 3.368-1.159 3.284-3.006-.031-.685-.576-1.507-.238-2.139.544-1.016 1.579-1.668 2.109-2.723 1.72-3.415 1.993-8.271.713-11.86-1.014-2.841-5.682-6.222-4.726-9.333.792-2.578 3.808-2.121 5.827-3.188 4.574-2.417 5.647-5.742 4.073-10.194-.11-.778.843-1.537.376-2.337-.418-.718-1.352-.613-1.784 0-.87 1.234.713 2.102-.856 3.313-.979.756-2.25.477-3.355.877-.514.186-.879.753-1.406.857-.831.165-1.567-.461-2.365.174-1.252.997-.874 3.847-3.201 4.083-5.34.542-1.943-5.827-10.846-7.928-3.166-.747-6.734.119-8.721 2.903-1.153 1.617-1.684 5.564-4.255 5.476-1.004-.035-3.54-.835-3.943-1.855-.499-1.261.337-2.495-1.112-3.457-1.358-.901-3.402-.285-3.778 1.363-.354 1.551.313 3.266 2.055 3.457.703.077 1.448-.359 2.098-.025 1.755.903 3.072 2.528 5.263 2.113 2.853-.54 3.677-4.384 5.81-6.074 3.473-2.753 12.35 1.253 12.719 3.443.216 1.281-2.456.459-3.035.39-3.229-.386-6.972.526-8.669 3.503-1.228 2.152-.315 4.471-3.339 5.383-4.531 1.367-2.527-2.178-4.846-2.925-2.287-.737-4.194 1.043-3.513 3.179 1.007 3.161 3.484.824 5.452 1.077 1.903.245 3.678.808 5.415-.575 2.185-1.738 1.748-4.396 4.85-5.491 1.282-.453 5.289-1.54 5.878.325.465 1.474-.714 1.329-8.009 7.505-.61.517-3.517 2.789-4.324 3.414-2.314 1.793-4.831 5.034-7.562 6.088-1.083.418-2.988-2.623-3.989-.099-1.609-.463-2.828.263-2.905 1.944-1.803.006-4.077 1.381-5.086 2.924-1.012 1.547.714 3.257-.532 4.673-4.54 5.158-14.339 9.746-13.842 12.622.632 3.65 7.459-4.144 12.294-7.112.503-.309 1.704-1.644 2.299-1.517.662.142 2.004 3.493 2.135 4.159.228 1.165-1.145 2.982-1.528 4.083-1.3 3.733-2.727 7.469-3.761 11.277-1.089 4.011-1.12 8.563-2.592 12.444-.745 1.965-2.327 3.543-3.26 5.443-3.983 8.111-4.842 15.213-4.334 20.999.054.61.776 1.02.765 1.556-.012.583-1.09.731-1.259 1.373-.219.83.425 1.544.411 2.321-.052 2.988-1.363 6.516.47 9.333 1.318 2.027 6.749-.649 7.554-2.238.433-.854-.181-1.695-.518-2.429-1.029-2.24-2.81-3.443-4.712-4.905-.543-.418-.937-2.36-.439-2.947.433-.511 1.268-.122 1.796-.012 1.379.287 10.565.521 18.205-2.376 1.333-.505 3.724-1.104 4.454-2.396-4.143.194-7.84 3.027-12.201 2.333.067.012 3.114-3.078 3.114-3.078 1.371-1.734 5.859-7.034 6.873-8.977.712-1.364 1.412-3.683 2.555-4.744.67-.622 2.451-.366 3.339-.545 10.024-2.016 5.707-6.425 9.684-7.415 2.712-.675 4.561 3.686.969 5.319-1.073.488-2.178-.075-3.293.595-4.017 2.413-6.123 10.436-5.229 11.532.733.898 4.309-.278 5.229-.593 2.357-.807 5.498-1.79 7.249-3.671.601-.646.497-1.626.777-2.421 1.764-5.001 7.922-1.672 4.737 1.75-2.704 2.902-5.108-2.699-7.985 11.666-.146.727-.516 2.768.182 3.306 1.039.802 6.384-1.774 7.904-2.703 1.752-1.071 3.058-2.353 4.568-3.714-2.324 4.412-4.264 9.068-6.331 13.61-.734 1.612-1.373 4.547-2.675 5.754-1.733 1.607-6.752-4.514-8.23-2.191-1.163 1.827 2.898 4.354 3.873 5.382-3.277-.142-11.376-1.679-12.976-.039-.769.787-.105 1.54.774 1.734 2.376.526 5.132.979 7.553 1.221 0 .779-4.068.121-6.197.504-3.139.563-2.668 2.477-.388 2.765 2.579.324 5.35.229 7.941.229 0 .966.582-.295-7.554 1.705-.774.19-2.547.755-1.625 1.881 1.51 1.846 7.571-.405 10.921-.475-1.245 1.645-3.764 2.066-5.229 3.694-2.497 2.776 1.974 1.676 3.292.972-1.126 3.328-3.738 7.668-3.583 8.75.094.657.678.389.963 0 .622-1.005 1.021-2.236 1.458-3.307h.194c.242-1.623 1.476-5.348 2.904-6.223-3.012 6.914-2.625 6.223-2.904 6.223l-.388 1.945c1.076-.176 1.949-1.91 2.585-3.58-.206.642-.272 1.197.041 1.406.477.318.863-.633.998-.937.652-1.472 1.411-2.952 1.992-4.474h.194c1.291-2.854 1.226-2.853.193 0-.271 0 .006-.628-1.55 4.278 2.229-.664 2.415-4.989 3.874-6.612l.193-.583c0 .699.065.583-.193.583l-1.937 5.252c1.549-.127 2.268-2.918 2.711-4.277.275 0 .336-.488-.774 3.305 1.402-.229 1.974-2.27 2.324-3.5h.193c1.293-2.599 1.226-2.591.193-.002-.275.003-.109-.364-.774 2.53 1.259-.194 1.582-1.64 1.937-2.724h.193c.638-1.281 1.001-2.034 1.118-2.258l.02-.005c-.083.213-.401.955-.943 2.263h-.194c-.722 2.334.775 1.434 1.356-.193.271 0 .076.236.968-1.558-.669 1.791-.504 1.555-.774 1.558v1.167c1.222-.194 1.55-1.472 1.937-2.528.259 0 .131.127.581-.779-.231.934-.128.779-.387.779l-.194 1.75c1.069-.185 1.323-1.166 1.55-2.139.265 0 .093.238.924-1.646-.623 1.886-.465 1.644-.73 1.646l-.193 1.361c1.243-.1 1.625-1.244 1.937-2.334.258 0 .099.19.774-1.168-.452 1.366-.323 1.168-.581 1.168l-.193 1.751c.943-.169 1.212-1.122 1.55-1.944.24 0 .151.124.501-.771l.036.021c-.169.884-.104.746-.344.749v1.166c1.162-.192 1.493-1.273 1.743-2.333h.193c-.451 2.592.934.468 1.78.117.774-.321 2.014-.204 2.868-.312 0 8.085-.646 15.654 1.899 23.526.321.994.91 1.903 1.162 2.917.36 1.446-.569 3.528 1.584 3.694-.137 3.237-.258 6.369 1.857 9.138 1.492 1.952 5.692-.33 6.597-1.944 1.664-2.969-1.509-5.648-3.806-7.26-.814-.571-2.954-1.857-2.454-3.198.521-1.402 2.564-1.114 7.674-5.929 7.326-6.905 14.73-21.933 14.73-34.553 0-5.122.12-6.775-.738-6.611-.913.174.052 1.499-.834 7.778-2.222 15.759-5.521 16.922-7.916 23.332-.791 0 4.192-9.95 1.124-25.082-.7-3.453-2.838-7.669-3.682-7.973-.561-.202-1.235.048-8.483 3.109 0 .257.116.192-.581.192l.581-.192c1.736-1.497 6.04-4.383 5.986-6.996-.032-1.557-1.525-2.723-1.299-4.474.151-1.167 1.443-2.34 2.67-2.234.473.04.849.31 1.217.588 2.609 1.976-.187 3.599-.192 5.728-.005 1.952 1.12 4.67 2.065 6.358.599 1.069 1.989 4.104 3.602 3.447.864-.353 1.329-1.632 1.701-2.409 1.027-2.144 2.409-4.73 2.008-7.202-.272-1.68-3.052-3.675-.209-5.055.952-.462 1.921.441 2.074 1.36.371 2.223-3.902 4.338 3.891 10.449.695.546 4.849 3.265 5.377 1.367.405-1.452-6.203-11.713-7.695-20.177-.871-4.944.528-10.596-6.097-14.937-1.007-.66-2.425-1.103-3.209-2.053-.579-.702.041-1.665.095-2.454.143-2.092-.623-4.08.329-6.17.34-.747 1.77-1.311 2.402-1.802 1.321-1.026 2.358-2.207 4.066-2.431 2.836-.371 5.586 3.175 5.811 5.735-8.768.02-3.128 11.549 2.09 6.835 1.788-1.615.342-3.235.571-5.085.093-.752.78-1.289 1.105-1.944 2.694-5.43-1.736-9.04-1.584-13.026.141-3.681 4.892-7.067 6.473-10.306 2.205-4.511 2.551-10.418.707-15.156zm-70.375 8.034c-2.368.723-3.917-2.983-1.542-3.675 2.711-.79 4.179 2.87 1.542 3.675zm8.109 5.715c-2.874.63-3.539-3.229-.742-3.936 2.856-.721 2.967 3.448.742 3.936zm9.505 2.601c-2.625 1.104-4.113-2.854-1.726-3.792 2.557-1.004 3.92 2.87 1.726 3.792zm-32.906-35.254c-2.561.362-3.098-3.634-.581-3.963 2.356-.308 2.978 3.624.581 3.963zm38.904-3.975c.521-.792 2.841-1.887 3.465-.828 2.052 3.482-2.301 7.797-5.38 8.176-.967.119-2.71.914-3.097-.414 1.913-.194 4.202-2.466 4.731-4.277.228-.78-.187-1.947.281-2.657zm-5.4 4.144c-.069.07-.372.233-.498.185s-.3-1.415-.3-1.415.868 1.159.798 1.23zm-.968-.905c-.065.593.196 1.778 1.056 1.083.355-.287-1.391-2.061-.358-3.104.581-.586 1.511-.052 2.208-.151.668-.096 1.356-.892 2.068-.614 2.111.824-1.812 6.805-4.974 6.231-2.181-.395-1.365-2.623 0-3.445zm-7.165 5.252c.229-1.287 1.836-.004 2.307-.832.44-.776-1.096-2.361.404-2.719 2.264-.54 4.24 4.148 3.536 5.882-.595 1.465-1.563.286-2.567.534-.582.144-.775.834-1.367.949-.376.073-.8-.108-.812-.51-.023-.82 1.265-1.073.926-1.938-.358-.911-2.621-.277-2.427-1.366zm-20.917 6.175c-2.38.382-3.242-3.125-.774-3.583 2.488-.462 3.52 3.143.774 3.583zm10.845 3.105c.969-.288 1.272 1.419.36 1.654-1.031.267-1.343-1.361-.36-1.654zm-31.454 88.908c-.208 1.256-1.232.641-1.95 1.114-.396.261-.554.783-.977 1.024-2.503 1.428-3.627-4.645-1.773-5.52 1.474-.695 4.971 1.751 4.7 3.382zm25.838-84.679c1.861-.352 1.515 1.92-.194 2.18-1.872.284-1.171-1.922.194-2.18zm-4.648 5.35c-.144.803-.595.901-1.355.972.141-.848.547-.946 1.355-.972zm-4.397-1.224c1.667-.602 2.305 4.527 1.071 4.738-1.069.184-2.292-4.298-1.071-4.738zm-3.013 1.277c.805-1.67 1.921.91 1.979 3.057.021.778.008 1.558.008 2.333-1.55-.26-2.643-4.029-1.987-5.39zm-2.394 1.453c.617-.183.942.565 1.081 1.021 1.776 5.803-.345 6.078-1.075 4.277-.366-.902-1.458-4.867-.006-5.298zm-2.978 2.242c.774-1.221 1.549.378 1.685 1.112.283 2.487.209 2.879.059 3.694-1.357-.447-2.574-3.5-1.744-4.806zm-13.945 17.139c-1.088.103-.799-1.455.193-1.519 1.274-.081.84 1.422-.193 1.519zm7.553-5.417c-1.891 1.559-2.392 1.769-3.485 2.611-2.21-1.411 1.851-4.579 3.485-4.962 2.099-.492.613 1.845 0 2.351zm4.296-3.416c-.614 0-1.38-.871-1.083-1.456.317-.625 2.366-2.521 3.023-2.627.688-.111 1.122.822.932 1.368-.26.893-1.903 2.641-2.872 2.715zm3.169.778c-.222-.579-.678-1.263-.589-1.911.091-.664 1.547-2.232 2.227-2.249.577-.014.93.505 1.54.287 1.022-.365.786-1.55 1.41-2.23.988-1.078 2.159-.159 2.473-2.259 3.382.406 4.195-4.47 7.747-4.859-.524 1.75-2.705 2.479-3.819 3.729-1.29 1.446-1.687 3.75-2.959 5.353-.712.898-2.413 1.348-2.921 2.104-.368.547.788.791 1.062 1.063.589.587.316 1.888-.188 2.417-.705.74-3.764 2.055-4.674 1.351-.771-.597-.979-1.936-1.309-2.796zm-5.021 35.846c.587-.564 1.94-.38 2.086.524.342 2.126-1.484.38-5.134 14.96-.268 1.068-1.221 2.288-2.301 1.944-1-.318 2.92-15.09 5.349-17.428zm4.036 19.873c-2.274 1.949-4.667 2.806-7.643 2.806-.613 0-2.313.291-2.583-.449-.325-.892 6.241-6.306 8.279-8.495 7.789-8.368 12.107-20.731 12.122-26.054.763.002 4.553 2.113 4.251 6.012-2.807 11.162-7.58 20.311-14.426 26.18zm13.663-31.998c1.16.316 2.094 1.617 3.292 1.75 1.936.215 3.879-2.132 5.894-.049.573.593.353 1.538.002 2.188-1.531 2.832-3.571.836-5.508 2.176-1.095.758-1.475 2.49-2.712 2.879l.969-5.833-1.937-3.111zm27.284 26.638c-.705-5.17 7.071-4.479 5.252-.39-.518 1.165-2.638 2.35-3.873 2.592-1.062.208-1.273-1.425-1.379-2.202zm-1.139 25.471c-.9-.749-.951-.693-.193-.389 4.097-8.866 2.994-6.633 5.035-10.306l-4.842 10.695zm6.391-11.083c-.832 3.906-3.522 8.05-5.229 11.666-.275 0-.655 1.037 3.605-8.555l1.624-3.111zm-6.004 6.188c3-6.928 2.556-5.994 3.1-5.994-3.764 8.185-6.708 14.326-3.1 5.994zm-2.13-1.717c4.388-8.746 3.124-8.166 4.067-8.166-4.228 9.898-2.763 6.622-5.811 13.027-.193-1.492 1.086-3.55 1.744-4.861zm-3.292 4.473c5.731-13.346 4.1-9.553 7.359-17.11 0 0-4.719 15.374-7.359 17.11zm7.553-10.5c-.144 2.762-2.404 6.064-3.573 8.556-3.817 8.132-.029-3.774 3.573-8.556zm-.194-9.138c-3.339 8.324-1.478 3.966-8.521 19.832-1.126 0 5.875-16.545 8.521-19.832zm-15.301 37.332h-.193c-.093.353-.527 1.184-.862 2.009.805-2.282.548-2.009.862-2.009 1.794-3.603 1.755-3.658.193 0zm5.811-3.112c-.256 0-.264.277.181-1.506.114-.019.231-.037.341-.056.102.043-.054.31-.522 1.562zm5.811-2.722c-.81 1.084-.744 1.049 0-.194v.194zm1.162.195c-.255 0-.301.205.333-1.061l.018-.001-.351 1.062zm2.517-6.806c-.808.928-.473 3.041-1.278 3.694-2.497 2.023-6.997 1.932-9.955 3.02-3.212 1.181-5.827 4.023-9.296 4.563 1.121-2.139 5.473-2.107 6.052-4.658.598-2.638-7.487.807-11.862-.008 0-.278-1.215.072 10.652-2.527-.68-2.14-2.395-1.407-4.075-1.361-4.203.114-7.158-.339-7.158-.778 3.717-1.584 9.562-.083 10.458-1.279.72-.961-1.685-1.223-2.13-1.362-2.542-.8-5.462-1.247-8.135-1.247.378-1.079 1.587-.659 2.519-.729 4.006-.297 10.799 2.089 11.031-.243.147-1.472-4.07-2.432-4.253-4.861l6.778 3.306c7.902 1.867 5.53.85 10.652 4.277v.193zm-.194-1.749c4.919-11.213 9.664-21.154 4.623-9.723-4.78 10.841-4.342 9.723-4.623 9.723zm1.743-.584c-.193-1.433 1.156-3.384 1.792-4.666 2.377-4.792 5.186-11.835 6.343-12.833-8.547 18.835-7.834 17.499-8.135 17.499zm1.743-.389c-.448-1.573 5.37-11.098 8.271-19.055.567-1.556-1.094-3.286-.565-5.056.479-1.606 2.496-2.73 4.052-1.888 1.604.869 1.3 2.865.209 4.025-.764.812-2.008 1.065-2.671 1.98-1.555 2.148-5.662 13.376-9.296 19.994zm1.743-.388h-.193c.678-3.824 3.364-7.938 4.976-11.472.96-2.105 1.679-4.816 3.158-6.611-2.58 6.611-.871 2.683-7.941 18.083zm1.356-.389c5.165-11.667 3.662-8.41 6.778-14.777-.387 3.562-3.23 7.825-4.708 11.083-.528 1.165-.983 2.98-2.07 3.694zm1.757-.112c.144-2.548 2.063-4.023 5.216-13.109.551 3.036-4.059 8.603-4.842 13.027l.021-.002c-.165.042-.294.07-.395.084zm1.743-.457-.018.007.018-.007zm-.207-.015c.473-3.208 2.829-7.314 4.454-10.11 0 0 .176.142.411.316-.011.026-.02.047-.029.072h-.188c-4.896 10.686-4.368 9.722-4.648 9.722zm6.778 39.292c.732.129 3.908 2.804 3.451 3.552-.435.71-1.991.118-4.032 2.46-1.162-1.044-2.325-6.524.581-6.012zm2.888-12.654c2.421-6.216 4.382-12.945 4.842-19.638.757-11.008-3.544-11.354-3.93-15.551-.129-1.404 3.482-2.132 4.528-2.04 1.309.114 1.599 1.791 1.915 2.813.931 3.01 1.492 6.027 1.818 9.139.794 7.583-3.906 21.588-4.437 22.943-.531 1.355-4.474 7.603-8.594 9.527.447-2.463 2.913-4.767 3.858-7.193zm24.093-94.103c-.683 4.427 4.013 8.128 1.629 13.61-.28.645-.943 1.022-1.06 1.754-.308 1.94 1.069 3.8-1.042 5.324-2.153 1.555-5.529-.857-4.929-3.384.222-.932.926-1.985 1.855-2.288.845-.275 4.05-.037 1.72-3.934-1.351-2.26-3.423-3.922-6.175-3.545-1.226.168-2.156 1.122-3.099 1.842-.965.738-2.424 1.429-3.174 2.364-1.428 1.781-.711 4.591-.703 6.535.004.915-.706 2.038-.439 2.916.387 1.272 2.688 2.076 3.737 2.723 7.509 4.633 5.238 12.264 6.955 18.276 1.932 6.77 6.359 14.423 6.794 15.938-3.68-.713-7.779-3.768-8.756-7.582-.548-2.14 2.44-4.924-.928-6.313-1.646-.68-2.988 1.65-2.986 3.008.002 1.421 1.177 2.051 1.519 3.306.536 1.967-1.229 4.937-2.098 6.61-.304.586-.708 1.656-1.47 1.766-1.624.232-4.551-7.125-4.395-8.766.083-.869.779-1.511 1.005-2.333.555-2.023-.188-4.082-2.228-4.832-1.431-.525-3.277.762-3.72 2.112-.711 2.172 1.243 3.608.972 5.444-.402 2.722-4.844 5.341-6.741 6.999h-.194c-1.694-1.519-1.532-3.696-1.824-5.833-.106-.778-.379-2.098.081-2.802 1.097-1.68 3.487-1.925 3.008-4.587-.51-2.825-3.974-3.192-5.642-1.158-1.623 1.98.101 4.011-.794 6.02-1.448 3.251-4.897 5.718-7.416 7.972 0 0-.981-.008-1.173-.202-1.292-1.306-1.468-4.331-1.288-6.02.152-1.429-.34-3.696.256-5.001.506-1.107 2.784-1.41 3.656-2.331 1.968-2.079-.492-5.453-3-5.069-1.895.29-3.41 2.349-3.256 4.236.072.887.772 1.981.268 2.817-2.138 3.538-7.718 5.601-11.537 6.321 0-3.5 1.11-9.481 3.78-11.992 1.42-1.336 3.612-.19 4.935-2.396 2.558-4.265-4.891-8.215-6.583-1.944-.157.58.009 1.367-.327 1.821-1.441 1.946-4.706 2.739-6.838 3.541-.813.306-3.999 1.399-4.648.548-.641-.84.563-2.954.879-3.77 3.811-9.833 6.917-4.669 9.051-7.972 1.701-2.632-.478-6.556-3.732-5.433-2.517.869-1.934 3.238-3.376 4.758-2.333 2.459-6.643 2.813-9.794 2.813.364-2.917 3.353-7.483 5.844-9.021.806-.497 1.638-.017 2.484-.21 1.744-.398 3.284-2.57 2.824-4.372-.438-1.717-2.893-2.349-4.373-1.756-.59.236-1.101.916-1.743.985-.661.071-1.158-.736-1.567-1.126-1.082-1.031-2.839-1.977-3.081-3.556 2.811 0 5.426.008 8.109-.973 4.354-1.591 8.691-4.627 13.389-5.213 3.184-.397 4.967 2.491 7.94 2.491-.014-.661-.268-1.499-.043-2.131.783-2.198 4.096-1.099 5.155-2.536.548-.742.158-1.729.477-2.527.419-1.05 1.584-1.399 2.074-2.333.738-1.404.668-3.205 1.313-4.667.996-2.256 3.036-4.47 3.707-6.805.447-1.555-1.178-3.38-1.645-4.861-.961-3.047-.701-6.14.906-8.943 1.427-2.488 3.42-2.32 5.48-3.644 1.604-1.03 2.572-4.227 5.231-2.878 2.049 1.039 2.092 4.444 0 5.488-1.809.902-2.901-.816-4.454-.521-2.773.529-1.16 6.051-.07 7.328 1.711 2.005 5.261-.487 9.947-.879 2.324-.194 4.07 1.314 6.197 1.818 4.494 1.066 11.772-.875 12.977-5.937.196-.824.585-2.143-.085-2.833-.601-.62-1.482-.387-2.239-.54-1.558-.314-2.731-1.846-2.454-3.434.476-2.723 4.117-3.613 5.671-1.361 1.107 1.605-.344 3.063.045 4.666.317 1.309 2.232 1.659 3.234 7.389.859 4.917-.42 9.722-3.221 13.805-1.567 2.293-4.315 4.29-4.764 7.2z"/>
  <path fill="#E6180A" d="M107.1711 157.3575c.112 1.262.645 4.566-.453 5.471-.959.79-3.02.426-4.195.58-3.593.471-7.393.661-11.021.756-1.104.028-2.768.59-3.812.074-1.451-.717.325-3.416 1.293-3.755 3.544-1.242 7.601-1.354 11.233-2.521 2.786-.895 6.671-3.817 6.955-.605z"/>
  <path fill="#FFF" d="M103.0131 182.0495c-.176 1.589-1.333 2.94-1.635 4.473-.969-.584-.786-2.817-.912-3.889-.478-4.053-.25-8.167-.25-12.25 0-.972-.216-4.189.833-4.666 2.083-.947 1.073 3.965 1.186 4.86.292 2.334-.054 4.674.112 7 .102 1.44.824 3.041.666 4.472zm2.432-31.304c1.15 2.164-.388 3.804-2.518 4.083.165-1.609 1.162-3.204 2.518-4.083z"/>
  <path fill="#E6180A" d="M39.9571 108.3595c.775-5.405 2.406-10.692 3.871-15.943.808-2.895 1.569-6.741 5.064-7.324 3.025-.505 1.925 4.222 1.71 6.157-.34 3.058-.55 6.07-.759 9.139-.072 1.06-.556 2.266-.467 3.306.15 1.748 1.554 1.622 2.109 2.782.709 1.48-.974 10.624-3.581 11.349-.896.249-1.852-.196-2.694-.438-2.134-.61-5.608-1.033-5.941-3.777-.197-1.626.456-3.632.688-5.251zm3.464 57.15c-1.87 4.103 1.908 9.444 1.934 13.383 2.992-2.547 9.478-3.157 11.369-7.25.892-1.929.11-4.192-1.721-5.031-1.841-.843-4.052.03-4.931 1.965.883-1.943.109-4.188-1.721-5.031-1.838-.848-4.049.03-4.93 1.964zm16.278 25.444c-2.351.621-4.701 1.241-7.052 1.862.794-.249 1.344-.963 1.879-1.574 1.168-1.506 2.235-3.14 2.898-4.941.326-.884.623-1.88.399-2.83l1.876 7.483zm-7.051 1.863c1.027-.236 2.073.18 2.995.608 1.687.785 3.21 1.914 4.595 3.173.526.533 1.127 1.087 1.338 1.84-.626-2.494-1.251-4.988-1.876-7.483l-7.052 1.862zm8.927 5.621c-.245-1.123.156-2.271.583-3.289.725-1.73 1.759-3.324 2.946-4.76.474-.51.965-1.098 1.646-1.297-2.351.621-4.701 1.242-7.052 1.862l1.877 7.484zm5.176-9.346c-1.027.236-2.074-.179-2.995-.607-1.687-.784-3.21-1.915-4.595-3.173-.526-.533-1.126-1.088-1.337-1.841.625 2.495 1.25 4.988 1.875 7.483l7.052-1.862z"/>
  <path d="M86.0491 193.4245c-1.475-.819-2.29-.189-3.677-.122 1.99-1.771 3.21-.97 4.214-2.788 2.009-3.639-3.634-6.778-5.643-3.141-.996 1.803.332 2.521-.086 5.126-.197-.341-.366-.713-.486-1.116-.777-2.729-4.527-3.272-5.9-.786-1.379 2.496 1.071 5.382 3.863 4.571.558-.162 1.116-.199 1.638-.182-.583.886-2.881 4.038-5.293 2.705l6.569 3.656c-1.962-1.094-1.474-3.839-.549-5.897.938 1.438.719 2.585 2.314 3.472 3.733 2.078 6.768-3.419 3.036-5.498zm-21.232-46.748c-.921-3.192-6.368-4.128-8.495-6.244-.676 2.937-4.792 6.64-3.882 9.826.768 2.69 5.03 2.608 6.096-.104.307 2.012.466 5.313-1.635 5.921l7.206-2.085c-2.077.601-3.699-2.192-4.555-4.188 2.322 1.796 6.052-.4 5.265-3.126zm-6.188 1.794z"/>
</svg>