<?xml version="1.0" encoding="UTF-8"?>
<!-- Created with Inkscape (http://www.inkscape.org/) -->
<svg width="225" height="315" version="1.1" viewBox="0 0 225 315" xmlns="http://www.w3.org/2000/svg" xmlns:cc="http://creativecommons.org/ns#" xmlns:dc="http://purl.org/dc/elements/1.1/" xmlns:rdf="http://www.w3.org/1999/02/22-rdf-syntax-ns#">
 <metadata>
  <rdf:RDF>
   <cc:Work rdf:about="">
    <dc:format>image/svg+xml</dc:format>
    <dc:type rdf:resource="http://purl.org/dc/dcmitype/StillImage"/>
    <dc:title/>
   </cc:Work>
  </rdf:RDF>
 </metadata>
 <g transform="translate(0 -213.66)">
  <g>
   <rect x=".75" y="214.41" width="223.5" height="313.5" rx="12" ry="12" fill="#fff" stroke="#000" stroke-linecap="round" stroke-width="1.5"/>
   <text x="13.750176" y="240.40623" fill="#cc0000" font-family="sans-serif" font-size="18.667px" letter-spacing="0px" text-align="center" text-anchor="middle" word-spacing="0px" style="line-height:0.89999998" xml:space="preserve"><tspan x="13.750176" y="240.40623">J</tspan><tspan x="13.750176" y="257.20624">O</tspan><tspan x="13.750176" y="274.00623">K</tspan><tspan x="13.750176" y="290.80624">E</tspan><tspan x="13.750176" y="307.60623">R</tspan></text>
   <text transform="scale(-1)" x="-211.2505" y="-501.90662" fill="#cc0000" font-family="sans-serif" font-size="18.667px" letter-spacing="0px" text-align="center" text-anchor="middle" word-spacing="0px" style="line-height:0.89999998" xml:space="preserve"><tspan x="-211.2505" y="-501.90662">J</tspan><tspan x="-211.2505" y="-485.10663">O</tspan><tspan x="-211.2505" y="-468.30661">K</tspan><tspan x="-211.2505" y="-451.50662">E</tspan><tspan x="-211.2505" y="-434.70663">R</tspan></text>
  </g>
  <path d="m106.75 453.66c-1.5986-3.9185-3.2754-9.2628-10.336-10.03-10.356-0.75944-19.759-1.5172-18.474-12.874 18.692-0.15056 22.472-18.41 17.58-18.231-9.1895 0.13265-4.5368 8.0902-18.922 9.4105-0.0881-2.7575 0.26-5.8889-0.73592-7.2658-3.5034-3.8392-12.384-0.0604-14.038-5.3249 0.51837-5.8765 9.398-17.906 11.126-19.244-2.0135-4.6695-1.9911-21.214 2.4932-23.374h76.22c7.0338 21.765-6.8866 33.064-7.4685 43.241 0.24179 5.1749 6.8942 11.389 9.5874 13.78z" stroke-width="1.25"/>
  <g fill="#c00">
   <path d="m112.25 292.87c-3.9225 12.381-9.9288 30.548-13.594 43.008-9.2438-8.5375-22.211-23.869-46.601-22.305 21.289 7.7862 22.93 25.589 22.93 44.452h74.531c0-18.865 1.6415-36.668 22.93-44.452-24.394-1.565-37.362 13.768-46.605 22.305-3.665-12.46-9.6712-30.628-13.594-43.008z" stroke-width="1.25"/>
   <path d="m112.25 278.66s1.27 2.8325 2.3438 3.9062 3.9062 2.3438 3.9062 2.3438-2.8325 1.27-3.9062 2.3438-2.3438 3.9062-2.3438 3.9062-1.27-2.8325-2.3438-3.9062-3.9062-2.3438-3.9062-2.3438 2.8325-1.27 3.9062-2.3438 2.3438-3.9062 2.3438-3.9062z"/>
   <path d="m44.566 306.21s0.88944 2.9741 1.8138 4.1788c0.92439 1.2047 3.5669 2.8336 3.5669 2.8336s-2.9741 0.88944-4.1788 1.8138-2.8336 3.5669-2.8336 3.5669-0.88944-2.9741-1.8138-4.1788c-0.92439-1.2047-3.5669-2.8336-3.5669-2.8336s2.9741-0.88944 4.1788-1.8138 2.8336-3.5669 2.8336-3.5669z"/>
   <path d="m180.43 306.21s1.6289 2.6425 2.8336 3.5669c1.2047 0.92439 4.1788 1.8138 4.1788 1.8138s-2.6425 1.6289-3.5669 2.8336c-0.92439 1.2047-1.8138 4.1788-1.8138 4.1788s-1.6289-2.6425-2.8336-3.5669c-1.2047-0.92439-4.1788-1.8138-4.1788-1.8138s2.6425-1.6289 3.5669-2.8336c0.92439-1.2047 1.8138-4.1788 1.8138-4.1788z"/>
  </g>
 </g>
</svg>