<?xml version="1.0" standalone="no"?>
<!DOCTYPE svg PUBLIC "-//W3C//DTD SVG 20010904//EN"
 "http://www.w3.org/TR/2001/REC-SVG-20010904/DTD/svg10.dtd">
<svg version="1.0" xmlns="http://www.w3.org/2000/svg"
 width="360" height="540" viewBox="0 0 300.000000 450.000000"
 preserveAspectRatio="xMidYMid meet" style="background-color:white">
<g transform="translate(0.000000,450.000000) scale(0.100000,-0.100000)"
fill="#000000" stroke="none">
<path d="M1600 3965 c-36 -8 -74 -19 -85 -24 -11 -5 -36 -16 -55 -24 -19 -8
-75 -31 -125 -52 -49 -21 -168 -75 -264 -122 -149 -71 -183 -92 -228 -139 -29
-30 -53 -59 -53 -64 0 -6 -4 -10 -10 -10 -5 0 -10 -9 -10 -20 0 -11 -4 -20
-10 -20 -5 0 -10 -6 -10 -14 0 -7 -6 -19 -14 -25 -12 -10 -18 -7 -30 16 -20
37 -20 20 0 -23 15 -32 15 -34 -13 -73 -32 -47 -44 -47 -58 -3 -5 18 -15 32
-21 32 -9 0 -10 -8 -2 -35 6 -19 15 -32 19 -29 16 9 19 -15 3 -31 -19 -19 -44
-4 -44 26 0 11 -4 19 -10 19 -12 0 -2 -29 17 -52 13 -14 12 -18 -8 -29 -17 -9
-24 -9 -27 0 -2 6 -8 11 -14 11 -7 0 -6 -5 1 -14 8 -10 9 -16 1 -21 -5 -3 -15
6 -20 21 -8 21 -8 29 2 36 10 6 10 8 -1 8 -7 0 -11 6 -8 13 3 8 1 20 -4 28 -7
11 -9 9 -10 -8 -1 -13 -2 -29 -3 -35 -1 -7 4 -26 11 -41 15 -30 10 -47 -13
-47 -8 0 -12 -5 -9 -10 4 -6 -10 -17 -29 -25 -20 -9 -36 -20 -36 -26 0 -8 4
-8 14 0 14 12 130 16 181 6 23 -5 27 -3 19 5 -7 7 -38 14 -70 17 -33 3 -61 7
-62 8 -8 7 46 35 88 45 35 10 52 9 75 -1 17 -7 34 -11 39 -10 4 1 19 -5 33
-14 28 -18 64 -17 71 3 3 9 -2 13 -14 10 -11 -2 -48 6 -83 20 -36 13 -73 21
-83 19 -10 -3 -18 -1 -18 4 0 24 127 22 174 -3 12 -6 48 -18 81 -25 33 -7 74
-17 90 -21 62 -14 317 -7 405 12 47 10 94 19 105 21 11 1 30 7 42 13 12 7 30
12 41 12 22 0 34 9 27 21 -3 4 -20 2 -38 -6 -74 -31 -242 -58 -382 -61 -149
-3 -248 10 -360 48 -33 11 -77 20 -98 21 -21 0 -36 2 -35 6 2 3 19 31 39 61
20 30 56 90 80 134 41 74 88 123 147 154 29 15 52 16 52 2 0 -5 5 -10 12 -10
9 0 9 3 0 12 -18 18 -15 24 21 39 17 7 59 25 91 41 33 15 64 28 70 28 6 0 22
9 36 20 14 11 31 20 38 20 7 0 45 15 85 33 40 19 99 44 132 56 33 12 68 27 77
32 10 5 54 11 97 14 44 2 83 5 88 7 14 3 145 -22 198 -38 48 -16 87 -32 205
-87 30 -14 65 -28 76 -31 12 -4 29 -15 39 -26 10 -11 26 -20 37 -20 10 0 18
-5 18 -10 0 -6 18 -18 40 -27 22 -10 40 -24 40 -31 0 -7 3 -11 8 -8 4 2 16 -2
27 -10 18 -14 18 -14 -4 -35 -12 -12 -19 -24 -16 -28 4 -3 15 5 26 18 l20 24
21 -23 c15 -16 18 -25 10 -28 -7 -2 -12 -8 -12 -14 0 -7 5 -6 14 1 21 18 44
-14 28 -40 -13 -20 -3 -26 15 -8 7 7 15 -2 27 -31 20 -50 20 -48 -1 -53 -13
-3 -10 -5 7 -6 24 -2 24 -2 6 -16 -17 -13 -17 -15 -3 -15 11 0 20 -14 27 -40
13 -50 8 -60 -28 -51 -16 5 -42 3 -66 -6 -21 -7 -70 -13 -109 -13 -64 0 -69 1
-51 15 25 19 18 19 -39 -1 -51 -17 -65 -40 -19 -31 15 3 46 2 69 -2 24 -5 40
-4 37 0 -3 5 14 9 38 8 24 0 58 4 77 10 19 6 46 8 60 5 71 -15 151 -74 100
-74 -11 0 -18 -4 -15 -9 3 -5 15 -7 26 -4 27 7 25 -5 -2 -17 -22 -9 -22 -9 3
-9 21 -1 27 -6 27 -25 0 -19 -5 -22 -22 -18 -11 2 -27 12 -35 21 -12 15 -13
14 -7 -2 5 -16 1 -17 -32 -12 -61 11 -70 18 -32 25 29 5 32 8 16 15 -12 5 -30
2 -53 -11 -20 -10 -29 -20 -22 -22 8 -2 21 -6 29 -9 8 -4 18 -5 23 -5 4 1 7
-3 7 -8 0 -6 16 -9 36 -6 65 7 126 -19 93 -40 -8 -4 -7 -9 2 -16 11 -8 11 -11
1 -15 -10 -4 -10 -8 -1 -19 16 -19 3 -47 -19 -40 -13 4 -18 1 -18 -14 0 -11 4
-20 8 -20 4 0 8 5 8 10 0 6 6 10 14 10 8 0 13 -8 12 -17 -3 -19 -54 -31 -65
-16 -7 10 -57 33 -71 33 -6 0 -10 -9 -10 -20 0 -16 6 -20 33 -19 17 0 50 -3
72 -8 32 -7 40 -13 41 -31 1 -16 -4 -22 -18 -22 -13 0 -18 5 -15 13 3 9 -6 13
-32 14 -26 0 -29 -1 -8 -4 41 -7 32 -23 -13 -23 -29 0 -40 4 -40 15 0 8 -4 15
-10 15 -5 0 -10 -4 -10 -9 0 -17 -48 -18 -60 -1 -12 17 -45 17 -55 0 -3 -5 4
-6 15 -3 12 3 26 -1 33 -9 13 -17 97 -52 104 -44 3 3 -10 12 -28 21 l-34 15
34 -5 c18 -3 52 -5 75 -5 22 0 46 -4 52 -8 17 -11 5 -82 -15 -83 -10 0 -11 -2
-3 -6 14 -6 16 -33 2 -33 -12 0 -31 35 -23 44 3 3 2 6 -4 6 -6 0 -13 -9 -16
-21 -4 -16 1 -23 24 -31 29 -10 35 -19 22 -32 -4 -4 -7 -19 -8 -34 0 -26 -2
-27 -50 -25 -39 2 -46 0 -32 -8 18 -10 18 -11 0 -24 -17 -13 -17 -15 10 -42
15 -15 27 -22 27 -16 0 7 -8 16 -17 22 -10 5 -15 13 -11 17 4 4 16 1 25 -7 17
-13 17 -12 0 8 -19 22 -10 37 17 27 19 -7 20 -23 4 -61 -13 -31 -15 -38 -17
-53 -2 -18 -22 -10 -30 13 -5 12 -11 21 -15 20 -23 -10 -28 1 -24 57 1 33 0
60 -4 60 -5 0 -8 13 -8 28 0 28 -53 112 -71 112 -4 0 -15 14 -24 30 -19 36 -7
39 48 11 20 -10 37 -15 37 -10 0 5 -11 14 -25 19 -14 5 -25 15 -25 21 0 8 -13
10 -39 5 -22 -3 -42 -2 -45 2 -3 5 -26 10 -52 10 -25 1 -50 5 -55 8 -5 3 -9 1
-9 -4 0 -16 -28 -22 -52 -12 -20 8 -21 9 -4 9 11 1 17 3 15 6 -8 7 -129 -17
-129 -26 0 -7 30 -6 65 1 22 5 45 0 45 -10 0 -5 -9 -10 -20 -10 -11 0 -19 -5
-17 -11 2 -11 -96 -40 -108 -33 -3 2 -3 1 0 -3 3 -3 0 -12 -6 -20 -16 -18 1
-16 22 3 10 9 26 14 35 12 27 -5 -71 -67 -118 -74 -21 -4 -38 -10 -38 -15 0
-31 108 15 183 77 100 83 180 104 245 64 48 -30 40 -41 -26 -34 -47 5 -68 2
-112 -16 -51 -21 -130 -83 -130 -102 0 -18 -87 -128 -115 -144 -16 -10 -24
-19 -17 -22 20 -6 67 34 108 93 21 31 40 52 42 45 2 -6 -4 -20 -14 -31 -9 -10
-15 -22 -11 -25 3 -3 20 19 37 49 39 70 98 124 145 133 65 12 142 0 171 -27
47 -43 54 -75 54 -252 0 -127 -5 -184 -21 -262 -19 -90 -31 -122 -91 -255 -11
-25 -33 -80 -49 -124 -51 -144 -158 -228 -213 -167 -47 52 -22 144 63 234 28
30 51 59 51 66 0 7 3 10 8 8 4 -3 7 38 7 91 -1 139 6 165 54 217 55 60 65 87
47 129 -20 48 -61 60 -143 41 -45 -11 -70 -12 -83 -5 -27 15 -32 12 -20 -10 8
-14 21 -20 46 -20 25 0 33 -4 29 -12 -4 -7 2 -3 13 9 21 23 112 44 112 25 0
-6 -9 -9 -20 -7 -11 2 -22 -1 -26 -7 -4 -6 7 -9 32 -6 33 3 39 0 44 -22 7 -29
-24 -90 -46 -90 -8 0 -14 -6 -14 -12 0 -7 -4 -19 -9 -27 -7 -11 -12 -11 -30 1
-16 12 -32 14 -58 7 -51 -11 -75 4 -71 44 2 21 8 31 17 29 9 -2 11 3 7 14 -3
9 -1 23 6 32 11 13 10 14 -2 10 -8 -2 -26 -24 -39 -47 -21 -38 -22 -48 -13
-80 16 -53 33 -72 72 -80 47 -9 49 -35 8 -100 -29 -47 -32 -59 -30 -119 2 -36
5 -68 7 -71 3 -2 -11 -33 -31 -68 -19 -36 -33 -67 -31 -69 3 -3 1 -21 -3 -40
-7 -32 -5 -39 27 -72 20 -20 46 -37 57 -38 12 -1 30 -5 40 -9 16 -7 18 -5 13
9 -4 9 -3 15 2 11 5 -3 11 1 14 7 4 10 7 11 18 1 7 -7 20 -13 29 -13 10 1 7 5
-8 13 l-23 13 31 30 c17 16 38 42 46 57 13 25 17 27 32 15 13 -11 14 -11 7 2
-13 21 -15 40 -4 40 5 0 9 11 9 25 0 40 36 124 63 145 14 11 42 46 63 77 20
32 39 60 41 63 2 2 8 -2 13 -10 5 -8 12 -11 16 -7 4 4 0 13 -9 20 -22 16 -12
58 11 51 15 -5 15 -4 0 6 -17 10 -14 45 3 34 5 -3 9 -1 9 5 0 5 -4 11 -9 13
-4 2 -11 28 -15 59 -6 44 -4 60 8 72 8 8 18 26 22 41 6 26 24 37 24 14 0 -6 3
-8 6 -5 4 4 2 13 -5 20 -12 15 -5 47 9 47 5 0 20 -15 34 -32 17 -22 26 -28 26
-17 0 9 -7 22 -15 29 -11 9 -12 15 -5 20 7 4 4 15 -10 32 -35 46 -19 69 30 44
31 -15 39 -9 18 12 -7 7 -20 12 -30 12 -19 0 -22 11 -12 47 5 18 10 21 24 13
17 -9 30 -4 30 12 0 5 -8 8 -17 6 -13 -2 -19 5 -21 26 -5 38 6 78 19 70 6 -3
5 3 -3 15 -21 34 1 43 50 21 23 -10 42 -15 42 -11 0 12 -79 43 -91 36 -5 -4
-9 5 -9 19 0 14 2 26 5 26 22 0 76 -33 102 -64 39 -44 46 -46 27 -6 -18 36
-47 57 -94 70 l-35 9 -2 136 c-1 99 2 135 10 132 7 -2 11 -11 9 -21 -3 -18 6
-20 27 -7 12 8 7 14 -22 31 -20 12 -37 26 -37 31 0 11 11 11 30 0 8 -6 18 -7
23 -4 12 7 -13 23 -37 23 -10 0 -27 11 -38 25 -10 13 -31 30 -46 37 -32 16
-42 54 -15 61 16 4 17 5 1 6 -11 1 -18 9 -18 20 0 11 -4 22 -10 26 -18 11 1
32 28 29 24 -3 23 -2 -5 8 -19 6 -33 18 -33 27 0 9 -7 27 -17 40 -16 23 -16
24 8 19 13 -3 32 -9 42 -13 10 -4 17 -3 17 3 0 6 -20 14 -45 18 -25 3 -45 10
-45 14 0 5 -7 16 -16 25 -22 22 -11 29 37 26 29 -1 39 1 34 10 -5 7 -23 9 -51
5 -34 -4 -49 -2 -64 11 -26 22 -25 29 3 38 14 4 17 8 9 12 -7 3 -19 0 -27 -7
-11 -9 -26 -2 -72 34 -32 25 -62 46 -67 46 -5 0 -17 6 -25 14 -25 21 -147 82
-253 126 -181 76 -337 101 -458 75z m1000 -1465 c14 -35 5 -57 -16 -39 -8 7
-14 7 -14 1 0 -5 6 -15 14 -21 11 -9 11 -17 -3 -46 -9 -19 -18 -34 -22 -35 -3
0 -4 26 -3 58 1 31 3 71 3 89 1 40 23 36 41 -7z m-26 -244 c-2 -28 -10 -55
-17 -61 -8 -5 -12 -16 -10 -22 5 -15 -64 -133 -78 -133 -5 0 1 19 14 43 32 61
56 137 57 175 0 18 5 43 11 54 17 32 28 4 23 -56z m-285 39 c2 -3 -1 -11 -8
-18 -6 -8 -9 -34 -7 -59 4 -38 1 -49 -17 -65 -33 -30 -48 -37 -41 -19 3 9 9
16 13 16 13 0 31 50 31 85 0 25 -4 33 -14 29 -8 -3 -17 0 -21 5 -3 6 -10 9
-15 6 -12 -7 -50 12 -50 25 0 8 120 3 129 -5z m-16 -203 c-3 -23 -9 -42 -13
-42 -5 0 -6 -9 -3 -20 4 -13 -3 -27 -18 -40 -13 -10 -26 -19 -29 -20 -3 0 -5
19 -5 43 0 36 3 42 20 39 15 -2 17 -1 6 6 -11 8 -8 17 14 46 15 20 29 35 31
34 1 -2 0 -22 -3 -46z"/>
<path d="M1692 3853 c-18 -32 -15 -53 7 -53 11 0 23 -4 26 -10 3 -5 -2 -10
-11 -10 -10 0 -14 -3 -10 -7 8 -8 46 -12 46 -4 -1 11 -31 46 -40 47 -22 3 -24
6 -9 12 11 5 14 13 9 27 -7 19 -7 19 -18 -2z"/>
<path d="M1837 3813 c-11 -10 -8 -25 3 -18 6 4 16 2 23 -4 7 -5 22 -8 32 -6
11 2 22 4 25 4 3 1 -2 5 -10 11 -9 6 -17 5 -22 -3 -6 -9 -12 -7 -22 6 -14 19
-19 20 -29 10z"/>
<path d="M1290 3763 c0 -11 7 -34 16 -49 l16 -29 -6 30 c-10 49 -12 54 -19 61
-4 4 -7 -2 -7 -13z"/>
<path d="M1975 3759 c-4 -6 -13 -8 -19 -6 -7 3 -19 1 -27 -4 -11 -7 -11 -9 2
-9 10 0 16 -7 15 -17 0 -10 6 -18 14 -19 8 0 9 1 3 3 -7 3 -13 7 -13 9 0 10
28 34 39 34 6 0 11 5 11 10 0 13 -17 13 -25 -1z"/>
<path d="M2029 3741 c-23 -19 -23 -20 -2 -15 15 4 25 0 32 -15 7 -12 18 -21
26 -21 7 0 21 -7 30 -16 9 -9 19 -13 23 -9 4 4 -3 15 -15 25 -12 9 -19 21 -15
26 4 5 -1 2 -11 -5 -15 -12 -20 -11 -32 5 -7 10 -9 21 -4 22 12 5 12 22 0 22
-5 0 -19 -9 -32 -19z"/>
<path d="M1687 3732 c6 -14 4 -15 -8 -5 -12 10 -18 10 -28 0 -9 -9 -14 -9 -20
1 -5 9 -14 10 -32 3 -16 -6 -18 -10 -7 -10 9 -1 19 -7 21 -13 4 -9 6 -9 6 -1
1 6 10 9 21 6 42 -11 92 16 56 30 -11 4 -13 1 -9 -11z"/>
<path d="M1700 3694 c0 -8 -4 -13 -8 -10 -5 3 -9 -1 -9 -9 0 -8 4 -15 9 -15 5
0 13 -11 18 -25 5 -14 17 -25 26 -25 14 0 14 -3 4 -15 -7 -9 -9 -19 -5 -23 4
-4 10 -1 12 6 3 6 11 12 19 12 10 0 9 5 -6 20 -11 11 -25 20 -31 20 -5 0 -8 4
-5 9 3 5 -1 11 -9 15 -25 9 -6 38 22 33 19 -3 21 -2 12 9 -16 19 -49 18 -49
-2z"/>
<path d="M2026 3664 c-16 -7 -39 -14 -51 -14 -21 0 -35 -17 -35 -41 0 -5 6 -9
14 -9 8 0 13 8 12 18 0 9 6 17 14 17 8 0 14 -6 13 -12 -2 -7 2 -13 7 -13 6 0
10 9 10 20 0 18 12 24 48 23 6 -1 12 3 12 8 0 16 -17 18 -44 3z"/>
<path d="M1255 3660 c8 -13 -14 -42 -26 -34 -5 3 -9 -2 -9 -10 0 -9 5 -16 10
-16 6 0 10 5 10 10 0 15 21 12 41 -6 10 -9 19 -11 23 -5 4 5 -3 12 -14 16 -11
3 -20 11 -20 16 0 6 6 7 13 3 6 -4 3 2 -7 14 -20 23 -32 29 -21 12z"/>
<path d="M1518 3629 c-8 -18 -15 -24 -20 -16 -4 6 -10 8 -14 4 -11 -11 2 -19
37 -23 41 -5 44 -8 25 -27 -13 -12 -13 -16 -2 -20 19 -8 32 43 14 54 -7 5 -19
9 -27 9 -11 0 -11 3 -1 15 7 9 19 14 27 11 7 -3 13 -2 13 3 0 5 -9 11 -20 14
-14 4 -23 -3 -32 -24z"/>
<path d="M1853 3648 c7 -21 -4 -30 -23 -18 -18 11 -40 1 -40 -19 1 -14 2 -14
14 2 9 12 16 14 21 8 8 -13 25 -14 44 -2 12 8 11 12 -4 28 -17 16 -18 16 -12
1z"/>
<path d="M2150 3625 c-18 -9 -29 -10 -37 -3 -17 14 -17 0 0 -17 10 -9 19 -10
33 -3 12 6 9 2 -6 -11 -19 -16 -21 -21 -9 -21 9 0 22 7 29 15 7 8 20 15 29 15
9 0 23 5 31 10 13 9 13 11 0 20 -20 13 -40 12 -70 -5z"/>
<path d="M1430 3603 c-17 -6 -40 -32 -40 -46 0 -5 7 -4 15 3 8 7 12 17 8 23
-4 6 0 8 10 4 9 -3 18 0 21 9 3 8 4 14 3 13 -1 0 -9 -3 -17 -6z"/>
<path d="M1894 3585 c4 -11 -3 -19 -20 -25 -14 -6 -22 -15 -19 -20 5 -8 12 -7
22 1 12 10 16 10 23 0 4 -8 13 -10 19 -7 16 11 13 26 -4 20 -8 -4 -15 -1 -15
5 0 6 5 11 10 11 16 0 12 17 -6 24 -12 5 -15 2 -10 -9z"/>
<path d="M2320 3578 c0 -17 -52 -38 -92 -38 -25 0 -29 -14 -8 -28 14 -9 21 -8
30 2 6 8 37 22 70 32 32 10 57 21 54 25 -2 5 -12 5 -20 2 -9 -3 -20 0 -25 8
-7 11 -9 11 -9 -3z"/>
<path d="M2192 3569 c-18 -16 -83 -30 -95 -20 -8 6 -18 6 -27 1 -12 -8 -11
-10 6 -10 14 0 24 -8 27 -21 3 -12 10 -18 16 -14 6 3 9 11 6 16 -4 5 -1 9 4 9
6 0 11 -3 11 -7 0 -5 12 -9 27 -10 19 -1 22 1 12 8 -10 6 -10 9 -1 9 6 0 12 6
12 13 0 8 19 13 53 15 28 2 56 7 62 13 11 11 -100 9 -113 -2z"/>
<path d="M2570 3573 c58 -21 90 -30 90 -23 0 11 -49 30 -78 29 -15 0 -21 -3
-12 -6z"/>
<path d="M1284 3551 c22 -25 56 -34 56 -15 0 8 -10 14 -25 14 -14 0 -25 5 -25
10 0 6 -5 10 -12 10 -6 0 -4 -8 6 -19z"/>
<path d="M1983 3548 c4 -12 2 -15 -9 -11 -7 3 -14 0 -14 -6 0 -6 7 -11 15 -11
9 0 27 -7 41 -16 37 -25 35 -14 -5 26 -19 19 -32 27 -28 18z"/>
<path d="M2396 3541 c-4 -5 -1 -11 6 -13 32 -11 -63 -70 -118 -73 -35 -2 -95
-33 -102 -53 -5 -15 21 -7 58 18 30 20 70 32 70 20 0 -5 -20 -18 -44 -30 -32
-15 -44 -27 -43 -41 1 -22 22 -20 22 2 0 8 16 22 35 33 19 10 45 29 58 42 13
12 37 26 54 29 20 5 26 10 18 15 -20 13 7 22 43 15 30 -6 31 -5 13 10 -17 13
-18 15 -3 15 9 0 17 5 17 10 0 7 -6 7 -19 0 -25 -13 -54 -13 -46 0 3 6 2 10
-4 10 -5 0 -12 -4 -15 -9z"/>
<path d="M1510 3520 c-12 -11 -28 -17 -34 -14 -6 3 -3 -1 7 -9 18 -15 24 -32
7 -22 -5 3 -10 1 -10 -5 0 -7 6 -10 13 -7 6 2 12 12 12 22 0 10 10 22 23 26
13 5 20 13 17 19 -8 13 -8 13 -35 -10z"/>
<path d="M1655 3510 c-36 -18 -28 -19 25 -4 11 3 20 10 20 15 0 11 2 12 -45
-11z"/>
<path d="M2330 3514 l-25 -15 25 5 c14 3 31 6 38 6 6 0 12 5 12 10 0 14 -21
12 -50 -6z"/>
<path d="M1561 3494 c6 -8 9 -21 5 -29 -3 -9 -2 -13 4 -10 6 3 10 1 10 -4 0
-6 5 -11 10 -11 6 0 8 11 6 25 -3 14 0 25 5 25 5 0 9 4 9 9 0 5 -13 9 -30 9
-24 -1 -28 -4 -19 -14z"/>
<path d="M2140 3480 c-8 -4 -28 -13 -43 -19 -15 -6 -25 -16 -22 -22 4 -6 12
-6 18 -1 7 4 24 13 40 20 24 10 27 10 27 -9 0 -11 -4 -18 -8 -15 -5 3 -9 -1
-9 -9 0 -19 4 -19 34 5 14 11 34 20 44 20 10 0 21 5 24 10 4 7 -8 8 -35 4 -30
-5 -40 -3 -38 6 4 16 -13 21 -32 10z"/>
<path d="M1150 3450 c-14 -4 -20 -9 -15 -10 28 -6 185 -5 185 0 0 4 -21 7 -47
8 -27 1 -59 4 -73 6 -14 2 -36 1 -50 -4z"/>
<path d="M2414 3450 c-12 -5 -25 -13 -29 -19 -3 -6 -22 -18 -41 -26 -19 -8
-34 -19 -34 -26 0 -7 8 -6 24 5 14 8 43 18 65 22 23 4 41 10 41 15 0 5 15 13
33 19 32 10 32 10 2 6 -16 -3 -39 -7 -50 -11 -14 -4 -13 -2 5 9 27 17 18 20
-16 6z"/>
<path d="M1703 3436 c15 -5 26 -15 24 -21 -6 -14 20 -38 28 -25 3 6 2 10 -3
10 -6 0 -12 10 -15 23 -5 16 -14 22 -34 23 l-28 1 28 -11z"/>
<path d="M2438 3406 c-10 -7 -18 -17 -18 -21 0 -4 6 -2 14 5 8 6 35 12 59 13
25 1 43 5 40 9 -7 13 -77 8 -95 -6z"/>
<path d="M1502 3385 c-11 -13 -10 -15 7 -15 11 0 21 -6 24 -12 2 -7 7 -10 11
-6 8 7 -11 48 -22 48 -4 -1 -13 -7 -20 -15z"/>
<path d="M1773 3388 c1 -6 -14 -15 -33 -20 -19 -5 -48 -13 -65 -18 -28 -9 -28
-8 -11 5 11 8 17 17 14 20 -2 3 -13 -4 -23 -15 -10 -11 -15 -23 -12 -26 3 -4
38 1 78 10 91 20 187 20 239 0 32 -13 45 -26 66 -70 22 -45 25 -63 20 -100 -6
-47 -31 -130 -45 -149 -16 -22 -30 -65 -21 -65 5 0 12 9 15 20 4 11 11 18 16
15 5 -3 6 0 3 8 -3 8 -1 18 5 21 17 11 43 118 43 171 -2 85 -6 99 -37 125 -16
13 -32 27 -35 31 -16 19 -57 29 -124 29 -44 0 -76 4 -76 10 0 6 -4 10 -10 10
-5 0 -9 -5 -7 -12z"/>
<path d="M1153 3372 c-35 -2 -63 -6 -63 -11 0 -10 130 -8 131 2 1 12 0 12 -68
9z"/>
<path d="M1240 3361 c0 -10 7 -22 16 -25 23 -9 34 -7 34 4 0 6 -7 10 -16 8
-10 -2 -19 2 -21 9 -3 7 4 10 19 6 18 -4 20 -3 8 6 -23 16 -40 13 -40 -8z"/>
<path d="M2446 3355 c-14 -14 -32 -25 -40 -25 -8 0 -17 -4 -20 -9 -4 -5 4 -6
16 -2 31 9 88 44 88 54 0 14 -20 7 -44 -18z"/>
<path d="M2532 3360 c-18 -11 -39 -20 -47 -20 -8 0 -15 -4 -15 -9 0 -12 48 -1
61 15 6 8 18 14 25 14 8 0 14 5 14 10 0 13 0 13 -38 -10z"/>
<path d="M2318 3365 c-3 -3 -38 -12 -79 -21 -68 -14 -106 -31 -95 -41 2 -3 14
1 26 7 20 11 21 10 15 -9 -3 -12 -2 -21 3 -21 5 0 12 9 15 20 3 11 14 20 24
20 11 0 23 3 27 7 13 14 101 31 129 26 16 -3 27 -1 27 6 0 11 -81 16 -92 6z"/>
<path d="M900 3320 c0 -4 34 -15 76 -25 62 -15 99 -17 193 -11 64 3 132 10
152 15 21 5 43 5 50 1 12 -8 49 9 49 22 0 5 -7 8 -15 8 -8 0 -15 -5 -15 -11 0
-5 -4 -7 -10 -4 -5 3 -47 1 -92 -5 -101 -14 -211 -18 -258 -9 -19 4 -56 11
-82 17 -27 5 -48 6 -48 2z"/>
<path d="M2650 3322 c0 -5 14 -12 31 -16 45 -9 65 -8 54 3 -14 13 -85 24 -85
13z"/>
<path d="M450 3304 c0 -11 7 -29 15 -40 14 -18 15 -17 9 11 -8 37 -24 57 -24
29z"/>
<path d="M1714 3289 c-11 -4 -36 -11 -58 -14 -21 -3 -35 -9 -32 -12 3 -4 51 0
106 7 129 17 174 6 197 -47 12 -29 12 -44 3 -77 -27 -95 -15 -118 39 -77 23
17 23 20 8 35 -9 10 -18 12 -22 6 -3 -5 -1 -10 5 -10 8 0 8 -6 0 -20 -14 -26
-34 -15 -27 14 3 11 10 39 16 60 13 52 -6 98 -51 126 -26 16 -47 20 -99 18
-37 -1 -75 -6 -85 -9z"/>
<path d="M2490 3279 l-25 -7 28 -1 c15 -1 27 -6 27 -12 0 -7 -10 -9 -26 -5
-64 16 -82 17 -114 3 -34 -14 -33 -14 36 -9 66 4 73 3 83 -17 11 -19 18 -21
61 -15 42 5 49 4 52 -12 5 -18 5 -18 13 0 6 13 3 23 -9 32 -16 11 -15 13 11
17 27 4 27 4 -5 6 -20 0 -44 -7 -61 -20 -38 -28 -63 -21 -33 9 12 12 22 24 22
26 0 9 -37 12 -60 5z"/>
<path d="M2175 3260 c-16 -4 -26 -8 -21 -9 5 0 3 -8 -4 -16 -15 -18 1 -20 18
-2 7 6 32 17 55 24 37 10 38 11 12 11 -16 0 -43 -4 -60 -8z"/>
<path d="M2223 3238 c-52 -11 -56 -24 -8 -26 23 -1 38 4 41 13 4 8 9 13 13 11
4 -3 13 -1 21 5 19 11 -8 11 -67 -3z"/>
<path d="M1637 3214 c-2 -2 -39 -9 -83 -14 -43 -6 -88 -12 -99 -14 -11 -3 -24
-5 -28 -5 -5 -1 -5 -6 -1 -12 3 -6 16 -8 28 -5 75 19 214 36 245 31 40 -7 81
-36 99 -72 9 -17 9 -34 -2 -74 -13 -53 -13 -54 12 -66 29 -15 32 -16 32 -5 0
5 -10 14 -22 20 -13 6 -17 11 -10 11 6 1 12 6 12 12 0 5 -5 7 -11 3 -7 -4 -7
1 1 16 17 32 19 100 4 100 -7 0 -15 8 -18 18 -8 24 -71 55 -118 57 -21 1 -39
1 -41 -1z"/>
<path d="M2398 3203 c-21 -8 -35 -19 -32 -24 3 -5 -6 -9 -20 -9 -17 0 -26 6
-26 16 0 10 -6 14 -17 11 -10 -3 -35 -8 -57 -12 -21 -3 -51 -16 -66 -27 -23
-17 -31 -18 -50 -8 -19 10 -21 10 -12 -7 8 -13 5 -24 -9 -42 -10 -13 -19 -28
-19 -35 0 -6 12 4 26 22 21 27 127 92 149 92 3 0 -2 -11 -10 -24 -11 -17 -22
-22 -37 -18 -14 3 -19 1 -14 -6 8 -13 86 -14 86 -1 0 5 -7 9 -15 9 -13 0 -13
3 -3 20 14 22 43 28 35 7 -4 -10 2 -13 20 -9 18 3 24 1 19 -7 -4 -6 -17 -11
-29 -11 -14 0 -18 -3 -11 -10 6 -6 23 -6 48 1 44 12 80 4 56 -12 -12 -8 -11
-9 5 -7 11 2 28 -5 37 -14 20 -20 48 -24 48 -8 0 6 -7 10 -15 10 -8 0 -15 4
-15 9 0 5 -13 14 -30 21 -36 15 -42 45 -7 37 12 -2 30 -8 40 -12 9 -4 17 -3
17 3 0 11 -34 22 -73 22 -18 0 -26 4 -21 11 4 7 27 10 61 7 55 -5 61 5 8 15
-16 3 -47 -2 -67 -10z"/>
<path d="M820 3202 c0 -5 28 -14 63 -20 34 -6 82 -16 107 -22 49 -13 412 -21
404 -9 -2 4 2 9 8 12 32 11 -2 14 -52 5 -71 -13 -318 -3 -390 16 -83 22 -140
29 -140 18z"/>
<path d="M665 3162 c6 -5 41 -12 78 -15 89 -6 73 9 -18 18 -45 4 -66 3 -60 -3z"/>
<path d="M378 3109 c-49 -52 -52 -80 -16 -130 12 -16 25 -26 29 -23 5 3 6 -3
2 -12 -5 -13 -3 -16 10 -11 40 15 108 -43 76 -65 -8 -5 -26 -7 -41 -5 -16 2
-28 -1 -28 -5 0 -5 19 -8 42 -7 40 3 42 2 50 -29 6 -23 4 -40 -7 -61 -8 -17
-15 -44 -15 -61 0 -38 -15 -38 -60 0 -35 30 -50 37 -50 23 1 -12 71 -63 87
-63 7 0 13 -4 13 -10 0 -20 -57 -10 -80 15 -13 14 -28 25 -33 25 -6 0 0 -11
13 -25 22 -23 22 -25 4 -26 -10 0 8 -8 40 -17 58 -17 59 -17 62 -57 2 -22 4
-44 4 -50 1 -5 -7 -35 -19 -66 -16 -44 -19 -70 -15 -120 5 -55 34 -163 48
-176 2 -2 -5 -27 -16 -56 -27 -70 -38 -145 -26 -177 10 -31 49 -56 72 -47 27
11 39 -30 33 -113 -3 -42 -11 -89 -17 -104 -16 -43 -12 -99 12 -156 18 -44 19
-53 7 -61 -8 -5 -9 -9 -2 -9 18 0 3 -38 -18 -43 -10 -3 -19 -10 -19 -16 0 -9
6 -9 22 0 18 10 20 9 15 -6 -4 -9 -7 -23 -7 -31 0 -8 -6 -14 -14 -14 -8 0 -18
-5 -22 -12 -5 -8 0 -9 14 -6 17 5 22 2 22 -14 0 -12 -8 -27 -17 -34 -17 -13
-17 -13 0 -14 20 0 22 -20 5 -39 -11 -11 -10 -13 4 -8 10 3 20 2 23 -4 11 -17
-6 -69 -28 -90 -23 -22 -109 -69 -126 -69 -5 0 -48 -18 -95 -40 -47 -22 -92
-40 -99 -40 -7 0 -17 -4 -22 -8 -6 -5 -37 -19 -70 -32 -99 -38 -125 -52 -125
-66 0 -8 9 -14 20 -14 11 0 20 5 20 10 0 6 11 8 25 4 15 -4 25 -2 25 5 0 5 18
16 40 22 22 7 45 18 51 26 6 7 20 13 30 13 22 0 71 21 81 35 4 5 8 6 8 1 0 -5
7 -3 15 4 8 6 18 9 24 6 5 -4 17 2 27 11 10 10 18 16 18 14 1 -2 22 5 48 17
54 24 114 65 143 99 21 23 22 23 70 7 67 -21 125 -47 125 -56 0 -5 7 -8 16 -8
14 0 44 -22 44 -33 0 -3 -10 -7 -22 -11 -18 -4 -20 -8 -10 -18 6 -6 12 -22 12
-35 0 -38 16 -26 32 24 19 59 40 70 34 18 -3 -20 -15 -51 -28 -68 -14 -18 -30
-47 -37 -65 -8 -18 -19 -36 -26 -40 -17 -10 -89 -202 -145 -387 -9 -30 -35
-166 -45 -240 -4 -22 -8 -50 -10 -62 -11 -73 -9 -118 5 -121 9 -1 16 5 17 15
2 34 12 129 17 158 3 17 8 50 11 75 4 25 10 47 13 50 4 3 7 21 6 40 0 19 4 38
8 41 5 3 11 19 13 35 2 16 4 31 5 34 2 3 2 9 1 13 -1 4 6 10 14 13 10 4 15 19
15 44 0 21 9 59 19 83 11 25 17 48 13 52 -3 3 1 3 10 0 13 -5 15 -2 11 13 -2
11 0 23 6 26 6 4 11 18 11 32 0 13 5 24 10 24 6 0 9 3 8 8 -2 4 7 18 19 31 12
12 24 35 28 49 4 15 11 32 17 39 23 29 46 86 42 107 -3 19 1 25 21 28 14 3 28
1 31 -4 3 -5 12 -7 20 -4 7 3 16 1 19 -3 3 -5 -3 -12 -12 -15 -12 -5 -13 -10
-5 -18 8 -8 8 -17 0 -32 -10 -19 -13 -32 -20 -88 -1 -10 -6 -18 -11 -18 -5 0
-7 -6 -4 -14 3 -7 2 -17 -3 -22 -4 -5 -11 -43 -15 -84 -11 -130 -14 -149 -24
-168 -6 -11 -7 -22 -4 -26 4 -3 8 -48 9 -99 2 -50 6 -112 9 -137 4 -25 8 -55
8 -67 1 -13 5 -23 10 -23 4 0 7 -8 7 -18 0 -11 7 -32 15 -48 8 -16 16 -46 19
-66 6 -47 12 -58 37 -58 23 0 24 11 3 53 -10 17 -18 52 -19 77 -1 32 -6 46
-17 48 -9 2 -16 13 -16 25 1 12 -4 44 -9 70 -11 48 -10 317 1 372 3 17 8 48
10 70 6 51 32 162 58 242 l20 63 41 0 c53 0 54 -1 117 -79 80 -101 107 -116
215 -117 95 -2 127 -10 160 -40 27 -25 83 -97 87 -112 3 -13 -153 -119 -189
-128 -13 -4 -23 -10 -23 -15 0 -5 -5 -9 -10 -9 -6 0 -28 -11 -51 -25 l-40 -26
-13 33 c-24 59 -26 63 -22 40 7 -36 -13 -15 -23 26 -17 65 -23 166 -12 211 6
29 6 51 0 63 -23 43 -30 15 -25 -110 4 -130 30 -256 56 -272 9 -6 1 -16 -26
-32 -66 -42 -186 -104 -247 -129 -57 -23 -73 -39 -39 -39 20 0 158 64 218 102
21 14 77 45 124 70 147 78 238 132 255 152 19 21 74 56 89 56 8 0 16 3 18 8 2
4 23 20 47 36 25 16 50 33 55 37 6 5 48 36 92 68 198 145 374 381 598 804 51
95 57 114 55 157 -2 27 1 53 5 57 18 19 47 102 53 153 6 59 -12 170 -28 170
-5 0 -6 -12 -2 -27 4 -16 7 -62 7 -103 0 -61 -6 -86 -29 -135 -16 -33 -36 -67
-44 -75 -8 -8 -38 -46 -68 -85 -29 -38 -65 -85 -79 -103 -15 -18 -24 -36 -20
-39 8 -8 33 21 119 136 56 77 62 83 65 58 6 -54 -174 -390 -320 -595 -98 -138
-117 -161 -209 -252 -84 -82 -303 -245 -317 -236 -6 3 -19 26 -31 51 -39 82
-135 132 -231 119 -77 -10 -124 13 -199 96 -62 70 -62 70 -33 70 21 0 32 -7
41 -26 6 -15 14 -24 17 -21 3 3 1 14 -5 25 -9 17 -7 20 14 24 13 3 28 1 34 -5
6 -6 15 -4 26 7 9 9 24 16 33 16 9 0 25 7 36 15 13 10 24 11 37 5 10 -6 28
-10 41 -11 24 0 101 15 129 26 10 4 20 -2 27 -17 11 -22 11 -22 6 5 -5 21 -2
27 10 27 9 0 16 5 16 11 0 6 6 9 13 6 6 -2 11 -10 9 -16 -1 -6 3 -11 9 -11 6
0 8 7 5 15 -8 22 38 42 58 26 17 -14 29 0 20 24 -4 8 -2 15 4 13 5 -2 19 8 31
21 65 75 123 131 131 126 12 -8 20 21 8 33 -6 6 -23 -6 -51 -37 -85 -94 -115
-118 -197 -158 -84 -41 -137 -56 -235 -69 -39 -5 -47 -4 -39 6 7 7 23 13 37
13 14 1 23 5 21 9 -6 9 61 70 88 80 11 5 30 10 44 12 24 5 130 88 136 107 2 5
18 12 35 14 48 6 88 30 143 87 27 28 50 46 50 40 0 -9 5 -9 20 0 14 9 16 14 7
20 -17 10 5 44 27 40 20 -4 20 5 1 25 -16 15 -14 64 5 156 4 20 4 39 0 42 -12
7 -31 -74 -33 -144 -2 -62 -4 -66 -57 -129 -55 -65 -149 -130 -170 -117 -7 4
-4 16 8 33 25 35 52 116 59 172 3 25 9 46 14 48 4 2 6 9 3 15 -2 7 2 33 10 59
10 33 10 50 3 57 -18 18 -24 13 -19 -19 3 -19 0 -30 -8 -30 -7 0 -10 -7 -6
-15 3 -8 1 -25 -3 -38 -19 -45 -23 -63 -26 -102 -4 -56 -54 -172 -89 -203 -15
-15 -42 -40 -58 -55 -29 -27 -77 -52 -85 -44 -2 2 6 15 17 30 11 14 20 29 20
34 0 4 7 21 15 36 8 15 16 45 19 65 2 20 7 44 11 53 3 9 -3 26 -14 40 -16 19
-22 22 -32 12 -11 -11 -9 -13 5 -13 16 0 17 -6 11 -47 -4 -27 -11 -53 -16 -59
-5 -6 -6 -13 -3 -16 7 -8 -37 -93 -75 -146 -43 -59 -85 -83 -117 -68 -13 6
-24 14 -24 17 0 11 49 51 57 46 5 -3 10 5 11 18 1 13 13 40 26 59 22 33 30 72
50 241 4 31 -8 65 -24 65 -5 0 -8 -26 -8 -57 0 -147 0 -153 -26 -162 -27 -11
-41 -40 -26 -55 5 -5 10 -17 10 -25 0 -11 -4 -10 -20 4 -22 20 -27 6 -8 -25
16 -26 2 -39 -16 -14 -8 10 -18 16 -22 11 -4 -4 -2 -13 4 -19 18 -18 15 -38
-5 -31 -12 5 -15 2 -10 -10 3 -9 2 -17 -4 -17 -6 0 -13 9 -16 20 -4 14 -13 20
-32 19 -14 -1 -19 -3 -11 -5 9 -3 21 -14 29 -26 11 -17 11 -22 -1 -29 -21 -14
-28 -11 -38 16 -14 36 -21 31 -18 -13 3 -32 0 -37 -19 -40 -19 -3 -23 1 -23
22 0 14 -5 28 -12 32 -8 5 -9 -2 -5 -24 4 -22 2 -32 -9 -36 -26 -10 -32 -7
-38 19 -4 14 -11 25 -16 25 -6 0 -8 -11 -4 -24 5 -22 2 -24 -36 -28 -37 -3
-43 -1 -51 20 -5 13 -13 21 -19 17 -5 -3 -6 -13 -3 -21 5 -13 -3 -15 -43 -12
-44 3 -49 5 -46 25 2 13 -2 23 -7 23 -6 0 -11 -9 -11 -19 0 -18 -7 -19 -72
-16 -40 1 -92 3 -115 4 -36 1 -40 3 -36 21 3 11 0 20 -6 20 -6 0 -11 -9 -11
-20 0 -17 -4 -19 -27 -14 -39 9 -98 58 -96 80 1 10 -6 24 -15 31 -14 10 -15
14 -3 22 9 6 10 10 2 16 -7 3 -10 14 -7 23 2 10 7 34 10 54 5 27 12 38 29 41
l22 4 -21 8 c-20 6 -21 10 -12 42 12 45 4 79 -22 86 -15 4 -20 13 -20 41 0 20
5 36 10 36 6 0 10 5 10 11 0 5 -5 7 -10 4 -16 -10 -1 46 21 77 10 15 15 29 10
33 -5 3 -11 -2 -13 -11 -2 -10 -3 22 -3 69 l0 87 35 0 c20 0 45 -7 56 -15 22
-17 34 -19 34 -5 0 23 -61 40 -135 38 -45 -1 -80 3 -87 10 -52 52 109 462 288
734 63 95 74 118 54 118 -5 0 -10 -4 -10 -9 0 -4 -20 -39 -45 -76 -73 -108
-167 -285 -229 -429 -35 -81 -43 -84 -51 -19 -3 21 -9 61 -14 88 -11 63 -5
119 16 152 l17 25 18 -22 c10 -12 23 -20 29 -18 6 2 -1 16 -16 32 -32 34 -45
66 -45 109 0 67 6 74 63 71 29 -2 68 -6 87 -9 27 -5 32 -4 24 5 -7 7 -45 15
-85 18 -67 6 -74 9 -77 30 -2 12 2 22 8 22 6 0 8 5 5 10 -3 6 1 10 11 10 13 0
14 3 5 14 -10 11 -8 15 6 19 17 4 17 5 0 6 -10 0 -15 6 -12 11 3 6 38 10 77
10 68 0 72 -1 105 -36 19 -20 37 -34 40 -31 3 4 -10 22 -28 40 -27 27 -46 36
-86 42 -29 4 -65 4 -80 1 -27 -6 -29 -4 -49 51 -17 49 -25 59 -52 67 -34 9
-92 67 -92 90 0 16 27 29 41 20 5 -3 9 2 9 11 0 12 -6 15 -20 10 -11 -3 -20
-2 -20 3 0 15 22 29 58 37 29 6 46 25 23 25 -5 0 -15 2 -23 5 -7 3 -30 -13
-50 -36z m1025 -1995 c9 -4 17 -11 17 -16 0 -13 -61 -37 -79 -30 -9 3 -12 1
-7 -6 4 -7 4 -13 -1 -13 -147 -26 -526 -1 -562 36 -15 16 -9 17 76 13 55 -2
97 -9 107 -17 10 -9 16 -10 16 -2 0 7 15 8 48 4 125 -18 272 -3 327 34 11 7
24 11 30 8 5 -3 18 -8 28 -11z"/>
<path d="M470 3130 c0 -10 6 -11 70 -15 19 -1 58 -5 85 -9 55 -8 96 -9 103 -1
11 11 -8 16 -83 20 -43 3 -100 7 -126 10 -31 4 -49 2 -49 -5z"/>
<path d="M2741 3108 c-1 -10 5 -18 13 -18 8 0 29 -14 46 -31 17 -17 34 -28 38
-25 8 9 -56 66 -74 66 -7 0 -15 6 -17 13 -3 7 -6 5 -6 -5z"/>
<path d="M1650 3101 c0 -5 -26 -10 -57 -10 -32 -1 -71 -4 -88 -6 -16 -3 -79
-8 -138 -12 -98 -5 -109 -4 -123 13 -13 17 -13 17 -3 -8 l12 -27 116 5 c64 2
130 6 146 8 156 20 150 20 173 -9 26 -33 28 -77 5 -116 -9 -15 -13 -32 -9 -36
9 -9 27 19 42 67 14 44 2 83 -31 100 -14 7 -25 19 -25 27 0 7 -4 13 -10 13 -5
0 -10 -4 -10 -9z"/>
<path d="M2212 3101 c-7 -4 13 -7 48 -5 34 1 64 5 67 8 10 9 -100 7 -115 -3z"/>
<path d="M2595 3091 c-8 -15 3 -31 21 -31 9 0 12 5 8 12 -5 8 -2 9 10 5 10 -4
20 -7 22 -7 3 0 2 -4 -1 -10 -3 -5 0 -10 8 -10 10 0 13 7 10 20 -3 11 -13 20
-23 20 -10 0 -25 3 -33 6 -8 3 -18 1 -22 -5z"/>
<path d="M2379 3073 c-13 -15 -11 -16 20 -10 18 4 40 7 48 7 8 0 11 5 8 10
-10 16 -61 12 -76 -7z"/>
<path d="M482 3067 c-42 -39 -72 -71 -69 -73 6 -7 77 20 77 28 0 5 -5 6 -11 2
-7 -4 -10 -1 -7 6 2 7 22 15 43 17 22 1 50 5 63 8 12 3 22 1 22 -5 0 -9 -23
-15 -45 -10 -5 1 -6 -2 -2 -7 5 -4 25 -8 45 -9 21 0 50 -4 66 -7 17 -4 36 -1
44 5 9 8 16 8 20 1 4 -5 16 -9 27 -7 11 2 22 -2 26 -7 7 -11 39 -1 39 13 0 5
-8 8 -17 6 -11 -2 -18 3 -17 13 1 14 -5 15 -34 8 -25 -5 -44 -3 -65 7 -16 9
-26 11 -23 5 7 -11 -54 -3 -64 8 -3 3 -21 7 -40 8 -26 2 -31 0 -20 -7 13 -8
13 -10 -2 -10 -9 0 -20 5 -23 10 -8 13 -17 12 -33 -3z"/>
<path d="M807 3066 c-6 -16 1 -26 17 -26 6 0 4 5 -4 10 -13 8 -12 10 3 10 9 0
26 -9 38 -21 11 -11 23 -19 25 -16 6 5 -54 57 -66 57 -4 0 -10 -6 -13 -14z"/>
<path d="M2182 3070 c-23 -4 -48 -12 -54 -18 -10 -10 -5 -11 22 -7 32 5 33 5
10 -5 -13 -6 -33 -18 -42 -27 -10 -9 -18 -12 -18 -7 0 6 -9 10 -19 11 -14 1
-18 -3 -14 -13 3 -8 12 -13 19 -10 7 3 16 1 19 -4 9 -14 25 -12 23 2 -4 18
100 67 141 67 19 1 32 3 30 5 -10 8 -78 12 -117 6z"/>
<path d="M2450 3049 c-14 -4 14 -7 63 -7 48 1 90 -2 94 -5 6 -6 -48 -12 -70
-8 -5 1 -6 -3 -2 -8 3 -6 -15 -16 -42 -22 -26 -7 -42 -14 -35 -17 7 -2 10 -8
6 -13 -3 -5 4 -9 16 -9 13 0 18 4 14 11 -4 7 4 10 22 7 23 -2 28 1 26 15 -4
22 36 23 64 2 10 -8 24 -14 29 -14 6 -1 -1 8 -15 19 -24 19 -19 25 18 21 6 -1
19 2 28 7 33 18 -160 37 -216 21z"/>
<path d="M1050 3039 c-11 -8 -12 -12 -2 -16 6 -2 10 -8 7 -13 -3 -4 13 -8 34
-8 25 -1 41 4 45 14 4 10 -3 14 -28 14 -19 0 -36 4 -38 10 -2 6 -9 5 -18 -1z"/>
<path d="M2245 3033 c-38 -15 -123 -76 -137 -98 -3 -5 -16 -21 -27 -34 -12
-13 -21 -27 -21 -30 -1 -20 -67 -75 -117 -96 -54 -23 -55 -25 -18 -18 47 7
101 29 110 42 3 6 11 9 18 7 7 -1 9 -1 5 1 -10 6 11 46 28 56 8 4 14 14 14 21
0 22 105 112 154 132 25 11 46 22 46 27 0 10 -9 8 -55 -10z"/>
<path d="M2300 3013 c-55 -32 -55 -32 -48 -38 3 -4 21 4 41 17 19 13 43 28 53
35 38 24 -2 12 -46 -14z"/>
<path d="M2743 3028 c2 -12 34 -48 42 -48 12 0 3 28 -13 43 -22 20 -33 22 -29
5z"/>
<path d="M2385 3020 c-3 -5 -3 -10 2 -10 4 0 1 -5 -7 -10 -11 -7 -6 -9 20 -9
19 1 27 3 18 6 -10 2 -18 9 -18 14 0 6 4 8 9 4 5 -3 12 -1 16 5 3 5 -3 10 -14
10 -11 0 -23 -4 -26 -10z"/>
<path d="M1180 3010 c0 -12 -59 -29 -98 -28 -24 0 -49 -5 -55 -11 -8 -8 -7
-11 5 -11 8 0 30 -3 48 -7 22 -4 31 -3 27 4 -4 6 16 5 51 -3 31 -8 86 -16 122
-18 l65 -4 -39 14 c-21 8 -41 12 -45 10 -4 -3 -8 6 -9 19 l-2 24 37 -24 c39
-27 53 -29 101 -16 20 6 32 6 32 0 0 -5 -4 -9 -10 -9 -5 0 -10 -3 -10 -7 0 -5
11 -8 25 -8 14 0 25 3 25 6 0 4 8 9 19 12 14 3 17 0 14 -14 -4 -13 0 -19 10
-19 21 0 31 17 15 24 -7 3 0 2 16 -1 23 -5 27 -3 21 8 -6 11 -5 12 5 2 10 -9
17 -10 27 -2 20 17 15 27 -11 22 -18 -4 -26 0 -31 16 -8 25 -65 31 -65 7 0
-26 -37 -28 -78 -5 -27 16 -46 20 -65 15 -15 -3 -25 -11 -22 -16 3 -6 2 -10
-4 -10 -5 0 -11 7 -13 16 -2 13 -16 17 -56 18 -28 0 -52 -1 -52 -4z m50 -19
c0 -6 -5 -13 -10 -16 -6 -4 -8 -11 -5 -16 9 -14 -7 -10 -29 6 -10 8 -23 12
-27 9 -5 -3 -9 0 -9 7 0 7 10 9 25 7 14 -3 25 -1 25 3 0 5 7 9 15 9 8 0 15 -4
15 -9z"/>
<path d="M2323 2978 c-17 -16 -38 -23 -83 -26 -80 -6 -84 -17 -7 -18 41 0 66
5 73 14 8 11 17 12 50 2 42 -12 101 1 89 20 -10 16 -35 12 -35 -6 0 -11 -6
-14 -22 -8 -33 9 -56 23 -40 24 6 0 12 5 12 10 0 16 -14 12 -37 -12z"/>
<path d="M462 2978 c-22 -22 -13 -29 19 -12 21 10 35 12 41 6 6 -6 16 -8 22
-6 19 7 197 -24 213 -37 8 -7 23 -29 33 -48 21 -40 26 -25 8 25 -9 24 -22 38
-50 49 -23 9 -36 20 -32 26 3 6 -3 5 -14 -2 -14 -9 -30 -9 -58 -2 -60 15 -167
16 -182 1z"/>
<path d="M1947 2955 c-12 -59 -56 -150 -91 -186 -33 -34 -82 -59 -115 -59 -11
0 -23 -5 -27 -11 -9 -15 70 -2 107 17 67 34 145 173 137 245 l-4 34 -7 -40z"/>
<path d="M2405 2929 c-16 -5 -38 -7 -48 -5 -9 2 -15 0 -11 -5 9 -15 70 -10 84
6 7 8 11 15 9 14 -2 0 -17 -5 -34 -10z"/>
<path d="M1850 2910 c0 -5 -7 -10 -15 -10 -8 0 -15 -4 -15 -9 0 -5 -9 -11 -20
-14 -11 -3 -20 -10 -20 -15 0 -6 20 1 45 15 25 13 43 29 39 34 -7 12 -14 11
-14 -1z"/>
<path d="M1060 2903 c-20 -8 -60 -44 -60 -55 0 -5 18 3 39 17 40 27 82 33 157
22 21 -4 102 -9 179 -12 144 -7 179 -16 192 -53 9 -25 43 -67 43 -53 0 27 -42
92 -70 106 -19 10 -68 17 -137 20 -59 2 -157 6 -218 9 -60 3 -117 3 -125 -1z"/>
<path d="M630 2850 c0 -5 12 -10 28 -10 16 0 43 -13 65 -31 38 -32 44 -31 27
2 -18 32 -120 66 -120 39z"/>
<path d="M2654 2851 c3 -5 -16 -9 -44 -9 -29 0 -55 -5 -63 -14 -13 -12 -9 -17
24 -36 45 -26 52 -18 12 14 l-28 22 45 -3 c25 -2 54 -6 64 -11 16 -6 18 -4 13
10 -4 10 -3 15 3 11 6 -3 10 1 10 9 0 9 -9 16 -21 16 -11 0 -18 -4 -15 -9z"/>
<path d="M2755 2810 c3 -5 14 -10 25 -10 10 0 32 -16 49 -35 36 -42 45 -44 29
-9 -7 14 -29 34 -50 45 -41 21 -63 25 -53 9z"/>
<path d="M1199 2781 c-67 -4 -103 -11 -122 -24 -41 -27 -32 -39 10 -15 30 18
52 22 125 21 75 0 96 -4 139 -27 28 -14 49 -20 47 -14 -6 17 -59 46 -86 47
-13 1 -20 5 -17 11 3 6 5 9 3 8 -2 -1 -46 -4 -99 -7z"/>
<path d="M2530 2783 c0 -5 17 -19 38 -31 21 -11 46 -30 57 -42 18 -20 41 -28
30 -10 -3 6 -2 10 4 10 6 0 8 7 4 16 -5 13 -7 13 -14 2 -6 -9 -11 -10 -16 -2
-12 17 -103 67 -103 57z"/>
<path d="M613 2773 c-26 -5 -30 -18 -8 -27 8 -3 15 -2 15 3 0 15 52 23 64 10
8 -8 6 -10 -10 -5 -27 8 -28 -17 -2 -33 15 -9 20 -8 25 5 14 37 -25 59 -84 47z"/>
<path d="M2744 2734 c15 -14 31 -22 34 -19 3 3 -3 12 -14 20 -19 15 -19 15 1
8 11 -3 36 -17 55 -30 45 -30 60 -30 23 0 -29 25 -84 47 -112 47 -11 -1 -8 -8
13 -26z"/>
<path d="M2283 2735 c-22 -15 -60 -101 -50 -111 3 -3 16 16 29 42 19 40 30 51
62 62 65 21 130 -11 137 -68 2 -14 -12 -56 -31 -93 -19 -39 -29 -72 -24 -75 5
-4 18 -17 28 -29 18 -22 18 -24 1 -43 -10 -11 -13 -20 -7 -20 6 0 14 5 17 10
12 20 23 -1 16 -28 -5 -15 -6 -42 -4 -59 5 -28 3 -31 -16 -26 -12 3 -21 1 -21
-6 0 -6 9 -11 21 -11 15 0 19 -4 15 -16 -3 -9 -6 -22 -6 -30 0 -23 -38 -54
-56 -47 -12 4 -15 3 -10 -6 5 -7 14 -10 22 -7 23 9 16 -11 -11 -32 -14 -11
-25 -23 -25 -26 0 -3 -9 -15 -21 -27 -11 -11 -18 -24 -14 -27 4 -4 30 18 58
48 65 70 87 128 88 237 1 74 -1 85 -26 117 -31 41 -28 75 12 134 17 26 22 44
18 62 -10 38 -33 70 -61 80 -38 15 -117 12 -141 -5z"/>
<path d="M525 2717 c-15 -18 -14 -18 12 -16 15 1 51 -1 80 -5 39 -6 54 -13 58
-27 6 -18 35 -27 35 -11 0 17 -58 64 -62 51 -3 -8 -11 -10 -23 -5 -15 5 -17 9
-6 15 9 6 -3 10 -33 12 -35 3 -49 0 -61 -14z"/>
<path d="M1665 2726 c-52 -36 -198 -60 -208 -33 -3 7 -6 5 -6 -5 -1 -10 5 -18
12 -19 20 -1 -66 -38 -93 -40 -14 0 -19 -3 -12 -6 22 -9 13 -21 -30 -38 -33
-13 -60 -15 -132 -10 -64 4 -86 3 -75 -4 9 -6 56 -12 104 -13 77 -2 88 -5 95
-23 17 -44 82 -81 150 -86 52 -3 100 1 100 9 0 5 -26 8 -57 8 -78 -1 -149 27
-169 66 -8 16 -14 31 -12 32 2 1 11 8 21 15 15 12 20 10 39 -14 11 -15 40 -35
64 -45 50 -22 151 -35 188 -26 48 12 26 22 -39 18 -51 -3 -77 1 -122 18 -73
29 -107 58 -92 77 6 7 19 13 28 13 9 0 25 7 35 15 17 13 22 13 36 0 37 -33
223 -46 252 -17 18 18 3 25 -23 12 -27 -15 -161 -8 -204 10 l-30 13 70 17 c87
22 117 34 134 54 17 20 2 21 -24 2z"/>
<path d="M1067 2702 c-9 -2 -17 -8 -17 -13 0 -5 -7 -9 -15 -9 -8 0 -15 -4 -15
-10 0 -5 15 -7 33 -5 32 5 32 5 7 -7 -15 -7 -33 -19 -40 -26 -8 -7 -24 -19
-35 -27 -34 -23 -8 -29 29 -6 31 19 47 21 148 20 106 -2 173 5 182 20 2 3 -3
13 -12 21 -14 13 -15 12 -9 -3 5 -14 1 -17 -26 -16 -18 1 -43 5 -57 9 -22 7
-22 8 -5 10 11 1 29 1 40 0 16 -2 17 0 6 14 -12 14 -10 16 17 16 18 0 35 -7
40 -16 7 -12 14 -14 26 -7 16 9 16 10 0 24 -13 10 -50 14 -149 14 -72 0 -139
-1 -148 -3z m190 -68 c-10 -10 -87 -13 -87 -3 0 5 21 9 47 9 25 0 44 -3 40 -6z"/>
<path d="M2770 2694 c0 -13 58 -69 65 -63 2 3 -11 21 -30 39 -19 19 -35 29
-35 24z"/>
<path d="M1985 2611 c-85 -80 -144 -110 -236 -118 -41 -4 -66 -10 -62 -16 11
-18 135 0 189 28 52 27 188 150 182 165 -2 5 -35 -22 -73 -59z"/>
<path d="M2390 2650 c0 -6 7 -13 15 -16 22 -9 18 -23 -4 -17 -14 4 -19 -2 -23
-26 -2 -16 -1 -28 4 -25 4 3 8 11 8 19 0 7 11 16 25 19 14 4 25 10 25 14 -1
12 -50 44 -50 32z"/>
<path d="M2763 2607 c20 -27 33 -38 35 -29 4 14 -45 72 -60 72 -4 0 7 -19 25
-43z"/>
<path d="M1316 2613 c-4 -4 -44 -10 -89 -14 l-82 -7 82 2 c50 0 87 6 95 14 6
6 10 12 7 12 -3 0 -9 -3 -13 -7z"/>
<path d="M1445 2600 c17 -27 96 -50 174 -50 44 0 82 3 85 8 2 4 -31 8 -73 8
-55 1 -91 8 -125 23 -53 23 -70 26 -61 11z"/>
<path d="M2720 2520 c0 -5 8 -6 17 -3 13 5 15 3 9 -12 -4 -11 -4 -16 0 -12 4
4 13 -1 20 -11 12 -15 13 -15 14 -1 0 18 -30 49 -48 49 -7 0 -12 -4 -12 -10z"/>
<path d="M2693 2426 c12 -18 24 -29 25 -24 5 11 -26 58 -38 58 -5 0 1 -15 13
-34z"/>
<path d="M2253 2443 c-20 -7 -15 -19 12 -31 33 -15 55 -15 55 -1 0 6 -7 8 -16
5 -11 -4 -18 1 -21 14 -5 21 -9 22 -30 13z"/>
<path d="M1003 2432 c-37 -6 -26 -19 15 -19 25 0 53 -10 81 -29 51 -33 69 -37
136 -29 32 4 60 15 79 31 40 35 29 38 -29 8 -62 -32 -126 -29 -182 8 -43 28
-68 35 -100 30z"/>
<path d="M1767 2419 c13 -13 122 -26 110 -13 -4 5 -24 7 -43 5 -19 -1 -34 2
-34 8 0 6 -10 11 -22 11 -16 0 -19 -3 -11 -11z"/>
<path d="M1926 2422 c-4 -7 -5 -15 -3 -19 3 -5 8 -50 11 -101 9 -116 -5 -189
-50 -263 -66 -110 -70 -124 -115 -409 -6 -36 -12 -75 -15 -87 -2 -13 0 -23 5
-23 5 0 14 30 21 68 7 37 17 72 24 77 13 11 14 25 3 42 -4 6 -3 14 3 18 6 4 8
11 5 16 -4 5 0 9 7 9 10 0 10 2 0 8 -9 6 -10 16 -1 40 9 27 15 31 35 26 15 -4
24 -2 24 5 0 7 -6 11 -12 10 -34 -4 -40 1 -33 29 9 37 23 51 35 32 5 -8 12
-11 16 -7 4 4 0 15 -10 26 -16 18 -15 23 31 112 l48 93 -2 126 c-3 128 -13
194 -27 172z"/>
<path d="M2625 2390 c-4 -6 3 -10 13 -10 11 0 30 -9 43 -20 21 -17 21 -19 4
-14 -15 5 -17 4 -9 -5 10 -11 44 -6 44 8 0 18 -86 55 -95 41z"/>
<path d="M2430 2372 c-8 -9 -20 -27 -27 -39 -10 -20 -9 -23 5 -23 11 0 21 14
29 37 14 44 13 46 -7 25z"/>
<path d="M2616 2331 c-3 -5 1 -14 9 -21 13 -11 14 -10 9 6 -7 18 -7 18 13 2
27 -24 40 -23 18 2 -19 21 -40 26 -49 11z"/>
<path d="M2370 2287 c0 -9 -4 -17 -9 -17 -5 0 -8 -12 -8 -26 0 -15 -7 -30 -14
-35 -11 -7 -9 -9 6 -9 16 0 24 10 32 43 7 26 8 46 2 52 -6 5 -9 3 -9 -8z"/>
<path d="M1777 2277 c3 -5 8 -6 11 -3 3 3 11 1 18 -5 14 -11 34 -4 34 11 0 5
-15 8 -34 7 -19 -1 -32 -6 -29 -10z"/>
<path d="M813 2093 c-44 -8 -22 -18 36 -16 76 2 101 -17 108 -82 6 -50 -11
-63 -27 -21 -5 14 -17 29 -27 34 -28 14 -103 24 -103 13 0 -5 20 -13 45 -17
51 -7 75 -32 75 -75 0 -39 -23 -55 -52 -35 -28 20 -117 21 -144 2 -30 -22 -11
-28 31 -10 46 19 100 11 115 -17 6 -11 15 -17 21 -14 5 4 9 1 9 -4 0 -14 27
-14 35 -1 3 6 -1 7 -9 4 -20 -8 -20 5 -1 30 8 11 15 29 15 40 0 36 14 6 17
-36 6 -94 109 -196 238 -235 17 -5 29 -15 27 -21 -1 -7 5 -12 14 -12 13 0 14
-9 9 -57 -3 -31 -11 -63 -17 -71 -7 -8 -17 -24 -23 -36 -7 -14 -18 -20 -33
-18 -13 2 -22 -2 -22 -9 0 -10 -3 -10 -12 -1 -14 14 -28 15 -47 3 -12 -8 -12
-12 3 -26 20 -21 34 -12 16 10 -10 12 -10 15 3 15 9 0 21 -8 26 -17 6 -10 11
-12 11 -5 0 6 7 12 16 12 15 0 6 -17 -43 -79 -1 -2 -12 4 -23 14 -30 27 -36
11 -7 -20 l24 -27 57 58 c31 32 56 62 56 67 0 5 9 22 20 37 11 16 23 49 26 74
10 72 -12 105 -94 139 -84 34 -156 87 -179 129 -12 23 -18 61 -20 125 -4 145
-43 180 -170 156z"/>
<path d="M2100 2001 c0 -15 38 -51 53 -50 9 0 9 2 -1 6 -6 2 -10 9 -6 14 3 5
1 9 -5 9 -5 0 -17 7 -25 16 -9 8 -16 11 -16 5z"/>
<path d="M2605 1870 c-3 -4 0 -10 7 -12 8 -3 15 -33 18 -81 4 -62 2 -78 -10
-82 -12 -5 -12 -7 -1 -15 9 -5 11 -14 6 -26 -5 -11 -10 -30 -11 -43 -2 -13 -8
-29 -14 -35 -5 -5 -10 -20 -10 -32 0 -32 -10 -55 -21 -48 -6 3 -7 -4 -4 -18 3
-13 -1 -37 -9 -53 -9 -17 -16 -37 -16 -45 0 -8 -9 -33 -20 -55 -11 -22 -19
-45 -20 -51 0 -6 -11 -28 -25 -49 -14 -20 -29 -50 -32 -66 -3 -15 -14 -36 -24
-45 -11 -9 -19 -21 -19 -26 0 -4 -15 -29 -34 -55 -18 -27 -41 -64 -51 -83 -26
-51 -130 -183 -221 -280 -24 -25 -51 -54 -61 -66 -28 -31 -190 -155 -260 -199
-9 -5 -24 -17 -34 -25 -40 -34 -50 -41 -76 -52 -15 -7 -49 -27 -74 -45 -26
-18 -52 -33 -58 -33 -7 0 -22 -10 -34 -23 -12 -13 -51 -40 -86 -61 -53 -31
-66 -35 -79 -24 -13 11 -15 10 -10 -3 3 -9 3 -20 0 -26 -8 -12 -66 -43 -82
-43 -16 0 -12 27 6 34 9 4 14 9 11 12 -3 4 -20 -5 -37 -20 -17 -14 -27 -26
-21 -26 6 0 11 -4 11 -10 0 -5 -7 -6 -17 -3 -11 4 -14 3 -9 -5 4 -7 1 -12 -9
-12 -10 0 -13 5 -9 12 6 10 4 10 -8 0 -9 -7 -18 -22 -21 -32 -7 -29 24 -26 97
9 34 16 63 28 66 27 3 0 19 9 37 22 17 12 36 22 42 22 6 0 11 4 11 10 0 5 11
12 24 16 14 3 32 14 42 25 9 10 23 19 30 19 7 0 14 3 16 8 6 13 98 72 123 78
14 3 25 12 25 19 0 8 13 16 29 20 16 3 37 15 47 26 9 10 23 19 31 19 7 0 13 6
13 14 0 7 14 19 31 26 17 7 50 30 72 51 23 21 48 39 55 39 7 0 15 6 18 13 2 7
27 26 54 42 28 16 50 33 50 38 0 14 73 87 87 87 7 0 13 4 13 8 0 11 29 49 60
79 14 14 25 28 25 31 0 8 29 43 62 79 13 13 22 27 21 31 -3 14 16 47 33 60 10
6 23 28 29 47 6 19 16 35 21 35 5 0 9 5 9 11 0 6 11 24 25 41 14 16 25 36 25
43 0 8 9 20 19 27 21 15 30 46 18 66 -6 8 -2 12 12 12 16 0 21 6 21 24 0 14 5
28 11 31 6 4 8 13 5 21 -3 8 -1 14 4 14 6 0 10 9 10 20 0 11 5 20 10 20 6 0
10 6 9 13 -3 15 22 69 36 80 6 4 5 11 -5 17 -10 6 -11 10 -2 10 7 0 12 15 12
41 0 27 6 47 18 58 10 10 18 34 20 61 1 25 5 52 9 60 11 25 10 64 -1 79 -9 12
-6 13 19 7 36 -9 55 -24 55 -42 0 -8 7 -14 15 -14 8 0 15 -5 15 -11 0 -6 6
-16 13 -24 28 -30 47 -56 47 -65 0 -6 4 -10 8 -10 16 0 10 -89 -6 -95 -13 -5
-12 -8 4 -21 18 -15 18 -15 -3 -11 -15 3 -20 1 -16 -9 3 -8 12 -14 19 -14 12
0 12 -4 4 -21 -7 -11 -9 -27 -6 -34 3 -8 1 -17 -3 -19 -5 -3 -8 -17 -8 -30 0
-13 -8 -38 -16 -55 -9 -17 -21 -56 -28 -87 -7 -31 -18 -58 -25 -61 -7 -2 -10
-11 -7 -19 3 -8 1 -20 -5 -27 -6 -6 -12 -28 -14 -47 -2 -19 -9 -36 -15 -36
-26 -3 -28 -5 -14 -13 12 -8 10 -16 -12 -44 -16 -21 -24 -42 -21 -51 3 -9 2
-16 -4 -16 -10 0 -22 -29 -26 -64 -2 -11 -8 -22 -15 -24 -6 -2 -9 -8 -5 -13 3
-5 1 -9 -4 -9 -5 0 -14 -18 -21 -40 -7 -22 -16 -38 -21 -35 -6 4 -10 -5 -10
-18 0 -13 -13 -41 -30 -63 -16 -21 -30 -43 -30 -48 0 -8 -43 -65 -107 -145
-16 -19 -30 -38 -32 -44 -2 -5 -22 -28 -45 -51 -22 -23 -52 -55 -66 -72 -14
-16 -40 -41 -57 -54 -18 -13 -33 -27 -33 -32 0 -4 -13 -21 -30 -38 -16 -17
-30 -35 -30 -40 0 -5 -9 -12 -20 -15 -11 -3 -20 -11 -20 -16 0 -13 -26 -39
-38 -39 -5 0 -12 -9 -15 -19 -4 -18 -2 -18 16 -8 12 7 77 66 145 132 165 159
308 330 378 452 16 26 31 50 34 53 8 7 130 267 130 277 0 5 9 27 19 49 30 61
108 301 126 387 10 47 16 104 13 143 -3 45 0 64 8 64 14 0 28 -98 20 -138 -3
-15 -8 -43 -11 -62 -17 -104 -60 -238 -132 -420 -121 -303 -235 -480 -468
-728 -91 -97 -132 -138 -168 -165 -16 -12 -34 -27 -41 -33 -6 -6 -18 -13 -26
-17 -8 -3 0 -6 18 -6 20 -1 35 5 38 14 4 8 12 15 19 15 6 0 20 9 30 20 10 11
23 20 29 20 6 0 34 26 61 57 28 31 68 74 90 95 22 21 37 38 34 38 -3 0 23 30
58 67 35 37 69 80 76 95 6 16 17 26 23 24 13 -5 37 41 29 54 -3 5 4 11 15 15
11 3 20 14 20 24 0 10 13 32 30 49 18 19 27 38 24 47 -4 9 0 15 10 15 9 0 18
12 22 28 4 15 12 36 19 47 18 29 75 163 87 203 5 18 13 30 18 27 6 -3 7 0 5 8
-3 7 1 27 10 43 8 16 15 37 15 48 0 10 5 16 13 13 8 -3 12 6 11 27 0 17 5 41
12 52 7 12 14 42 15 67 2 30 8 48 17 52 8 3 12 8 9 12 -4 3 -2 12 4 20 9 9 8
13 0 13 -22 0 -10 20 22 35 17 8 24 13 14 10 -26 -7 -40 4 -27 20 7 8 9 19 5
25 -3 5 -1 25 6 44 10 29 10 40 -3 67 -9 18 -14 38 -11 46 7 17 38 17 56 -2
13 -13 16 -13 21 1 3 9 6 19 6 24 0 9 -44 28 -103 44 -31 9 -43 20 -65 61 -34
62 -153 165 -182 158 -15 -4 -19 -1 -15 10 7 16 -21 32 -30 17z"/>
<path d="M653 1835 c-7 -8 -8 -16 -2 -22 6 -6 4 -26 -4 -54 -8 -26 -10 -58 -6
-77 9 -42 2 -70 -20 -75 -14 -4 -14 -5 2 -6 12 -1 17 -9 17 -29 0 -15 7 -38
16 -51 11 -16 15 -35 11 -62 -3 -21 -3 -39 -1 -39 2 0 19 8 39 17 26 13 41 14
53 7 9 -6 38 -9 64 -7 31 2 51 -2 61 -11 8 -8 17 -13 20 -10 3 4 12 2 19 -2 7
-5 19 -9 27 -11 8 -1 25 -14 37 -28 13 -15 28 -25 34 -23 18 6 -41 59 -90 81
-34 15 -68 20 -142 21 -93 1 -98 2 -98 23 0 12 -3 28 -6 37 -5 13 3 16 47 16
30 -1 72 -5 94 -9 196 -42 230 -44 263 -18 10 8 10 14 -2 32 -10 16 -13 39 -9
83 4 43 2 62 -6 62 -11 0 -14 -20 -13 -88 0 -26 -3 -32 -16 -29 -9 2 -16 8
-15 14 2 7 5 31 8 55 l5 43 -15 -44 c-18 -54 -19 -54 -44 -46 -20 6 -20 8 -6
35 16 32 20 100 6 100 -15 0 -22 33 -9 41 6 4 -5 6 -25 5 -21 -2 -41 -7 -45
-11 -4 -4 3 -4 16 0 19 5 25 2 29 -14 3 -12 8 -21 12 -21 11 0 11 -81 0 -102
-8 -15 -14 -16 -30 -7 -14 7 -17 14 -11 22 14 18 23 77 12 77 -5 0 -12 -12
-16 -27 -10 -49 -13 -53 -29 -46 -12 4 -15 12 -10 27 13 39 12 86 -1 86 -8 0
-14 -17 -16 -46 l-3 -45 -70 -3 c-38 -2 -83 -1 -99 2 -28 5 -28 6 -21 51 12
69 15 130 7 135 -4 2 -12 -2 -19 -9z m41 -191 c25 -10 19 -34 -9 -34 -24 0
-34 18 -18 33 8 8 8 8 27 1z m197 -32 c30 -16 76 -37 103 -47 76 -29 37 -29
-53 -1 -44 14 -108 30 -142 35 -67 11 -74 14 -64 30 13 22 100 12 156 -17z
m-20 -48 c63 -15 131 -30 152 -33 39 -6 51 -24 19 -29 -10 -2 -71 9 -136 23
-65 14 -146 25 -182 25 -47 0 -64 4 -64 13 0 8 3 17 7 20 13 14 94 6 204 -19z"/>
<path d="M700 1785 c0 -51 14 -125 23 -125 12 0 0 121 -14 135 -6 5 -9 2 -9
-10z"/>
<path d="M1266 1752 c-10 -9 5 -22 27 -22 12 0 35 -12 50 -26 26 -24 28 -31
26 -92 -3 -91 -10 -143 -19 -137 -4 3 -11 -2 -14 -11 -9 -24 -8 -27 15 -21 16
4 19 2 14 -11 -6 -14 -9 -27 -14 -51 -1 -2 -8 2 -16 9 -23 19 -31 3 -10 -20
15 -17 16 -23 6 -33 -10 -9 -16 -7 -28 11 -9 12 -19 22 -24 22 -16 0 -9 -22
13 -39 13 -11 18 -23 14 -30 -6 -9 -13 -7 -27 8 -19 21 -39 28 -39 14 0 -3 7
-15 16 -25 14 -14 14 -20 4 -33 -10 -12 -10 -15 3 -15 9 0 20 -8 26 -17 5 -10
13 -14 18 -10 4 5 0 13 -9 18 -14 8 -12 13 17 43 43 45 61 99 74 231 12 127 7
176 -23 203 -22 20 -91 43 -100 34z"/>
<path d="M1918 1705 c8 -14 6 -22 -6 -32 -15 -11 -15 -12 6 -13 26 0 29 18 6
46 -15 19 -15 19 -6 -1z"/>
<path d="M2191 1631 c-10 -18 -6 -31 10 -31 3 0 9 11 11 25 6 29 -7 33 -21 6z"/>
<path d="M2230 1640 c0 -5 14 -10 31 -10 17 0 28 4 24 10 -3 6 -17 10 -31 10
-13 0 -24 -4 -24 -10z"/>
<path d="M1119 1639 c0 -2 -2 -13 -4 -24 -2 -11 -7 -32 -10 -46 -6 -25 -5 -26
20 -21 20 3 30 0 37 -13 8 -14 12 -15 19 -4 17 27 10 40 -18 37 -25 -3 -28 0
-28 29 0 17 -3 35 -7 39 -5 4 -8 5 -9 3z"/>
<path d="M2076 1618 c-20 -22 -14 -47 15 -57 12 -3 11 -1 -1 14 -11 14 -12 19
-2 22 6 3 12 12 12 20 0 9 6 13 15 9 8 -3 15 -1 15 4 0 17 -34 9 -54 -12z"/>
<path d="M1880 1594 c0 -1 13 -12 28 -23 l29 -20 -2 22 c-1 16 -8 22 -28 23
-15 1 -27 0 -27 -2z"/>
<path d="M1865 1524 c0 -18 5 -24 23 -24 12 0 22 5 22 11 0 5 5 7 11 3 7 -4
10 1 7 11 -4 24 -26 31 -24 9 0 -9 -5 -19 -12 -21 -7 -3 -10 1 -6 10 3 8 -1
17 -8 19 -8 4 -13 -3 -13 -18z"/>
<path d="M2164 1478 c-105 -208 -240 -399 -317 -448 -57 -36 -178 -78 -250
-86 -59 -7 -79 -24 -28 -24 16 0 32 -6 34 -12 3 -8 6 -6 6 5 1 10 10 17 24 18
31 2 29 2 57 -6 17 -4 21 -3 11 3 -17 12 -6 19 52 27 26 4 47 12 47 17 0 5 4
7 9 4 5 -3 21 6 35 19 15 14 33 25 40 25 8 0 16 7 20 15 3 8 17 20 31 27 15 7
24 17 21 25 -3 7 3 19 14 25 11 7 20 19 20 26 0 7 7 15 15 18 8 4 15 15 15 25
0 10 6 19 14 19 9 0 12 7 9 20 -4 13 0 20 10 20 8 0 18 12 21 26 4 14 19 44
34 67 29 46 85 159 96 195 14 44 -4 21 -40 -50z"/>
<path d="M2236 1541 c-10 -16 18 -61 34 -55 8 4 23 6 33 6 9 0 15 3 12 9 -4 5
-20 9 -36 9 -26 0 -29 3 -24 20 6 20 -9 28 -19 11z"/>
<path d="M2070 1528 c0 -19 38 -54 47 -44 4 4 1 11 -6 15 -8 5 -10 14 -6 22 5
8 5 11 0 7 -4 -4 -14 -3 -22 3 -10 9 -13 8 -13 -3z"/>
<path d="M1130 1489 c0 -6 6 -9 13 -6 6 2 22 0 35 -4 16 -6 22 -5 22 6 0 10
-11 15 -35 15 -19 0 -35 -5 -35 -11z"/>
<path d="M1690 1490 c0 -5 -8 -6 -17 -3 -17 7 -17 6 -1 -11 10 -9 22 -14 28
-11 13 8 13 35 0 35 -5 0 -10 -4 -10 -10z"/>
<path d="M2080 1460 c0 -5 -7 -7 -15 -4 -9 4 -15 0 -15 -9 0 -8 -5 -17 -12
-19 -17 -6 -18 -35 -1 -35 7 0 12 6 9 12 -4 11 32 41 46 37 4 -1 5 5 2 13 -7
17 -14 20 -14 5z"/>
<path d="M1020 1299 c0 -5 6 -9 14 -9 8 0 22 -3 32 -7 11 -4 15 -2 12 7 -5 15
-58 23 -58 9z"/>
<path d="M686 1275 c-18 -27 -20 -35 -8 -35 4 0 15 14 24 30 20 36 7 40 -16 5z"/>
<path d="M1180 1295 c0 -3 9 -24 20 -45 21 -41 37 -52 37 -25 0 8 -3 15 -6 15
-3 0 -12 14 -19 30 -12 26 -32 41 -32 25z"/>
<path d="M746 1268 c-11 -44 -5 -65 9 -28 17 43 17 50 6 50 -5 0 -11 -10 -15
-22z"/>
<path d="M1956 1255 c-19 -19 -19 -24 -6 -45 8 -12 10 -11 10 6 0 11 5 25 12
32 6 6 9 14 6 17 -3 3 -13 -1 -22 -10z"/>
<path d="M910 1230 c0 -16 5 -30 10 -30 6 0 10 14 10 30 0 17 -4 30 -10 30 -5
0 -10 -13 -10 -30z"/>
<path d="M1016 1248 c5 -8 2 -9 -9 -5 -14 5 -16 2 -11 -21 9 -36 14 -40 14
-11 0 23 1 22 20 -8 11 -18 25 -33 31 -33 8 0 8 4 -1 15 -6 8 -9 19 -5 25 3 5
2 10 -3 10 -5 0 -12 9 -15 20 -3 11 -10 20 -17 20 -6 0 -8 -5 -4 -12z"/>
<path d="M1085 1250 c-4 -6 -11 -7 -17 -4 -8 5 -9 -1 -5 -17 4 -13 7 -27 7
-31 0 -5 7 -8 15 -8 18 0 20 -17 3 -22 -14 -5 -1 -28 15 -27 8 0 8 2 -1 6 -10
4 -10 8 -2 18 9 10 7 20 -6 39 -13 21 -14 29 -4 41 7 8 10 15 7 15 -3 0 -9 -5
-12 -10z"/>
<path d="M1120 1240 c10 -18 9 -25 -1 -32 -11 -8 -10 -9 4 -4 12 4 17 0 17
-14 0 -22 15 -34 30 -25 8 5 7 11 -1 21 -14 17 2 19 32 4 13 -8 25 -8 37 0 13
8 13 10 2 9 -30 -4 -89 13 -94 28 -5 11 -2 13 11 9 12 -5 14 -4 8 2 -5 5 -21
13 -33 17 -22 6 -23 5 -12 -15z"/>
<path d="M2090 1195 c10 -12 10 -15 -4 -15 -9 0 -16 -4 -16 -10 0 -5 -7 -10
-15 -10 -8 0 -15 -7 -15 -15 0 -14 3 -14 25 1 13 8 30 12 36 8 8 -5 9 -3 4 6
-5 9 -2 10 14 5 12 -4 21 -2 21 4 0 6 -7 11 -15 11 -8 0 -15 7 -15 15 0 8 -7
15 -16 15 -14 0 -14 -3 -4 -15z"/>
<path d="M1845 1179 c-4 -11 -16 -19 -28 -20 -19 0 -18 -2 6 -11 42 -15 75 -4
70 25 -6 29 -40 33 -48 6z"/>
<path d="M1784 1065 c-23 -25 -22 -37 2 -28 8 3 11 9 8 14 -3 5 -1 9 3 9 5 0
18 7 29 15 19 14 19 14 -1 14 -11 -1 -30 -12 -41 -24z"/>
<path d="M1680 1045 c0 -9 -12 -18 -30 -21 -34 -7 -41 -24 -10 -24 11 0 29 9
40 20 22 22 26 40 10 40 -5 0 -10 -7 -10 -15z"/>
<path d="M1433 988 c-1 -10 3 -18 8 -18 6 0 8 4 4 9 -3 6 3 9 14 8 18 -1 19
-27 0 -27 -5 0 -9 -5 -9 -10 0 -7 6 -7 20 0 11 6 20 19 20 30 0 10 6 20 13 23
6 2 -6 4 -29 3 -31 0 -40 -5 -41 -18z"/>
<path d="M758 945 c-6 -14 -15 -25 -20 -25 -4 0 -8 -8 -8 -18 0 -10 -5 -23
-12 -30 -7 -7 -9 -12 -5 -12 4 0 3 -6 -3 -12 -27 -34 -80 -122 -80 -134 0 -8
-7 -17 -15 -20 -9 -4 -24 -25 -35 -48 -24 -51 -40 -70 -63 -79 -10 -4 -15 -11
-12 -17 4 -6 -11 -36 -32 -68 -21 -31 -51 -83 -67 -114 -16 -32 -31 -58 -35
-58 -7 0 -41 -70 -41 -84 0 -4 -9 -19 -20 -33 -11 -14 -20 -33 -20 -41 0 -9
-7 -23 -16 -33 -20 -22 -32 -109 -15 -109 6 0 14 12 17 28 10 41 60 148 73
156 6 4 9 12 5 17 -3 6 1 18 9 27 8 9 27 42 42 72 15 30 31 57 34 60 4 3 29
41 56 85 27 44 96 152 153 240 100 153 142 230 142 261 0 23 -19 16 -32 -11z"/>
<path d="M1774 934 c3 -8 6 -17 6 -20 0 -2 6 -1 14 2 7 3 16 -2 19 -10 9 -24
56 -1 57 27 0 4 -10 5 -23 2 -12 -4 -35 -1 -51 5 -24 9 -27 8 -22 -6z"/>
<path d="M1666 888 c-12 -39 -11 -55 2 -67 13 -12 14 -12 10 0 -3 8 4 27 15
43 12 16 16 26 9 22 -7 -4 -12 -2 -12 3 0 15 -20 14 -24 -1z"/>
<path d="M1717 870 c-3 -11 -1 -20 5 -20 5 0 7 -4 4 -9 -4 -5 3 -7 13 -4 13 3
21 -1 24 -14 5 -17 5 -17 6 1 1 11 6 16 14 13 8 -3 14 1 14 8 0 9 -10 12 -29
10 -15 -2 -28 1 -28 6 0 5 5 9 11 9 5 0 7 5 4 10 -10 17 -32 11 -38 -10z"/>
<path d="M680 705 c-30 -47 -74 -115 -97 -151 -24 -36 -43 -67 -43 -69 0 -2
-13 -23 -29 -47 -34 -51 -147 -253 -177 -318 -45 -96 -52 -120 -34 -120 6 0
10 5 10 11 0 6 7 17 15 25 8 9 18 27 22 42 3 14 15 35 25 46 10 11 18 31 18
45 0 21 2 23 10 11 8 -12 10 -9 10 13 0 15 5 27 10 27 6 0 10 6 10 14 0 7 7
19 15 26 9 7 14 19 11 27 -3 7 -1 13 4 13 5 0 7 7 3 16 -4 10 1 17 16 21 12 3
21 13 21 24 0 18 65 89 83 89 5 0 6 -10 2 -22 -3 -13 -7 -29 -7 -36 -1 -7 -6
-11 -12 -9 -7 3 -11 -10 -12 -32 -1 -20 1 -28 3 -18 3 9 9 15 14 12 5 -4 5
-14 -1 -26 -6 -11 -14 -18 -18 -15 -4 2 -8 -21 -8 -52 -1 -54 -12 -207 -14
-207 -1 0 -3 -10 -4 -23 -2 -13 3 -22 11 -22 7 0 13 6 13 13 0 6 5 55 11 107
6 52 12 106 14 120 1 14 5 36 8 50 3 14 16 71 28 128 12 56 26 102 31 102 4 0
8 8 8 18 0 30 45 142 98 245 2 4 0 7 -5 7 -5 0 -33 -38 -63 -85z"/>
</g>
</svg>
