<?xml version="1.0" standalone="no"?>
<!DOCTYPE svg PUBLIC "-//W3C//DTD SVG 20010904//EN"
 "http://www.w3.org/TR/2001/REC-SVG-20010904/DTD/svg10.dtd">
<svg version="1.0" xmlns="http://www.w3.org/2000/svg"
 width="360" height="540" viewBox="0 0 300.000000 450.000000"
 preserveAspectRatio="xMidYMid meet" style="background-color:white">
<g transform="translate(0.000000,450.000000) scale(0.100000,-0.100000)"
fill="#000000" stroke="none">
<path d="M1590 3859 c-115 -7 -136 -11 -222 -40 -31 -10 -66 -19 -76 -19 -10
0 -22 -4 -28 -8 -5 -5 -31 -17 -59 -26 -57 -21 -153 -62 -175 -76 -8 -5 -28
-17 -45 -26 -16 -9 -40 -25 -53 -35 -22 -17 -22 -18 -4 -28 15 -8 21 -6 31 12
15 26 130 87 166 87 14 0 24 5 23 10 -3 11 164 74 237 90 22 5 51 13 65 18 14
5 31 7 38 5 6 -3 12 0 12 5 0 14 240 15 331 1 41 -6 90 -13 109 -14 116 -11
154 -23 300 -94 88 -43 213 -138 206 -158 -3 -8 2 -13 12 -13 17 0 69 -67 64
-83 -1 -5 6 -11 16 -14 11 -2 26 -17 33 -31 8 -15 18 -31 22 -37 4 -5 18 -30
31 -55 26 -49 53 -68 41 -29 -4 13 -20 45 -36 72 -16 26 -29 51 -29 55 0 4
-19 28 -43 54 -23 26 -49 57 -57 69 -8 12 -19 26 -25 31 -101 90 -151 125
-256 176 -119 57 -196 75 -449 100 -41 4 -122 4 -180 1z"/>
<path d="M818 3531 c-123 -105 -204 -238 -224 -366 -8 -58 -41 -127 -94 -198
-38 -51 -58 -62 -76 -44 -4 4 -14 7 -23 7 -13 -1 -13 -2 2 -11 9 -6 14 -15 11
-21 -5 -7 2 -9 22 -4 l29 7 -23 -16 c-18 -13 -26 -14 -37 -5 -17 14 -35 5 -35
-17 0 -12 -7 -14 -36 -10 -24 4 -34 2 -32 -5 6 -16 56 -29 64 -16 3 5 11 7 18
5 6 -3 20 1 31 9 31 23 35 17 29 -41 -5 -42 -2 -61 10 -80 9 -13 16 -31 16
-38 0 -8 7 -21 16 -28 15 -12 16 -10 9 21 -4 19 -12 41 -19 49 -6 8 -11 40
-11 72 -1 54 1 59 25 64 34 8 230 3 230 -5 0 -8 69 -30 94 -30 10 0 16 6 13
13 -2 7 -16 11 -35 9 -24 -3 -32 1 -32 12 0 9 -8 17 -17 17 -10 1 -29 3 -43 5
-14 2 -60 5 -103 8 -44 2 -83 8 -89 14 -11 11 3 43 33 76 11 11 19 25 19 32 0
6 6 17 13 23 14 11 37 77 43 122 4 34 63 180 80 200 8 8 14 19 14 22 0 12 93
106 148 150 28 23 52 45 52 49 0 19 -30 3 -92 -51z"/>
<path d="M2660 3241 c0 -5 7 -14 15 -21 8 -6 17 -22 21 -33 12 -43 38 -97 46
-97 14 0 8 29 -17 82 -14 28 -25 58 -25 65 0 7 -9 13 -20 13 -11 0 -20 -4 -20
-9z"/>
<path d="M858 3179 c-29 -11 -62 -23 -73 -28 -11 -5 -31 -13 -44 -16 -12 -4
-19 -11 -15 -15 5 -4 60 9 123 30 86 28 107 38 88 42 -14 3 -50 -3 -79 -13z"/>
<path d="M1035 3181 c-8 -13 6 -20 51 -26 88 -11 118 -18 135 -34 10 -10 42
-23 71 -30 29 -8 58 -17 64 -22 6 -5 44 -11 85 -14 58 -5 70 -4 56 5 -10 7
-28 9 -40 6 -21 -5 -102 18 -122 36 -5 4 -17 8 -27 8 -10 0 -18 5 -18 11 0 6
-7 9 -15 5 -8 -3 -15 -2 -15 3 0 16 -80 41 -131 41 -28 0 -59 5 -69 10 -12 6
-21 6 -25 1z"/>
<path d="M2222 3138 c3 -7 17 -14 32 -15 23 -2 26 0 16 13 -15 17 -53 19 -48
2z"/>
<path d="M2355 3140 l-30 -7 28 -8 c17 -4 33 -3 39 3 14 14 -2 20 -37 12z"/>
<path d="M1500 3114 c0 -8 7 -14 15 -14 9 0 12 -6 9 -17 -5 -14 -4 -15 4 -4 7
9 12 10 16 2 4 -6 17 -11 29 -10 20 1 20 2 -3 8 -14 4 -24 12 -23 17 1 5 -9
14 -23 21 -19 9 -24 8 -24 -3z"/>
<path d="M975 3100 l-50 -7 55 -2 c66 -3 107 -8 140 -17 14 -4 29 -6 34 -5 4
1 13 -2 20 -7 6 -5 28 -15 48 -21 20 -7 61 -25 90 -41 52 -29 108 -39 108 -20
0 5 -19 14 -42 20 -24 6 -63 21 -88 34 -25 13 -63 29 -85 36 -22 7 -44 16 -50
20 -5 3 -26 7 -45 8 -19 1 -46 4 -60 6 -14 1 -47 0 -75 -4z"/>
<path d="M723 3062 c-46 -15 -83 -32 -83 -39 0 -7 9 -9 22 -5 16 4 19 2 13 -9
-5 -8 0 -6 12 4 11 10 54 31 94 47 94 37 53 38 -58 2z"/>
<path d="M2744 3054 c31 -130 33 -176 12 -277 -5 -20 -12 -40 -17 -43 -5 -3
-9 -14 -9 -25 0 -11 -7 -19 -17 -19 -15 0 -16 -2 -3 -10 12 -8 13 -12 2 -19
-8 -4 -12 -19 -10 -32 3 -24 4 -24 20 6 20 35 37 72 48 100 4 11 12 32 18 46
15 37 7 207 -12 251 -20 48 -42 62 -32 22z"/>
<path d="M944 3028 c-16 -4 -34 -6 -41 -3 -7 2 -15 0 -19 -6 -3 -5 -14 -7 -24
-4 -10 3 -49 -4 -86 -16 -38 -12 -75 -23 -83 -25 -9 -3 -11 -8 -5 -14 7 -7 36
-1 85 15 53 19 104 28 181 32 95 5 115 3 175 -18 38 -13 75 -28 83 -34 23 -18
49 -25 55 -15 6 9 -102 64 -150 75 -60 14 -143 21 -171 13z"/>
<path d="M2670 3010 c0 -6 -11 -8 -26 -4 l-26 7 24 -24 c20 -21 23 -22 26 -6
2 9 10 17 18 17 8 0 14 5 14 10 0 6 -7 10 -15 10 -8 0 -15 -5 -15 -10z"/>
<path d="M1575 2928 c-64 -22 -75 -28 -75 -41 0 -11 -15 -14 -57 -13 -36 0
-58 -4 -61 -12 -2 -7 -8 -9 -14 -6 -5 3 -24 7 -41 9 -18 2 -56 6 -85 9 -60 7
-119 -5 -154 -33 l-23 -19 28 -13 c21 -9 30 -10 39 -1 9 9 6 12 -13 12 -23 1
-23 1 -4 12 28 16 388 18 443 2 24 -8 42 -9 42 -4 0 6 -9 10 -19 10 -11 0 -23
5 -26 10 -3 6 -2 10 3 10 15 0 86 -31 92 -41 3 -4 12 -4 19 0 11 7 7 13 -15
25 -22 11 -24 15 -10 16 15 0 16 3 6 15 -7 8 -8 15 -3 15 6 0 8 11 5 25 -5 27
-24 31 -77 13z m25 -28 c0 -12 -14 -18 -45 -22 -28 -4 -31 16 -3 24 35 9 48 9
48 -2z"/>
<path d="M1692 2878 c2 -16 11 -24 28 -25 25 -3 25 -3 3 7 -13 5 -23 12 -23
16 0 11 54 -7 73 -23 15 -15 17 -15 17 0 0 9 -18 21 -47 31 -58 20 -55 20 -51
-6z"/>
<path d="M773 2878 c2 -7 12 -13 22 -13 10 0 20 6 23 13 2 7 -6 12 -23 12 -17
0 -25 -5 -22 -12z"/>
<path d="M2515 2870 c-3 -5 0 -11 7 -11 7 -1 23 -3 36 -4 27 -3 17 10 -15 19
-12 4 -24 2 -28 -4z"/>
<path d="M2362 2850 c-18 -10 -29 -21 -24 -24 11 -7 83 29 75 38 -9 9 -14 7
-51 -14z"/>
<path d="M538 2818 c-21 -6 -38 -14 -38 -20 0 -5 9 -6 23 -1 12 4 53 7 90 7
44 -1 65 2 58 9 -14 14 -89 17 -133 5z"/>
<path d="M1418 2815 c-3 -3 -45 -7 -94 -9 -61 -3 -100 -10 -124 -22 -48 -25
-120 -81 -113 -88 7 -7 36 9 67 37 51 48 216 74 304 48 18 -5 33 -10 35 -10 5
0 65 -24 91 -37 16 -8 32 -12 34 -9 7 6 -29 34 -44 35 -5 0 -29 9 -52 20 -22
11 -50 20 -62 20 -11 0 -20 5 -20 10 0 11 -13 13 -22 5z"/>
<path d="M700 2800 c0 -5 18 -17 40 -27 22 -10 40 -24 40 -30 0 -7 5 -13 10
-13 17 0 11 15 -17 42 -28 26 -73 43 -73 28z"/>
<path d="M2375 2787 c-11 -7 -23 -16 -26 -20 -3 -4 -16 -9 -27 -10 -12 -1 -22
-5 -22 -10 0 -15 -51 -55 -78 -62 -14 -3 -30 -1 -35 4 -6 6 -18 11 -26 11 -11
0 -10 -4 4 -20 10 -11 31 -20 47 -20 33 0 95 37 104 63 5 16 22 22 52 18 6 -1
12 5 12 14 0 15 10 19 42 16 10 -1 26 2 35 8 17 10 17 10 -2 11 -11 0 -29 2
-40 5 -11 2 -29 -1 -40 -8z"/>
<path d="M2500 2772 c0 -9 104 -72 119 -72 19 0 1 25 -32 44 -38 22 -87 38
-87 28z"/>
<path d="M527 2712 c-35 -24 -25 -34 15 -15 52 26 188 2 188 -33 0 -5 9 -20
20 -32 11 -12 20 -25 20 -30 0 -5 6 -15 14 -21 12 -10 13 -8 9 11 -4 13 -14
34 -25 47 -10 13 -18 29 -18 35 0 6 -14 20 -30 32 -42 29 -153 32 -193 6z"/>
<path d="M2349 2671 c-51 -32 -93 -90 -83 -115 5 -12 2 -15 -10 -10 -9 3 -16
17 -16 30 0 13 -4 24 -10 24 -29 0 4 -67 45 -91 49 -29 45 -43 -11 -35 -34 4
-45 3 -42 -7 3 -6 25 -13 50 -15 36 -2 47 -7 51 -23 10 -38 -13 -79 -53 -95
-39 -16 -64 -55 -59 -90 2 -11 0 -24 -4 -31 -4 -6 -3 -14 2 -17 10 -6 -15 -66
-32 -77 -5 -4 -5 -9 1 -13 5 -3 20 5 32 17 19 20 23 36 24 93 2 68 2 69 38 89
50 28 78 55 78 75 0 13 7 16 30 12 17 -2 33 -9 36 -14 12 -19 -8 -59 -39 -78
-29 -18 -30 -20 -9 -20 25 0 82 49 82 71 0 23 -29 59 -48 59 -22 0 -72 50 -72
72 0 9 -8 22 -19 27 -25 14 -32 36 -21 66 13 34 27 31 35 -6 9 -41 28 -46 62
-15 46 43 83 29 83 -30 0 -22 -7 -38 -22 -48 -18 -13 -19 -18 -8 -31 7 -8 9
-15 4 -15 -4 0 -3 -5 4 -12 8 -8 15 -8 24 -1 8 7 22 7 36 2 35 -13 28 -53 -18
-99 -23 -23 -38 -45 -34 -51 4 -6 11 -6 20 2 7 6 11 15 8 20 -3 5 4 9 14 9 26
0 52 42 54 86 1 38 -10 51 -55 61 -38 8 -42 19 -14 38 22 14 23 18 13 49 -23
66 -60 83 -116 51 -32 -18 -37 -18 -44 0 -11 28 13 71 48 83 44 16 71 15 107
-4 33 -17 68 -81 69 -126 0 -36 10 -58 25 -58 22 0 -22 146 -55 181 -45 48
-115 52 -181 10z"/>
<path d="M861 2658 c6 -23 5 -43 -2 -63 -18 -45 -66 -150 -106 -232 -20 -39
-43 -104 -53 -145 -13 -55 -22 -76 -39 -84 -12 -6 -21 -14 -19 -17 2 -4 -4
-12 -13 -19 -24 -19 -32 -73 -13 -89 12 -10 15 -24 11 -53 -8 -61 13 -102 59
-115 21 -6 55 -8 76 -5 48 8 88 -16 88 -51 0 -16 6 -25 15 -25 24 0 17 36 -14
69 -27 29 -32 31 -85 26 -55 -5 -92 5 -108 29 -11 16 -10 103 2 124 5 9 27 80
50 157 44 150 60 195 72 195 5 0 8 6 8 13 0 7 9 32 20 55 11 22 20 46 20 52 0
5 4 10 9 10 8 0 18 25 21 55 1 6 5 15 10 20 13 16 23 81 15 104 -3 12 -12 21
-20 21 -11 0 -12 -7 -4 -32z m-195 -570 c-2 -13 -10 -36 -16 -53 -11 -27 -13
-28 -20 -10 -4 12 -1 33 9 52 19 38 33 43 27 11z"/>
<path d="M1264 2679 c-17 -5 -47 -25 -67 -44 -20 -19 -41 -35 -48 -35 -7 0 -9
-10 -7 -25 4 -19 1 -25 -12 -25 -15 0 -13 -8 12 -57 30 -58 83 -112 96 -98 4
4 -13 24 -37 45 -26 22 -41 42 -36 49 4 7 1 18 -5 26 -15 18 5 85 26 85 8 0
14 4 14 9 0 11 56 41 77 41 7 0 13 5 13 10 0 6 27 10 60 10 71 0 152 -28 199
-70 34 -30 51 -37 51 -22 0 11 -57 62 -69 62 -5 0 -14 7 -21 15 -7 8 -23 15
-36 15 -13 0 -24 5 -24 10 0 12 -143 12 -186 -1z"/>
<path d="M2630 2653 c15 -24 24 -58 26 -93 3 -57 17 -77 28 -38 11 41 6 79
-12 106 -10 15 -22 35 -25 45 -4 9 -14 17 -23 17 -14 0 -13 -5 6 -37z"/>
<path d="M480 2635 c0 -2 12 -11 28 -19 15 -8 21 -15 14 -16 -26 0 7 -37 54
-59 41 -20 56 -21 127 -15 l81 7 -42 20 c-49 22 -54 36 -14 38 41 2 -52 17
-113 19 -27 0 -61 7 -75 15 -24 14 -60 20 -60 10z m120 -54 c0 -12 -21 -19
-37 -13 -22 8 -14 22 12 22 14 0 25 -4 25 -9z m75 -7 c26 -17 33 -34 13 -34
-14 0 -48 30 -48 42 0 12 8 10 35 -8z"/>
<path d="M1772 2594 c-56 -58 -164 -100 -148 -58 5 12 1 14 -17 8 -34 -11
-273 -7 -296 5 -25 14 -71 14 -71 1 0 -5 -6 -10 -13 -10 -7 0 -22 -7 -33 -15
-18 -15 -18 -16 6 -13 14 1 30 0 35 -4 82 -50 142 -60 225 -39 80 21 89 21
104 5 9 -8 16 -26 16 -39 0 -52 91 -99 175 -90 17 2 42 4 58 4 15 1 27 6 27
11 0 6 -29 8 -80 4 -76 -6 -82 -5 -114 20 -19 14 -40 42 -47 61 -7 19 -17 35
-21 35 -4 0 -8 5 -8 10 0 16 19 11 41 -11 18 -18 82 -45 99 -42 3 1 39 4 80 7
69 6 140 30 140 48 0 5 5 8 10 8 6 0 24 14 42 30 17 17 41 30 54 30 13 0 26 5
29 10 10 16 -42 12 -59 -5 -8 -8 -21 -15 -29 -15 -7 0 -24 -11 -37 -25 -13
-14 -29 -25 -37 -25 -7 0 -13 -4 -13 -9 0 -13 -28 -22 -95 -28 -89 -8 -110 -6
-155 17 -22 11 -40 22 -40 24 0 2 22 3 48 3 38 -1 57 6 93 30 40 28 79 77 68
87 -2 1 -19 -12 -37 -30z m-467 -72 c47 -27 43 -46 -5 -22 -22 11 -40 25 -40
30 0 14 10 12 45 -8z m170 -22 c4 -6 -7 -10 -24 -10 -17 0 -31 5 -31 10 0 6
11 10 24 10 14 0 28 -4 31 -10z"/>
<path d="M510 2537 c0 -30 50 -77 81 -77 16 0 29 5 29 10 0 6 -10 10 -22 10
-29 1 -55 20 -59 44 -5 23 -29 34 -29 13z"/>
<path d="M732 2475 c-12 -12 -41 -27 -65 -33 -23 -6 -55 -14 -72 -18 l-30 -8
34 -4 c46 -5 117 18 152 49 16 14 29 29 29 32 0 14 -26 4 -48 -18z"/>
<path d="M519 2468 c0 -2 -2 -10 -4 -18 -6 -26 -23 -93 -38 -149 -8 -29 -12
-62 -10 -72 3 -10 1 -19 -4 -19 -9 0 -6 -75 5 -100 3 -8 6 -19 7 -25 4 -40 64
-170 85 -185 14 -10 28 -46 34 -91 4 -26 14 -55 22 -65 14 -18 15 -15 10 31
-5 50 -28 108 -71 175 -12 19 -34 70 -48 111 -33 99 -30 194 7 286 27 66 33
108 16 118 -5 3 -10 5 -11 3z"/>
<path d="M2695 2401 c7 -69 -6 -141 -25 -141 -5 0 -7 -6 -5 -12 6 -16 -30 -78
-45 -78 -5 0 -10 -6 -10 -14 0 -8 -7 -16 -15 -20 -8 -3 -15 -12 -15 -21 0 -8
-3 -15 -8 -15 -8 0 -93 -84 -146 -144 -20 -23 -38 -56 -41 -76 -15 -91 -131
-142 -196 -87 -30 25 -45 62 -29 72 17 10 11 25 -10 25 -16 0 -20 -7 -20 -35
0 -26 8 -43 34 -68 38 -38 71 -47 132 -35 50 10 84 44 105 106 20 59 44 67 53
18 9 -45 -11 -90 -59 -138 -21 -21 -32 -38 -26 -38 21 0 70 42 82 71 8 21 18
29 35 29 14 0 24 6 24 15 0 8 -6 12 -14 9 -11 -4 -13 0 -9 15 3 11 9 19 13 16
5 -3 10 -1 12 5 2 6 20 7 48 2 33 -6 45 -12 44 -25 -1 -9 2 -14 7 -11 5 3 9
-2 9 -10 0 -9 -9 -16 -20 -16 -11 0 -20 -4 -20 -10 0 -5 11 -10 25 -10 15 0
25 6 25 14 0 8 7 22 16 30 14 15 13 17 -8 26 -19 9 -18 9 11 4 18 -3 49 -17
68 -30 20 -13 39 -24 43 -24 4 0 12 -11 18 -25 7 -15 20 -25 33 -25 18 0 19
-2 9 -15 -7 -8 -9 -15 -5 -15 4 0 2 -6 -4 -13 -6 -8 -7 -17 -3 -22 4 -4 -3 -4
-15 -1 -13 4 -24 2 -29 -5 -5 -9 -2 -10 9 -6 21 8 22 -11 2 -49 -8 -16 -15
-36 -15 -45 0 -9 -7 -22 -15 -29 -8 -6 -14 -15 -13 -18 1 -4 -3 -18 -9 -32
-38 -90 -67 -166 -65 -172 1 -5 -8 -8 -21 -8 -22 -1 -22 -1 -2 -16 17 -13 18
-16 5 -24 -8 -5 -18 -10 -21 -10 -13 0 -20 -33 -9 -44 7 -7 15 -4 25 10 21 28
85 163 85 180 0 7 4 14 9 14 5 0 13 15 16 33 4 17 20 60 36 94 16 34 29 67 29
73 0 6 8 22 17 37 23 35 52 123 46 140 -12 32 94 -5 119 -41 5 -6 8 -2 8 9 0
12 -17 32 -41 49 -39 27 -43 28 -122 21 -74 -6 -87 -4 -139 19 -45 20 -71 25
-126 23 -128 -4 -157 49 -66 121 27 21 65 58 84 82 19 23 45 53 57 67 56 63
83 170 69 267 -12 76 -29 56 -21 -23z m148 -604 c8 -21 -29 -39 -43 -22 -6 8
-9 19 -5 25 9 14 42 13 48 -3z"/>
<path d="M2580 2426 c0 -8 4 -17 9 -20 15 -10 -8 -108 -35 -148 -33 -47 -89
-98 -109 -98 -8 0 -24 -9 -36 -21 -19 -19 -22 -19 -38 -5 -31 29 -107 15 -145
-25 -12 -14 -15 -24 -8 -31 12 -12 35 -1 26 13 -6 11 55 39 86 39 11 0 23 -7
26 -15 9 -23 52 -18 82 10 15 14 32 25 39 25 7 0 35 23 62 50 58 58 82 120 72
189 -6 41 -31 72 -31 37z"/>
<path d="M1256 2391 c-9 -14 3 -19 73 -27 73 -8 80 9 8 19 -23 3 -50 9 -59 12
-9 4 -19 2 -22 -4z"/>
<path d="M2080 2320 c0 -11 4 -20 9 -20 13 0 32 -134 32 -228 0 -129 -25 -176
-208 -377 -12 -14 -24 -33 -28 -44 -3 -10 -12 -22 -20 -25 -20 -7 -19 -26 1
-26 9 0 18 9 21 20 3 11 8 18 12 16 4 -3 12 8 19 23 6 15 46 62 87 105 84 87
136 181 140 252 2 23 6 47 9 53 4 6 4 15 1 21 -3 5 -8 37 -9 70 -2 34 -6 64
-10 67 -3 3 -6 13 -6 21 0 20 -33 91 -42 92 -5 0 -8 -9 -8 -20z"/>
<path d="M2324 2261 c-2 -2 -4 -11 -4 -19 0 -11 9 -13 45 -8 52 8 59 -5 24
-43 -19 -20 -19 -23 -4 -19 25 4 57 51 50 70 -5 11 -22 17 -57 20 -27 1 -52 1
-54 -1z"/>
<path d="M895 2151 c-29 -6 -34 -29 -5 -23 62 12 103 13 134 2 40 -13 96 -76
96 -108 0 -12 5 -24 10 -27 6 -4 8 -10 5 -15 -3 -5 2 -15 10 -24 9 -8 16 -18
15 -21 0 -3 0 -8 0 -12 0 -7 20 -33 69 -88 10 -11 44 -44 75 -73 32 -29 59
-59 60 -65 1 -7 4 -16 7 -22 11 -20 9 -65 -3 -65 -9 0 -9 -3 -1 -11 7 -7 18
-9 26 -6 11 4 13 16 6 58 -9 56 -15 65 -133 178 -68 66 -116 143 -116 188 0
13 -5 23 -11 23 -5 0 -7 4 -4 10 10 16 -78 96 -114 103 -39 8 -84 7 -126 -2z"/>
<path d="M945 2105 c-5 -2 -27 -6 -48 -10 -21 -3 -35 -10 -32 -16 8 -12 52
-12 60 1 8 14 51 13 78 -2 34 -18 49 -36 56 -71 17 -76 -31 -138 -80 -103 -13
9 -35 16 -49 16 -34 0 -120 -29 -120 -41 0 -13 23 -11 64 6 35 15 56 13 132
-10 33 -10 74 31 81 81 6 49 -23 114 -59 131 -27 13 -69 22 -83 18z"/>
<path d="M919 1844 c-5 -15 -9 -45 -7 -66 2 -36 3 -38 16 -21 7 10 12 33 10
52 -2 21 2 36 10 39 17 5 15 22 -3 22 -9 0 -20 -12 -26 -26z"/>
<path d="M678 1810 c-4 -8 -12 -32 -18 -52 -15 -48 -23 -53 -59 -35 -59 30
-295 -17 -460 -90 -29 -13 -55 -31 -58 -41 -2 -9 -18 -24 -35 -33 -33 -16 -57
-44 -46 -54 7 -7 51 19 88 52 14 13 30 23 37 23 6 0 18 6 25 13 26 26 90 57
124 61 20 3 41 9 47 14 16 12 82 24 132 23 22 -1 63 3 92 7 55 9 90 0 64 -17
-8 -5 -10 -14 -6 -22 6 -11 5 -12 -6 -1 -19 18 -188 16 -213 -3 -18 -14 -15
-20 7 -16 5 1 30 4 55 7 26 3 51 8 56 11 5 3 6 1 2 -5 -4 -7 8 -9 40 -7 39 3
45 1 40 -12 -4 -9 1 -24 10 -34 9 -10 14 -25 11 -33 -4 -10 -1 -13 9 -9 7 3
14 0 14 -6 0 -6 -4 -11 -9 -11 -4 0 -6 -11 -3 -25 5 -28 6 -29 33 -14 21 11
45 0 80 -33 23 -22 70 -50 76 -45 3 3 -5 14 -17 24 -13 10 -34 28 -47 40 -14
12 -38 28 -53 35 -16 7 -35 27 -44 45 -18 38 -21 93 -6 93 6 0 10 9 10 20 0
11 9 37 21 59 11 22 19 50 17 63 -3 17 -6 19 -10 8z"/>
<path d="M1907 1802 c-26 -17 -27 -32 -3 -32 13 1 51 50 39 50 -4 0 -20 -8
-36 -18z"/>
<path d="M2670 1804 c0 -8 5 -12 10 -9 6 3 10 -1 10 -10 0 -11 -5 -15 -16 -11
-8 3 -12 2 -9 -4 3 -6 16 -8 29 -4 14 3 27 -1 35 -10 8 -9 23 -16 35 -16 17 0
13 7 -24 40 -48 42 -70 50 -70 24z"/>
<path d="M2480 1751 c0 -22 4 -42 9 -45 5 -3 12 -21 15 -41 4 -19 16 -41 27
-49 19 -13 20 -18 9 -53 -7 -21 -17 -44 -23 -52 -17 -20 -35 -53 -48 -83 -6
-16 -15 -28 -20 -28 -5 0 -9 -4 -9 -9 0 -9 -57 -99 -69 -111 -16 -14 -101
-120 -123 -153 -42 -62 -181 -202 -252 -252 -15 -11 -48 -35 -71 -52 -24 -18
-48 -33 -54 -33 -5 0 -14 -6 -18 -14 -8 -13 -169 -111 -288 -176 -11 -5 -40
-22 -64 -35 -24 -14 -50 -25 -56 -25 -15 0 -39 80 -37 124 0 17 5 56 9 86 12
75 7 268 -7 285 -6 8 -10 24 -8 37 4 33 63 39 71 7 3 -12 3 -35 0 -50 -4 -23
-2 -29 12 -29 16 0 17 8 13 65 -5 59 -4 65 18 80 30 19 34 19 35 -2 0 -11 3
-13 6 -5 3 8 28 12 72 12 67 0 221 40 288 75 16 8 40 15 55 15 15 0 30 5 34
11 3 6 14 9 24 6 13 -3 16 0 13 13 -3 12 -11 16 -24 13 -10 -3 -17 -9 -14 -13
3 -4 -14 -10 -38 -13 -23 -2 -67 -14 -97 -26 -93 -36 -162 -53 -240 -57 l-75
-4 65 38 c134 79 238 131 283 143 46 11 64 29 30 29 -18 -1 -109 -30 -128 -41
-5 -4 -41 -23 -80 -44 -38 -21 -101 -59 -140 -84 -38 -26 -86 -53 -105 -61
-19 -7 -40 -17 -45 -21 -23 -17 -152 -58 -185 -58 -19 -1 -54 -1 -77 -1 -23
-1 -57 6 -76 14 -19 8 -56 13 -82 11 -34 -2 -45 0 -41 10 3 9 -16 14 -72 17
-76 4 -107 17 -174 71 -17 13 -41 94 -32 108 2 4 0 11 -6 14 -7 4 -7 12 -2 18
5 7 8 23 8 37 -1 21 -7 26 -33 28 -20 2 -33 -1 -33 -8 0 -7 6 -10 14 -7 9 4
14 -2 14 -19 0 -13 -5 -21 -10 -18 -5 3 -8 -2 -6 -11 2 -10 -3 -20 -9 -22 -7
-3 -13 2 -13 11 0 9 -4 16 -10 16 -16 0 -12 -27 5 -34 8 -3 23 -3 32 0 15 5
15 3 -1 -10 -16 -13 -17 -16 -4 -16 8 0 21 -7 28 -15 10 -12 10 -15 -2 -15 -7
0 -14 -9 -15 -19 -1 -13 3 -18 11 -15 9 3 15 -5 19 -23 5 -26 -1 -35 -28 -47
-6 -3 -4 -9 4 -14 9 -7 11 -16 6 -28 -4 -11 -7 -27 -6 -36 2 -13 -5 -18 -21
-19 -13 0 -17 -3 -10 -6 14 -5 17 -43 3 -43 -5 0 -8 -8 -6 -17 3 -24 -14 -55
-26 -47 -6 3 -7 -4 -4 -18 4 -17 0 -29 -14 -42 -11 -10 -18 -23 -14 -29 4 -6
0 -8 -10 -4 -14 5 -15 3 -4 -14 10 -17 9 -22 -12 -38 -16 -12 -20 -20 -12 -25
6 -4 8 -12 5 -18 -4 -7 -2 -8 4 -4 7 4 12 14 12 22 0 8 7 17 15 20 8 4 15 14
15 23 0 9 11 37 25 64 14 26 23 47 20 47 -4 0 3 13 14 29 12 16 21 36 21 45 0
9 4 16 10 16 5 0 7 7 4 15 -4 8 -1 21 5 29 6 8 12 30 13 50 2 45 24 68 43 43
7 -10 19 -15 28 -11 20 7 34 -16 16 -27 -8 -5 -24 -9 -36 -9 -13 0 -23 -6 -23
-14 0 -19 17 -29 25 -16 4 6 15 8 26 5 14 -5 17 -2 13 8 -3 8 -2 17 3 20 9 5
131 -10 153 -20 29 -12 62 -18 165 -30 87 -11 104 -20 75 -40 -17 -12 -19 -21
-14 -48 5 -31 -17 -122 -46 -190 -5 -11 -12 -36 -16 -55 -3 -19 -10 -41 -14
-50 -4 -8 -16 -35 -26 -60 -10 -25 -29 -59 -41 -76 -13 -17 -23 -34 -23 -38 0
-16 -86 -148 -102 -157 -10 -5 -18 -16 -18 -23 0 -8 -7 -19 -15 -26 -8 -7 -14
-18 -13 -24 1 -10 -9 -38 -31 -86 -4 -8 -4 -32 -1 -53 4 -21 4 -39 1 -42 -13
-8 1 -85 15 -85 10 0 13 7 8 25 -4 16 0 34 10 50 15 22 15 25 1 25 -12 0 -14
4 -5 19 13 25 13 34 0 26 -6 -3 -7 1 -4 9 3 9 10 17 15 17 34 5 76 27 102 53
15 14 32 26 40 26 8 0 22 9 32 20 9 10 33 24 51 30 19 7 34 15 34 20 0 4 16
15 35 24 19 9 35 21 35 27 0 6 4 8 10 4 5 -3 35 9 67 27 32 18 133 71 224 118
91 47 210 115 265 153 54 37 107 67 117 67 10 0 16 4 12 9 -3 6 5 15 17 22 13
7 25 15 28 18 3 3 23 19 45 36 82 61 245 216 245 233 0 6 7 12 15 16 8 3 15
10 15 16 0 6 23 32 50 57 28 25 50 51 50 57 0 6 16 29 36 51 19 22 43 56 52
75 9 19 22 41 28 47 7 7 23 35 36 62 13 27 32 54 43 60 11 5 14 10 7 10 -9 1
-10 6 -3 20 6 10 7 21 4 25 -3 3 -1 6 5 6 7 0 12 7 12 15 0 8 6 12 14 9 8 -3
17 -1 21 5 3 6 -1 11 -10 11 -8 0 -20 11 -25 25 -5 14 -12 25 -16 25 -3 0 -3
-7 0 -16 3 -8 2 -13 -3 -10 -15 10 -22 69 -9 78 8 6 4 7 -10 3 -21 -6 -23 -4
-17 14 4 12 2 21 -4 21 -6 0 -10 10 -8 21 1 12 -4 24 -10 26 -9 3 -13 -8 -13
-36z m-1109 -701 c23 -13 27 -55 4 -46 -8 3 -15 1 -15 -4 0 -6 7 -10 15 -10 8
0 17 -10 20 -23 10 -38 0 -160 -13 -165 -9 -3 -9 -9 -1 -23 10 -20 8 -23 -36
-32 -14 -3 -12 -5 8 -6 27 -1 28 -1 21 -52 -4 -28 -2 -60 3 -72 53 -117 53
-117 38 -117 -14 0 -57 59 -61 85 -1 5 -7 21 -12 35 -10 23 -11 21 -11 -17 -1
-30 5 -49 19 -63 11 -11 16 -20 10 -20 -5 0 -10 -4 -10 -10 0 -5 7 -10 16 -10
8 0 12 -5 9 -10 -4 -6 -10 -8 -15 -5 -4 3 -10 -4 -13 -15 -3 -12 -14 -20 -25
-20 -12 0 -24 -4 -27 -10 -3 -5 -21 -17 -40 -26 -19 -9 -35 -21 -35 -26 0 -6
-5 -6 -14 1 -11 9 -15 8 -20 -4 -4 -12 -12 -14 -27 -10 -18 6 -21 4 -16 -9 4
-11 2 -16 -6 -14 -6 2 -28 -9 -48 -25 -20 -15 -41 -27 -47 -27 -7 0 -12 -4
-12 -10 0 -5 -6 -10 -13 -10 -7 0 -22 -9 -34 -19 -11 -10 -34 -26 -51 -35 -18
-9 -32 -20 -32 -24 0 -4 -9 -8 -20 -9 -11 -1 -20 4 -20 13 0 8 9 14 20 14 11
0 20 5 20 10 0 6 -4 10 -8 10 -4 0 -8 9 -9 21 -2 18 2 20 30 13 l32 -7 -25 21
c-14 12 -19 21 -12 22 19 0 39 23 34 38 -2 6 4 12 13 12 11 0 15 5 12 14 -4
10 -1 13 9 9 7 -3 14 -11 14 -19 0 -8 5 -14 11 -14 7 0 5 10 -6 26 -16 26 -16
26 7 19 20 -5 20 -4 6 5 -23 14 -23 26 2 47 11 10 20 23 20 30 0 7 5 13 10 13
6 0 10 5 10 11 0 5 -5 7 -12 3 -7 -4 -8 -3 -4 4 4 7 15 12 24 13 9 0 12 3 5 5
-15 7 17 64 36 64 10 0 11 3 2 14 -8 10 -5 22 14 50 27 40 30 53 14 58 -6 2
-5 14 5 33 9 17 16 37 17 45 1 8 5 4 10 -10 7 -19 8 -13 5 24 -2 27 0 43 4 36
4 -7 13 -9 19 -6 17 11 13 26 -6 26 -17 1 -17 1 -1 14 10 7 15 16 11 19 -3 4
0 13 6 21 8 9 8 16 2 20 -6 4 -8 13 -4 21 3 8 0 15 -6 15 -6 0 -11 5 -11 11 0
6 7 8 16 5 9 -3 12 -2 9 5 -11 17 26 50 48 43 14 -4 17 -3 12 7 -6 9 -3 11 8
6 9 -3 27 -2 39 3 31 12 36 12 59 0z"/>
<path d="M1317 690 c-19 -23 -15 -42 8 -34 8 4 13 10 10 14 -3 5 -1 11 5 15
12 7 13 25 2 25 -4 0 -15 -9 -25 -20z"/>
<path d="M1420 1762 c0 -5 7 -15 14 -22 20 -16 39 -75 41 -129 1 -25 7 -47 13
-49 19 -6 18 72 -1 117 -6 14 -11 28 -11 31 -4 22 -56 70 -56 52z"/>
<path d="M1855 1743 c-11 -15 -28 -35 -37 -45 -10 -10 -18 -23 -18 -29 0 -6
-7 -17 -15 -25 -8 -9 -15 -29 -15 -46 0 -17 -7 -36 -16 -42 -8 -6 -16 -26 -16
-43 -1 -18 -4 -30 -8 -28 -10 6 -40 -39 -40 -60 0 -8 -4 -15 -10 -15 -5 0 -10
-4 -10 -10 0 -5 7 -10 15 -10 8 0 15 7 15 16 0 9 10 24 23 34 13 10 29 37 37
59 7 23 17 41 23 41 5 0 7 7 3 15 -3 8 -1 15 4 15 6 0 10 13 10 29 0 29 30 80
74 128 14 15 23 30 20 35 -9 14 -18 9 -39 -19z"/>
<path d="M2902 1739 c3 -8 16 -13 30 -11 14 1 31 -5 39 -15 13 -15 12 -16 -8
-11 -13 4 -25 3 -28 -2 -3 -4 8 -10 25 -12 16 -2 27 -1 24 3 -2 4 2 9 8 12 23
8 -15 37 -57 44 -30 5 -37 3 -33 -8z"/>
<path d="M802 1728 c-17 -17 -15 -35 7 -50 11 -8 19 -22 18 -33 -1 -11 8 -24
23 -32 24 -12 24 -13 -17 -13 -23 0 -44 -4 -47 -9 -3 -5 17 -8 44 -8 28 0 50
4 50 8 0 10 39 18 45 10 2 -5 -7 -13 -21 -19 -13 -7 -29 -23 -34 -37 -8 -20
-16 -25 -46 -25 -34 0 -36 2 -30 25 7 26 0 31 -23 16 -36 -23 30 -82 69 -61
13 7 28 7 47 -1 36 -13 140 -13 191 1 36 9 60 30 111 96 4 5 34 16 65 24 48
11 56 17 54 33 -2 11 -9 23 -17 25 -10 3 -12 0 -8 -12 6 -16 -7 -21 -41 -17
-7 1 -27 -10 -44 -25 -30 -24 -32 -25 -39 -8 -4 12 0 24 10 32 14 11 12 12
-11 10 -47 -5 -35 13 22 32 41 14 57 16 62 7 6 -9 10 -8 17 2 7 11 13 12 23 3
16 -13 44 1 34 17 -11 17 -67 13 -138 -9 -79 -25 -104 -25 -153 0 -51 26 -105
26 -133 -1 -24 -21 -63 -23 -70 -1 -2 7 6 12 23 12 15 0 24 4 20 10 -9 14 -48
13 -63 -2z m196 -24 c40 -11 23 -24 -33 -24 -51 0 -65 7 -48 23 8 9 50 9 81 1z
m-88 -64 c0 -44 -47 -34 -63 13 -5 14 0 17 28 17 32 0 35 -2 35 -30z m96 -12
c9 -16 13 -32 10 -36 -3 -3 -6 0 -6 6 0 7 -15 12 -35 12 -28 0 -38 5 -44 23
-12 30 -7 34 29 29 21 -3 35 -13 46 -34z m100 25 c1 -7 2 -17 3 -23 0 -5 10
-10 22 -10 23 0 23 -30 0 -38 -8 -3 -11 0 -7 6 4 6 -8 9 -31 7 -21 -1 -30 -1
-20 2 30 8 19 23 -17 23 -22 0 -36 6 -40 16 -9 22 -9 22 22 27 43 7 67 3 68
-10z m-18 -86 c49 -15 45 -23 -25 -50 -31 -12 -59 -15 -103 -10 -75 7 -91 23
-54 52 32 25 113 28 182 8z"/>
<path d="M2864 1655 c-4 -11 -13 -35 -20 -54 -18 -42 -18 -41 6 -41 12 0 32
-11 44 -24 13 -12 31 -26 40 -29 9 -4 16 -11 16 -16 0 -6 -7 -8 -15 -5 -8 4
-15 1 -15 -5 0 -6 7 -11 15 -11 21 0 19 -21 -4 -27 -10 -2 -24 -16 -31 -29 -8
-13 -19 -24 -25 -24 -7 0 -18 -6 -24 -14 -10 -12 -8 -17 8 -25 13 -7 22 -8 26
-1 3 5 3 10 -2 10 -4 1 8 8 27 16 26 11 31 17 20 24 -21 13 5 39 33 33 18 -5
20 -3 10 8 -18 18 -16 32 2 25 14 -5 13 -1 -2 25 -10 17 -28 35 -40 40 -13 5
-23 12 -23 16 0 5 -10 13 -22 18 -26 12 -32 44 -13 65 9 10 11 21 5 30 -7 12
-10 11 -16 -5z"/>
<path d="M2926 1655 c4 -8 10 -15 15 -15 6 0 5 -9 -1 -20 -9 -17 -8 -21 7 -26
10 -3 26 -10 36 -15 25 -13 21 0 -9 27 -14 13 -22 24 -19 24 3 0 1 9 -5 20
-12 23 -32 27 -24 5z"/>
<path d="M238 1607 c-7 -7 -21 -16 -30 -20 -10 -3 -18 -11 -18 -16 0 -5 12 -3
28 5 15 7 33 14 40 14 14 0 16 16 3 25 -5 3 -15 -1 -23 -8z"/>
<path d="M1363 1558 c-7 -13 -15 -31 -19 -40 -3 -10 -15 -20 -26 -24 -15 -5
-17 -8 -8 -14 7 -5 19 -6 27 -3 14 6 53 74 53 93 0 18 -15 11 -27 -12z"/>
<path d="M1468 1538 c-3 -29 -4 -34 -15 -54 -7 -11 -30 -29 -52 -40 -45 -21
-64 -46 -28 -35 61 17 101 57 118 113 6 21 4 28 -7 28 -8 0 -15 -6 -16 -12z"/>
<path d="M90 1510 c0 -5 -6 -10 -13 -10 -7 0 -28 -16 -47 -35 -19 -19 -29 -35
-22 -35 7 0 12 4 12 9 0 5 6 8 13 7 6 0 12 2 12 6 0 13 39 37 60 38 15 0 17 2
6 9 -11 7 -11 9 0 14 10 4 9 6 -3 6 -10 1 -18 -3 -18 -9z"/>
<path d="M626 1464 c-15 -10 -11 -14 30 -28 26 -9 55 -23 65 -32 9 -8 20 -11
23 -6 3 5 -18 25 -48 44 -44 29 -56 33 -70 22z"/>
<path d="M2750 1371 c0 -10 -7 -24 -15 -31 -8 -7 -15 -19 -15 -27 0 -11 4 -12
23 -2 12 7 28 19 35 28 8 9 11 11 8 4 -4 -7 1 -11 11 -11 10 0 26 -3 36 -7 35
-15 16 11 -28 38 -54 32 -55 32 -55 8z"/>
<path d="M2687 1250 c-15 -21 -23 -42 -17 -45 5 -3 13 3 19 12 6 10 11 14 11
8 0 -12 30 43 30 56 0 20 -19 7 -43 -31z"/>
<path d="M2990 1256 c0 -8 -6 -21 -13 -28 -7 -7 -19 -28 -26 -46 -11 -27 -18
-32 -35 -28 -25 6 -66 -3 -66 -15 0 -5 18 -6 40 -3 24 4 40 3 40 -3 0 -12 -25
-35 -31 -29 -2 2 -17 6 -34 10 l-30 6 27 -15 c21 -12 26 -20 19 -33 -26 -54
-41 -77 -50 -78 -6 -1 -16 -2 -22 -3 -5 0 -7 -7 -2 -13 12 -20 12 -38 1 -38
-6 0 -16 -7 -22 -15 -6 -8 -25 -17 -42 -21 -27 -5 -32 -3 -37 18 -4 15 -1 27
8 34 17 13 9 24 -17 24 -10 0 -18 5 -18 11 0 6 7 9 15 5 8 -3 15 -1 15 4 0 12
-47 13 -54 1 -3 -4 3 -16 13 -25 12 -11 16 -26 13 -46 -3 -23 0 -30 12 -30 29
0 17 -15 -33 -41 -32 -18 -53 -24 -62 -18 -8 5 -23 9 -34 9 -19 -1 -19 -1 -2
-11 12 -7 16 -17 12 -30 -4 -11 -2 -19 4 -19 6 0 11 7 11 15 0 8 8 16 18 16
23 2 24 2 44 -6 13 -5 15 -2 11 14 -4 15 -1 21 10 21 9 0 23 7 32 16 8 9 22
13 30 10 17 -6 20 -26 4 -26 -5 0 -8 -4 -5 -8 2 -4 -8 -13 -24 -20 -20 -9 -28
-19 -25 -33 2 -10 -1 -19 -7 -19 -5 0 -8 -7 -4 -15 3 -10 -3 -17 -20 -21 -16
-4 -22 -9 -14 -14 13 -8 -13 -40 -32 -40 -6 0 -6 -6 2 -15 10 -13 9 -15 -9
-15 -23 0 -29 -15 -8 -23 8 -4 7 -6 -3 -6 -8 -1 -21 -15 -29 -31 -10 -23 -16
-28 -26 -20 -9 8 -14 6 -19 -5 -3 -8 -1 -15 4 -15 6 0 10 -5 10 -11 0 -6 -6
-9 -14 -6 -9 4 -16 -4 -19 -22 -3 -15 -17 -33 -31 -41 -20 -10 -23 -16 -15
-27 9 -10 7 -14 -5 -19 -10 -4 -15 -13 -12 -20 3 -8 1 -14 -4 -14 -6 0 -10 -6
-10 -13 0 -13 -35 -47 -48 -47 -4 0 -16 8 -27 16 -14 11 -15 15 -5 14 30 -4
38 0 33 19 -4 14 1 21 19 24 23 4 23 4 1 6 -21 1 -27 12 -26 48 0 7 -12 18
-28 25 -16 7 -29 16 -29 19 0 3 -20 6 -45 7 -25 0 -43 -4 -40 -8 8 -13 -29
-30 -54 -25 -12 2 -24 -3 -29 -11 -8 -14 -10 -14 -24 0 -15 14 -17 14 -22 0
-14 -35 -7 -43 32 -37 20 3 65 17 100 30 59 24 64 24 87 9 14 -9 25 -23 25
-32 0 -8 7 -17 15 -20 22 -9 7 -26 -16 -19 -18 6 -23 -4 -21 -40 2 -17 -83
-75 -110 -75 -13 0 -33 9 -44 20 -59 61 -57 57 -38 68 21 12 10 32 -17 32 -16
0 -18 -4 -10 -18 6 -11 6 -24 -1 -36 -7 -13 -7 -20 1 -26 7 -4 11 -13 9 -21
-2 -9 5 -14 20 -13 12 0 22 -5 22 -13 0 -7 -6 -13 -12 -13 -9 0 -8 -4 2 -10 8
-6 27 -7 42 -4 14 3 29 0 33 -5 9 -16 25 -13 25 4 0 9 11 20 25 25 14 5 28 16
31 23 3 9 14 12 31 9 l26 -5 -23 -17 c-14 -11 -20 -22 -15 -30 5 -9 2 -10 -13
-6 -18 6 -22 2 -28 -28 -4 -22 -12 -36 -21 -36 -10 0 -13 -6 -9 -16 4 -10 -3
-18 -23 -25 -20 -7 -28 -15 -24 -25 6 -16 43 -20 43 -4 0 5 10 20 23 34 32 35
47 54 47 61 0 3 8 14 18 24 50 56 95 111 106 129 6 11 26 41 44 67 17 25 32
50 32 55 0 5 12 22 28 38 15 16 42 50 60 74 18 25 44 58 58 73 18 20 22 30 14
35 -7 4 -9 13 -5 20 6 9 9 9 15 1 4 -8 17 4 35 31 16 24 43 61 61 83 17 22 40
56 50 75 11 19 35 60 55 90 63 98 111 194 115 233 3 20 2 37 -1 37 -3 0 -5 -6
-5 -14z"/>
<path d="M2580 1227 c0 -8 -3 -17 -7 -20 -5 -2 -2 -2 5 -1 23 6 12 -17 -17
-34 -28 -16 -39 -52 -16 -52 5 0 3 -4 -5 -9 -16 -11 -33 -4 -25 10 4 5 1 9 -6
9 -6 0 -10 -10 -7 -23 4 -23 -12 -47 -32 -47 -5 0 -10 -7 -10 -15 0 -8 -7 -15
-15 -15 -8 0 -15 -9 -15 -20 0 -11 -4 -20 -8 -20 -9 0 -96 -81 -97 -90 0 -5
-45 -58 -78 -93 -11 -11 -27 -17 -38 -14 -10 3 -19 1 -19 -4 0 -5 4 -9 10 -9
5 0 7 -7 4 -15 -8 -20 -21 -19 -27 3 -4 15 -5 16 -6 0 -1 -16 -45 -68 -57 -68
-3 0 -2 9 1 20 4 11 2 20 -4 20 -14 0 -14 -37 -1 -45 12 -8 -12 -35 -32 -35
-7 -1 -28 -14 -47 -30 -19 -16 -37 -27 -41 -25 -4 2 -12 -6 -18 -19 -6 -14
-20 -27 -31 -31 -26 -8 -27 -25 -2 -25 10 0 29 11 42 25 13 13 27 25 31 25 4
0 18 10 31 23 13 12 46 38 74 57 28 19 48 40 46 47 -3 7 6 15 20 18 14 4 39
22 56 40 16 19 36 37 43 42 7 4 26 24 41 43 16 19 62 71 104 115 136 144 176
195 157 195 -5 0 -1 5 9 11 21 12 22 42 2 59 -12 10 -15 10 -15 -3z"/>
<path d="M2645 1180 c-3 -5 -3 -14 0 -20 3 -5 1 -10 -6 -10 -14 0 -38 -30 -39
-48 0 -10 4 -10 15 2 8 8 15 20 15 27 0 7 3 10 6 6 9 -9 32 16 27 30 -2 6 4
13 14 16 15 4 14 5 -4 6 -12 0 -25 -3 -28 -9z"/>
<path d="M460 1152 c0 -7 -5 -12 -11 -12 -11 0 -39 -24 -39 -34 0 -3 7 -6 15
-6 8 0 15 5 15 11 0 7 8 18 17 25 10 7 15 16 10 20 -4 4 -7 2 -7 -4z"/>
<path d="M2977 1100 c-9 -22 -17 -43 -17 -46 0 -4 -7 -12 -14 -18 -8 -6 -16
-17 -18 -25 -2 -7 -13 -24 -25 -37 -13 -13 -23 -30 -23 -39 0 -8 -3 -15 -8
-15 -4 0 -13 -14 -21 -32 -8 -17 -21 -39 -30 -49 -34 -37 -41 -49 -41 -64 0
-22 21 -18 27 5 6 23 14 25 30 9 9 -9 10 -7 6 10 -3 13 -1 21 6 21 7 0 10 4 6
9 -3 5 5 12 17 14 l23 4 -23 2 c-24 1 -24 1 7 40 24 31 36 37 56 33 33 -6 32
6 -1 18 l-26 10 29 34 c15 19 37 35 48 36 17 2 17 3 3 7 -22 5 -24 23 -3 23
11 0 15 12 15 45 0 25 -1 45 -3 45 -1 0 -10 -18 -20 -40z"/>
<path d="M2800 1111 c0 -5 -12 -8 -26 -8 -33 0 -46 -15 -28 -31 11 -10 14 -10
14 1 0 9 14 17 35 21 34 7 49 26 20 26 -8 0 -15 -4 -15 -9z"/>
<path d="M2245 1038 c-42 -56 -180 -191 -205 -200 -8 -3 -12 -9 -8 -13 4 -4
13 -3 20 1 13 9 18 10 38 13 6 0 10 6 10 11 0 15 50 60 66 60 8 0 14 6 14 14
0 8 13 24 29 36 17 11 36 33 43 48 8 15 22 39 32 55 33 49 1 28 -39 -25z"/>
<path d="M2529 1019 l-47 -50 43 7 c24 3 45 2 49 -4 3 -5 17 -7 31 -4 24 4 25
6 10 22 -8 9 -12 20 -8 23 3 4 -8 4 -26 1 -32 -7 -32 -6 -20 15 8 12 24 21 39
21 20 0 22 2 10 10 -24 15 -32 11 -81 -41z"/>
<path d="M745 1048 c-3 -9 -17 -19 -31 -22 -25 -7 -34 -26 -11 -26 21 1 60 36
54 51 -4 11 -6 11 -12 -3z"/>
<path d="M805 1030 c18 -19 17 -20 -2 -20 -22 0 -66 -37 -58 -49 2 -5 14 -11
25 -14 17 -4 19 -1 15 25 -5 29 -4 30 25 26 40 -6 49 10 20 34 -30 24 -48 23
-25 -2z"/>
<path d="M1775 984 c-59 -66 -96 -130 -109 -191 -1 -7 -5 -16 -9 -19 -11 -11
-8 -56 3 -49 5 3 15 25 22 48 31 104 108 207 154 207 13 0 24 2 24 4 0 14 -21
56 -27 56 -5 0 -30 -25 -58 -56z"/>
<path d="M1098 1018 c-3 -7 -21 -12 -41 -11 -43 1 -50 -12 -10 -20 33 -6 63 8
63 28 0 18 -7 20 -12 3z"/>
<path d="M899 948 c26 -26 34 -29 41 -17 7 10 4 15 -11 17 -11 2 -23 10 -26
18 -3 8 -12 14 -21 14 -11 0 -6 -10 17 -32z"/>
<path d="M1470 966 c0 -24 155 -165 167 -152 9 9 -44 63 -90 93 -21 13 -42 35
-47 48 -10 27 -30 34 -30 11z"/>
<path d="M716 951 c-4 -6 -16 -9 -26 -6 -14 5 -21 -2 -30 -32 -26 -79 -63
-151 -84 -161 l-21 -11 22 0 c12 -1 25 4 28 9 3 6 18 10 33 10 23 1 25 2 9 11
-23 13 -13 29 15 21 14 -3 19 -2 14 6 -4 7 -15 12 -24 12 -12 0 -13 3 -4 12 7
7 12 20 12 30 0 10 5 18 11 18 6 0 9 6 6 14 -7 17 10 33 39 38 16 2 20 8 14
22 -5 14 -9 16 -14 7z"/>
<path d="M1074 929 c-3 -5 5 -9 16 -9 16 0 20 -4 16 -16 -4 -10 -1 -14 6 -12
7 3 14 12 16 20 3 17 -45 32 -54 17z"/>
<path d="M838 919 c-2 -6 -19 -15 -38 -20 -35 -9 -34 -9 5 -3 22 3 45 6 52 6
6 1 9 7 6 15 -6 16 -20 17 -25 2z"/>
<path d="M2437 912 c-10 -10 -17 -24 -17 -30 0 -7 -7 -12 -15 -12 -8 0 -15 -5
-15 -10 0 -16 -132 -137 -162 -148 -22 -9 -5 -29 25 -29 17 0 24 2 14 4 -14 4
-16 8 -6 19 6 8 17 14 25 14 7 0 22 13 34 29 16 24 27 29 50 26 21 -2 30 1 30
10 0 9 -7 12 -17 9 -16 -5 -16 -4 1 10 10 8 24 17 30 20 7 3 6 8 -4 15 -12 8
-12 11 3 17 12 4 23 0 32 -12 7 -11 17 -15 22 -11 4 5 -3 16 -15 26 -26 19
-19 33 12 25 17 -4 21 0 22 21 2 30 -25 34 -49 7z"/>
<path d="M990 894 c0 -10 28 -34 41 -34 9 0 9 3 0 14 -10 11 -8 15 6 19 10 3
3 5 -14 6 -18 0 -33 -2 -33 -5z"/>
<path d="M1506 830 c13 -39 28 -79 34 -90 8 -15 6 -21 -7 -29 -15 -9 -14 -10
7 -7 22 3 25 7 22 37 -2 19 -7 39 -10 44 -4 6 -7 15 -7 20 -3 24 -41 95 -52
95 -7 0 -3 -24 13 -70z"/>
<path d="M256 871 c-3 -5 8 -11 25 -13 35 -5 49 7 16 16 -30 8 -35 7 -41 -3z"/>
<path d="M2494 836 c21 -28 23 -35 11 -38 -12 -2 -11 -6 6 -16 19 -12 21 -12
16 1 -4 10 1 17 11 20 16 4 15 5 0 6 -10 0 -18 9 -18 19 0 22 -19 42 -38 42
-10 0 -7 -10 12 -34z"/>
<path d="M848 852 c-19 -4 -26 -42 -8 -42 6 0 10 7 10 15 0 8 5 15 11 15 5 0
8 -4 5 -9 -3 -4 1 -17 9 -27 13 -18 14 -18 20 -1 10 24 66 22 98 -3 38 -30 45
-24 12 10 -16 17 -36 30 -45 30 -9 0 -21 5 -28 12 -9 9 -16 7 -31 -6 -16 -14
-21 -15 -28 -4 -4 8 -16 12 -25 10z"/>
<path d="M215 818 c-4 -10 -16 -18 -27 -18 -17 0 -18 -2 -8 -16 12 -13 15 -13
33 4 11 11 17 26 14 33 -3 11 -6 10 -12 -3z"/>
<path d="M253 783 c-10 -16 -20 -30 -23 -33 -3 -3 -11 -15 -18 -27 -10 -20
-10 -23 4 -23 9 0 18 9 21 21 4 13 11 18 21 14 11 -4 13 0 9 17 -4 14 0 29 10
40 9 11 11 18 5 18 -6 0 -19 -12 -29 -27z"/>
<path d="M1958 780 c-9 -10 -14 -21 -10 -24 3 -3 -2 -6 -11 -6 -9 0 -17 -4
-17 -10 0 -17 15 -11 40 15 13 14 30 25 37 25 8 0 11 5 8 10 -9 15 -28 11 -47
-10z"/>
<path d="M1025 739 c-36 -34 -52 -42 -84 -42 -48 -1 -74 18 -65 46 4 13 2 17
-5 12 -7 -4 -19 -1 -29 7 -15 12 -15 10 1 -15 10 -15 15 -32 11 -38 -10 -17
36 -50 55 -40 19 11 71 9 71 -1 0 -5 -5 -8 -11 -8 -5 0 -7 -5 -4 -10 9 -15 37
9 31 27 -7 18 4 16 26 -4 16 -14 18 -14 18 0 0 8 6 22 13 29 13 13 31 78 22
78 -3 0 -26 -19 -50 -41z"/>
<path d="M157 750 c-9 -13 -17 -30 -17 -37 0 -7 -4 -13 -9 -13 -5 0 -8 -8 -7
-17 0 -11 -6 -17 -16 -17 -22 2 -23 -12 -2 -20 22 -9 24 -8 24 9 0 8 7 15 15
15 10 0 15 10 15 29 0 16 5 31 11 33 6 2 10 13 7 23 -3 19 -5 18 -21 -5z"/>
<path d="M764 729 c-3 -6 -13 -8 -21 -5 -9 4 -13 1 -11 -6 3 -7 10 -13 16 -12
7 1 21 2 32 3 11 0 20 5 20 10 0 14 -29 22 -36 10z"/>
<path d="M2742 728 c-7 -7 -12 -17 -12 -24 0 -7 -4 -14 -9 -16 -13 -4 -124
-149 -179 -233 -25 -38 -52 -76 -59 -83 -7 -7 -13 -17 -13 -22 0 -4 -13 -22
-30 -40 -26 -28 -40 -60 -25 -60 2 0 18 13 34 29 20 19 26 31 18 35 -7 2 -2 8
11 12 21 6 48 47 43 67 -2 11 20 32 44 41 15 5 17 9 6 15 -11 7 -9 11 8 20 12
7 29 30 38 52 l16 40 19 -20 c18 -20 28 -26 28 -17 0 3 -7 12 -16 20 -22 23
-10 60 16 46 13 -7 21 -7 26 2 4 6 3 8 -4 4 -5 -3 -12 0 -15 6 -6 18 22 48 38
42 9 -4 12 1 8 15 -3 13 2 24 16 33 12 7 21 21 21 30 0 21 -11 23 -28 6z"/>
<path d="M1853 700 c-12 -11 -25 -20 -27 -20 -17 0 -116 -77 -112 -87 3 -6 -3
-12 -12 -11 -24 0 -90 -26 -105 -42 -10 -10 -6 -11 18 -7 20 3 34 0 43 -11 7
-10 11 -11 7 -5 -10 20 13 53 31 46 10 -4 20 1 26 11 5 9 13 14 19 11 5 -4 6
2 2 11 -4 12 -3 15 5 10 7 -4 12 -1 12 9 0 9 4 14 9 10 5 -3 22 6 38 20 47 41
52 45 62 45 5 0 11 -6 14 -12 2 -7 8 -9 13 -5 5 4 4 11 -2 15 -6 4 -13 13 -15
20 -3 9 -10 7 -26 -8z"/>
<path d="M177 653 c-13 -21 -28 -49 -32 -63 -7 -22 -6 -23 9 -8 9 9 16 24 16
32 0 9 6 16 14 16 7 0 16 8 20 18 3 9 9 23 12 30 13 29 -18 9 -39 -25z"/>
<path d="M2320 680 c20 -13 77 -13 85 0 4 6 -14 10 -47 10 -38 0 -49 -3 -38
-10z"/>
<path d="M646 672 c-3 -5 -20 -7 -38 -4 -31 4 -32 3 -16 -14 9 -9 26 -18 37
-19 24 -2 71 -43 71 -62 0 -7 7 -13 15 -13 8 0 15 -7 15 -15 0 -8 5 -15 10
-15 14 0 12 37 -2 43 -10 4 -10 7 0 15 10 7 10 11 -2 21 -8 7 -19 10 -25 7 -5
-3 -11 1 -15 9 -3 8 -13 15 -22 15 -11 0 -15 6 -11 20 5 20 -7 28 -17 12z"/>
<path d="M2187 634 c5 -13 0 -14 -29 -9 -26 5 -38 2 -49 -11 -13 -16 -12 -17
4 -11 10 4 36 7 58 7 27 0 39 4 39 14 0 8 8 17 18 19 9 3 3 5 -15 6 -26 1 -31
-2 -26 -15z"/>
<path d="M575 631 c-3 -6 -17 -11 -30 -11 -18 0 -26 -7 -31 -24 -3 -14 -12
-27 -20 -30 -8 -3 -14 -11 -14 -19 0 -7 -9 -30 -20 -52 -11 -21 -18 -41 -15
-43 10 -10 35 22 35 45 0 30 20 26 37 -8 8 -17 27 -28 60 -37 26 -8 59 -19 72
-25 19 -10 25 -8 37 7 11 16 16 17 29 6 9 -7 15 -8 15 -2 0 6 -6 12 -12 15
-10 3 -8 10 6 25 10 12 16 28 13 37 -9 23 -27 18 -27 -7 0 -32 -11 -44 -44
-50 -38 -7 -114 19 -127 43 -5 10 -16 19 -24 19 -19 0 -19 16 0 24 8 3 15 12
15 19 0 8 18 22 40 33 38 18 46 34 23 41 -6 2 -14 -1 -18 -6z"/>
<path d="M451 617 c-6 -8 -8 -17 -5 -20 4 -3 -3 -22 -15 -41 -15 -24 -27 -33
-39 -30 -11 4 -13 3 -6 -3 7 -4 14 -17 16 -28 5 -20 5 -20 13 0 4 11 15 28 24
38 15 18 18 26 23 62 2 11 8 23 13 27 6 5 6 8 -1 8 -6 0 -17 -6 -23 -13z"/>
<path d="M954 608 c-4 -13 -12 -27 -18 -31 -7 -6 -5 -7 5 -4 9 3 26 -1 38 -9
27 -20 27 -7 -1 23 -18 20 -19 23 -5 23 9 0 17 5 17 10 0 20 -29 10 -36 -12z"/>
<path d="M2062 583 c-7 -2 -16 -13 -22 -22 -8 -15 -6 -17 15 -13 16 3 22 9 18
20 -4 10 -2 13 5 8 6 -3 13 -2 17 4 6 10 -11 12 -33 3z"/>
<path d="M100 521 c-12 -23 5 -40 23 -22 8 8 8 11 -2 11 -7 0 -9 5 -6 10 4 6
11 8 16 5 5 -4 9 -1 9 4 0 18 -29 12 -40 -8z"/>
<path d="M1896 515 c-3 -8 -12 -15 -21 -15 -8 0 -15 -4 -15 -10 0 -5 -7 -10
-15 -10 -8 0 -23 -9 -32 -20 -10 -11 -25 -20 -35 -20 -10 0 -18 -6 -18 -12 0
-10 -2 -10 -8 -1 -4 7 -13 9 -21 4 -7 -5 -10 -14 -7 -20 4 -6 1 -11 -8 -11 -8
0 -16 5 -18 12 -3 9 -6 9 -12 0 -4 -7 -2 -12 3 -12 6 0 11 -7 11 -15 0 -8 -7
-15 -15 -15 -8 0 -15 8 -15 18 0 14 -2 15 -9 2 -6 -8 -7 -18 -4 -22 6 -11 -17
-39 -27 -33 -5 3 -11 1 -15 -5 -4 -6 -12 -7 -18 -4 -7 4 -9 4 -5 -1 8 -9 -20
-34 -39 -35 -7 0 -23 -10 -37 -22 -42 -39 -55 -48 -70 -48 -8 0 -18 -5 -22
-11 -4 -8 -9 -7 -16 2 -6 10 -7 7 -3 -8 5 -18 3 -22 -9 -17 -9 3 -16 11 -16
17 0 6 -3 7 -6 4 -4 -4 -1 -13 6 -22 11 -13 9 -15 -14 -15 -18 0 -25 -4 -20
-12 4 -6 3 -9 -2 -6 -13 8 -56 -10 -50 -21 3 -5 -2 -8 -12 -7 -10 0 -16 -5
-14 -13 2 -10 -6 -12 -35 -7 -27 5 -34 4 -23 -3 13 -9 13 -11 -1 -11 -8 0 -26
-10 -39 -22 -14 -13 -27 -23 -30 -24 -3 0 -16 -5 -29 -11 l-25 -10 23 -6 c14
-3 37 2 59 15 21 12 79 43 131 70 52 27 107 60 123 73 16 14 36 25 43 25 8 0
18 6 22 12 4 7 24 22 44 33 49 27 139 88 168 114 13 12 32 21 41 21 9 0 27 11
40 25 13 14 28 25 32 25 5 0 24 11 42 25 18 14 36 25 39 25 4 0 16 8 27 17 14
13 16 19 7 25 -18 11 -24 10 -31 -7z"/>
<path d="M1505 496 c-22 -11 -43 -25 -46 -29 -3 -5 -9 -8 -13 -8 -20 3 -25 -1
-19 -16 5 -13 2 -15 -12 -10 -9 4 -23 3 -29 -1 -6 -5 -24 -14 -41 -20 l-30
-10 33 -1 c17 -1 32 4 32 9 0 6 16 10 36 10 28 0 35 3 30 15 -3 8 -2 14 2 13
4 -1 17 3 29 10 12 6 28 10 35 7 7 -3 28 9 47 25 32 29 33 30 10 29 -13 -1
-42 -11 -64 -23z"/>
<path d="M1985 509 c-4 -6 -16 -14 -28 -18 -11 -4 -21 -17 -22 -28 -1 -14 3
-19 12 -16 7 3 13 11 13 18 0 17 22 25 52 19 21 -5 21 -4 4 6 -15 10 -16 14
-5 21 11 7 11 9 -3 9 -9 0 -20 -5 -23 -11z"/>
<path d="M838 497 c-20 -9 -25 -16 -19 -26 7 -11 13 -10 32 8 28 26 23 33 -13
18z"/>
<path d="M66 459 c-18 -36 -21 -63 -6 -54 6 3 10 15 10 25 0 10 8 23 18 29 13
7 14 13 6 21 -9 9 -16 4 -28 -21z"/>
<path d="M863 433 c16 -16 18 -16 34 0 16 16 15 17 -17 17 -32 0 -33 -1 -17
-17z"/>
<path d="M1858 413 c-7 -10 -47 -35 -88 -56 -41 -21 -86 -46 -100 -57 l-25
-20 27 0 c15 0 29 4 32 9 3 4 19 11 36 15 17 3 33 12 36 20 4 12 12 12 52 0
55 -17 64 -28 58 -74 -4 -28 -1 -38 14 -48 17 -10 20 -10 20 6 0 10 -6 24 -12
30 -10 10 -10 15 2 22 8 5 18 6 22 4 22 -14 4 16 -23 39 -17 14 -29 29 -26 34
9 15 -12 55 -25 47 -9 -5 -10 -4 -3 4 6 5 19 12 29 14 17 3 17 4 3 16 -13 11
-17 10 -29 -5z m2 -48 c11 -13 8 -15 -20 -15 -28 0 -31 2 -20 15 7 8 16 15 20
15 4 0 13 -7 20 -15z"/>
<path d="M350 406 c0 -9 -9 -12 -27 -10 -16 2 -20 1 -10 -2 9 -3 17 -9 17 -14
0 -4 9 -6 19 -3 23 6 36 43 15 43 -8 0 -14 -6 -14 -14z"/>
<path d="M700 410 c0 -5 5 -10 10 -10 16 0 12 -18 -5 -22 -10 -2 -12 -7 -5
-18 9 -13 12 -13 21 3 9 15 13 16 27 5 9 -7 4 2 -12 20 -32 35 -36 37 -36 22z"/>
<path d="M1275 370 c-10 -11 -26 -20 -35 -20 -10 0 -23 -7 -30 -15 -7 -8 -18
-15 -24 -15 -6 0 -28 -11 -49 -25 -20 -14 -37 -23 -37 -20 0 4 -20 -10 -44
-29 -23 -20 -46 -36 -50 -36 -4 0 -21 -10 -39 -22 -18 -13 -34 -24 -36 -25 -1
-1 0 -7 4 -13 5 -8 10 -8 20 0 8 7 18 9 23 6 5 -3 17 3 27 14 10 11 25 20 34
21 12 0 12 2 -3 8 -16 6 -14 10 20 31 87 51 101 57 134 55 28 -2 31 0 18 8
-14 10 -13 12 9 24 14 7 29 10 34 7 5 -3 9 2 9 11 0 8 15 24 33 35 18 11 25
20 16 20 -9 0 -24 -9 -34 -20z"/>
<path d="M369 363 c-13 -15 -11 -16 16 -9 41 10 56 26 23 26 -14 0 -32 -7 -39
-17z"/>
<path d="M682 306 c13 -19 27 -31 31 -27 5 5 -3 20 -18 35 -35 35 -40 33 -13
-8z"/>
<path d="M293 314 c-3 -10 -18 -29 -33 -43 -32 -31 -62 -104 -53 -127 5 -14 3
-16 -11 -11 -10 4 -15 3 -11 -3 10 -15 -5 -51 -17 -44 -7 5 -9 1 -5 -9 3 -9 1
-18 -6 -20 -21 -8 1 -19 23 -12 12 4 19 9 16 12 -3 3 4 28 14 56 11 27 17 53
15 57 -3 4 4 15 15 25 11 10 20 25 20 33 0 20 47 62 70 62 10 0 22 5 25 10 10
16 43 12 54 -7 9 -16 12 -16 21 -3 12 19 13 33 1 25 -5 -3 -12 -1 -16 5 -9 15
-61 12 -75 -5 -7 -8 -17 -15 -22 -15 -6 0 -8 7 -4 15 3 8 1 15 -5 15 -5 0 -12
-7 -16 -16z"/>
<path d="M740 312 c19 -9 45 -28 57 -41 26 -27 32 -17 6 11 -14 16 -14 18 -1
18 9 0 21 7 28 15 11 13 9 15 -11 12 -12 -2 -25 -9 -27 -15 -3 -9 -10 -8 -25
3 -12 8 -31 15 -42 14 -15 0 -11 -5 15 -17z"/>
<path d="M350 259 c0 -5 -10 -9 -22 -10 -18 -1 -16 -3 8 -8 38 -10 54 -19 54
-33 0 -10 -22 -8 -75 7 -15 4 -23 -1 -32 -22 -19 -41 -16 -46 16 -24 16 12 43
21 59 21 37 0 47 12 32 41 -10 18 -9 20 8 15 11 -4 24 -1 30 6 8 10 1 13 -34
15 -24 1 -44 -3 -44 -8z"/>
<path d="M1607 258 c-16 -12 -15 -13 9 -15 15 0 30 -6 34 -13 9 -15 60 -2 60
15 0 10 -10 12 -35 8 -23 -4 -35 -2 -35 6 0 14 -12 14 -33 -1z"/>
<path d="M2380 241 c0 -5 -6 -16 -13 -23 -30 -31 -89 -109 -86 -112 2 -2 15
-7 28 -11 22 -7 23 -5 17 20 -6 22 -4 26 8 22 9 -4 18 -2 21 3 4 6 1 10 -5 10
-6 0 -8 5 -4 11 4 8 9 8 17 0 6 -6 16 -11 22 -11 5 0 1 7 -10 16 -20 15 -19
15 12 43 18 16 30 31 26 35 -10 9 -33 7 -33 -3z"/>
<path d="M1540 211 c0 -5 10 -11 23 -15 31 -8 37 -7 37 5 0 5 -4 7 -10 4 -5
-3 -10 -1 -10 4 0 6 -9 11 -20 11 -11 0 -20 -4 -20 -9z"/>
<path d="M1473 172 c-24 -15 -41 -32 -38 -39 2 -7 0 -15 -5 -18 -4 -3 -10 0
-12 7 -2 6 -12 9 -20 5 -15 -5 -15 -9 2 -44 10 -21 29 -49 43 -61 21 -20 29
-22 46 -13 27 15 27 25 0 18 -15 -4 -19 -2 -15 8 3 8 -3 17 -15 20 -12 4 -18
13 -15 21 3 7 2 13 -2 13 -20 -3 -20 3 -2 24 51 55 66 67 77 62 7 -2 13 2 13
10 0 20 -7 18 -57 -13z"/>
<path d="M745 179 c-11 -4 -14 -8 -7 -8 13 -1 17 -61 4 -61 -15 0 -30 22 -25
36 4 10 -4 14 -23 15 -16 1 -33 0 -39 -1 -5 -2 -21 -4 -35 -5 -14 -1 -27 -4
-30 -5 -3 -1 -9 -2 -13 -1 -4 1 -10 -7 -14 -16 -3 -10 -12 -25 -18 -33 -7 -8
-15 -24 -16 -34 -4 -19 -4 -19 -23 0 -19 18 -19 18 -13 1 4 -10 7 -21 7 -23 0
-2 11 -4 25 -4 18 0 26 7 31 25 8 34 50 62 101 66 23 3 39 1 37 -3 -7 -11 26
-38 46 -38 22 0 40 28 40 64 0 30 -8 36 -35 25z"/>
<path d="M1607 169 c7 -7 26 -12 43 -11 16 0 30 -4 30 -9 0 -5 -4 -9 -10 -9
-5 0 -7 -7 -3 -15 5 -14 8 -14 24 1 33 30 26 35 -56 49 -32 5 -37 4 -28 -6z"/>
<path d="M1850 170 c0 -6 -21 -20 -46 -30 -35 -15 -50 -17 -66 -9 -25 13 -35
5 -17 -14 19 -18 66 -30 71 -17 2 6 17 12 33 14 17 2 34 4 39 5 4 0 6 7 3 15
-4 9 3 16 19 20 14 4 22 11 19 16 -8 13 -55 13 -55 0z"/>
<path d="M867 163 c-3 -5 5 -15 19 -22 31 -14 44 -14 44 -1 0 6 -11 10 -24 10
-13 0 -26 5 -28 12 -3 8 -6 9 -11 1z"/>
<path d="M260 128 c0 -7 -7 -25 -14 -40 -8 -16 -11 -28 -6 -28 4 0 16 -3 25
-6 13 -5 15 -2 9 20 -5 20 -2 26 10 26 22 0 20 13 -4 28 -16 10 -20 10 -20 0z"/>
<path d="M2186 86 c3 -7 -2 -16 -10 -19 -9 -4 -16 -13 -16 -22 0 -10 -10 -15
-27 -16 l-28 -1 29 -9 c30 -8 61 5 51 21 -3 5 5 16 17 25 20 13 21 17 8 25
-21 14 -30 12 -24 -4z"/>
<path d="M2248 71 c-16 -18 -14 -31 4 -31 4 0 8 7 8 15 0 9 7 15 16 13 10 -2
19 3 21 10 7 19 -31 14 -49 -7z"/>
<path d="M706 73 c-3 -3 -6 -15 -6 -26 0 -19 1 -19 18 -4 12 11 22 13 32 6 13
-8 11 -12 -10 -29 l-25 -21 35 3 c25 2 34 7 31 18 -1 8 -4 24 -5 36 -1 16 -8
21 -32 22 -17 1 -34 -2 -38 -5z"/>
<path d="M217 22 c-15 -17 -15 -18 3 -19 12 -1 20 4 20 13 0 9 5 12 12 8 7 -4
8 -3 4 4 -10 17 -20 15 -39 -6z"/>
<path d="M506 15 c10 -8 30 -14 44 -14 23 0 22 1 -9 14 -43 19 -60 19 -35 0z"/>
</g>
</svg>
