<?xml version="1.0" standalone="no"?>
<!DOCTYPE svg PUBLIC "-//W3C//DTD SVG 20010904//EN"
 "http://www.w3.org/TR/2001/REC-SVG-20010904/DTD/svg10.dtd">
<svg version="1.0" xmlns="http://www.w3.org/2000/svg"
 width="360" height="540" viewBox="0 0 300.000000 450.000000"
 preserveAspectRatio="xMidYMid meet" style="background-color:white">
<g transform="translate(0.000000,450.000000) scale(0.100000,-0.100000)"
fill="#000000" stroke="none">
<path d="M1445 4049 c-16 -5 -46 -11 -66 -12 -43 -5 -64 -17 -64 -37 0 -10 -8
-14 -27 -12 -22 2 -25 -1 -21 -19 4 -16 2 -20 -8 -17 -16 5 -90 -97 -133 -185
-16 -31 -33 -60 -37 -63 -5 -3 -9 -15 -9 -28 0 -12 -4 -26 -9 -32 -5 -5 -16
-34 -26 -64 -10 -30 -21 -59 -25 -65 -4 -5 -18 -41 -31 -80 -22 -66 -47 -113
-76 -143 -7 -7 -13 -20 -13 -29 0 -8 -9 -27 -21 -41 -18 -24 -42 -62 -112
-182 -11 -19 -29 -52 -39 -72 -10 -20 -22 -39 -27 -43 -13 -7 -151 -294 -151
-312 0 -5 -8 -19 -17 -33 -9 -13 -18 -32 -18 -42 -1 -10 -9 -26 -17 -35 -9
-10 -19 -42 -23 -70 -4 -29 -11 -53 -16 -53 -5 0 -6 15 -3 33 5 30 4 30 -11
-8 -9 -22 -22 -62 -30 -90 -7 -27 -18 -62 -24 -77 -6 -15 -13 -49 -17 -75 -3
-25 -12 -63 -19 -82 -24 -69 -32 -136 -41 -356 -4 -92 -11 -153 -18 -157 -8
-5 -7 -11 2 -20 17 -17 15 -29 -3 -22 -9 4 -15 0 -15 -10 0 -9 5 -16 11 -16 7
0 10 -12 7 -28 -2 -16 2 -34 9 -40 7 -7 10 -18 7 -26 -8 -21 23 -117 47 -142
12 -13 16 -24 10 -28 -8 -6 17 -97 48 -171 19 -46 61 -186 61 -204 0 -11 5
-23 10 -26 6 -3 10 -21 10 -40 0 -19 4 -36 9 -39 14 -9 22 -98 10 -112 -6 -8
-15 -11 -20 -8 -16 9 -10 -73 6 -86 19 -16 19 -44 0 -60 -21 -18 -23 -490 -1
-490 9 0 16 18 20 53 12 91 18 120 27 144 13 35 11 157 -3 171 -9 9 -7 13 5
18 21 8 22 24 2 24 -8 0 -15 5 -15 10 0 6 5 10 10 10 6 0 10 42 10 105 0 58
-4 104 -9 102 -5 -1 -9 3 -9 8 0 6 4 9 9 8 5 -2 9 1 9 6 0 5 10 11 23 14 21 3
21 4 -5 15 -24 10 -28 18 -29 54 -2 53 -2 49 7 72 6 15 4 18 -8 14 -25 -10
-33 4 -52 87 -10 44 -27 102 -37 129 -10 27 -16 53 -13 57 2 4 0 10 -6 14 -5
3 -10 13 -10 22 0 9 -6 21 -14 27 -15 12 -29 86 -16 86 5 0 11 -8 13 -18 3 -9
5 7 6 36 0 30 -3 51 -8 48 -5 -3 -7 -15 -4 -25 3 -10 0 -22 -6 -25 -16 -10
-25 42 -13 69 9 20 8 24 -13 29 -14 4 -27 16 -30 29 -7 27 0 356 9 417 4 25 8
63 10 85 1 22 4 42 5 45 2 3 4 25 6 50 5 71 38 221 46 209 4 -7 12 12 18 40
14 65 14 81 0 81 -8 0 -8 5 1 15 7 8 15 13 19 11 4 -3 15 23 25 57 10 34 25
71 32 82 8 11 14 32 14 47 0 16 4 28 8 28 4 0 14 17 21 38 16 45 59 141 72
162 5 8 12 22 15 30 24 58 40 87 59 102 13 10 30 35 39 55 9 21 30 61 45 88
16 28 41 73 56 100 15 28 33 57 40 65 7 8 16 26 20 39 4 13 18 35 31 48 13 13
24 30 24 38 0 7 8 13 18 12 19 -1 72 31 72 44 0 13 -17 11 -26 -2 -5 -8 -8 -8
-14 0 -11 19 13 79 33 85 11 2 16 10 12 16 -3 6 -1 27 6 48 7 20 12 41 11 45
-1 5 7 20 18 34 11 14 20 32 20 40 0 7 7 16 15 19 8 4 15 16 15 28 0 29 10 39
27 25 10 -9 13 -8 13 5 0 9 -4 16 -10 16 -47 0 82 199 144 223 10 4 20 16 23
26 4 15 18 21 64 26 32 4 57 10 55 14 -2 3 20 7 50 8 45 1 54 -1 54 -15 0 -14
2 -14 9 -3 5 8 14 10 21 6 7 -4 55 -10 106 -12 l94 -4 49 -49 c27 -27 61 -52
77 -56 16 -4 31 -10 34 -14 3 -3 30 -26 60 -49 150 -117 211 -176 229 -221 48
-125 64 -215 67 -375 1 -88 3 -164 3 -168 1 -4 16 -14 34 -22 17 -8 26 -14 20
-15 -15 0 -18 -30 -3 -30 6 0 10 -7 10 -16 0 -13 -6 -11 -27 10 -18 18 -29 23
-34 15 -4 -8 -19 -10 -39 -5 -19 3 -38 1 -46 -5 -11 -9 -14 -7 -15 7 0 11 -3
14 -6 7 -7 -18 -33 -16 -33 1 0 23 54 76 86 85 28 7 28 8 8 19 -17 9 -26 6
-57 -21 -21 -18 -37 -37 -37 -44 0 -6 -3 -13 -7 -15 -15 -6 -44 -82 -50 -129
-3 -26 -2 -72 1 -102 6 -49 11 -56 42 -73 35 -19 44 -39 22 -47 -10 -3 -10 -8
-2 -17 8 -8 14 -8 18 -1 5 7 15 7 31 1 27 -10 74 2 87 23 4 7 16 1 34 -18 l27
-30 -7 28 c-6 25 -5 27 12 18 10 -5 24 -21 32 -35 7 -14 17 -26 21 -26 5 0 19
-10 32 -22 36 -34 109 -92 122 -98 24 -10 75 -79 81 -107 4 -19 0 -42 -9 -59
-27 -51 -134 -139 -200 -163 -36 -14 -37 -14 -37 4 0 19 -13 19 -52 -1 -17 -9
-56 -17 -86 -19 -36 -1 -57 -7 -63 -17 -15 -28 -141 -32 -231 -8 -42 11 -84
17 -92 14 -9 -3 -16 -1 -16 4 0 7 -10 8 -27 3 -16 -5 -37 -5 -48 0 -11 4 -16
8 -11 8 6 1 1 7 -9 15 -12 8 -27 11 -39 6 -15 -5 -49 8 -123 46 -57 29 -113
60 -125 68 -23 17 -58 22 -58 9 1 -12 57 -48 140 -89 57 -29 70 -39 55 -44
-18 -6 -18 -7 0 -14 11 -4 22 -2 27 6 7 10 10 10 18 -3 5 -8 35 -24 67 -34 32
-10 67 -21 78 -25 88 -34 285 -55 285 -31 0 4 22 6 48 3 29 -2 74 3 113 13 35
10 79 19 98 21 19 2 39 8 45 14 5 5 22 10 36 10 14 0 36 7 48 16 28 19 35 14
62 -41 12 -25 26 -45 31 -45 13 0 11 -24 -6 -56 -8 -16 -11 -32 -5 -39 9 -11
-10 -45 -26 -45 -5 -1 -27 -26 -49 -56 -44 -62 -105 -98 -165 -97 -19 0 -37
-3 -40 -8 -9 -14 -111 -20 -126 -8 -7 6 -19 7 -26 3 -7 -5 -23 -7 -35 -5 -13
1 -23 -2 -23 -7 0 -12 -62 -21 -162 -24 -43 -1 -78 -6 -78 -10 0 -4 -19 -8
-43 -8 -31 0 -45 5 -55 20 -7 11 -19 20 -28 20 -11 0 -14 5 -10 17 7 18 -9 32
-39 33 -21 1 -75 43 -75 58 0 6 -7 12 -15 16 -8 3 -15 12 -15 21 0 8 -8 15
-17 15 -19 1 -103 74 -103 90 0 4 -4 10 -9 12 -19 7 -101 118 -101 137 0 12
-4 21 -10 21 -5 0 -10 4 -10 9 0 6 -11 22 -25 37 -13 14 -24 29 -24 33 2 13
-14 51 -20 51 -4 0 -23 34 -42 75 -39 87 -68 104 -38 23 49 -132 170 -350 219
-396 13 -12 19 -25 15 -33 -5 -8 -4 -10 3 -5 7 4 12 1 12 -7 0 -8 7 -17 15
-21 8 -3 15 -12 15 -20 0 -8 20 -31 45 -52 25 -20 44 -42 42 -48 -2 -6 3 -16
12 -23 14 -10 13 -15 -5 -50 -11 -21 -25 -38 -31 -38 -6 0 -15 -3 -19 -7 -4
-5 -2 -8 4 -8 8 0 9 -7 3 -22 -10 -24 -40 -201 -40 -228 0 -8 -3 -25 -6 -37
-5 -15 -3 -23 5 -23 14 0 4 -71 -11 -81 -16 -9 -23 -211 -11 -276 15 -75 26
-493 23 -795 l-3 -238 31 0 c28 0 30 2 26 28 -17 102 -25 226 -24 342 2 119
-3 304 -16 550 -6 132 16 504 33 536 9 18 23 77 28 119 5 42 26 111 40 132 8
12 14 31 14 43 0 11 5 20 10 20 6 0 10 -5 10 -11 0 -5 16 -17 35 -25 19 -8 35
-19 35 -24 0 -6 30 -10 69 -10 37 0 91 -4 119 -10 51 -9 110 0 122 19 3 7 26
5 63 -3 39 -9 72 -11 103 -5 25 5 50 7 54 4 4 -3 19 4 33 15 14 11 28 16 31
11 6 -9 13 -9 71 5 26 5 27 7 11 13 -14 6 0 12 52 25 84 20 127 40 163 75 15
14 33 31 42 38 10 8 17 38 22 90 4 43 8 87 11 98 2 11 1 15 -2 9 -8 -18 -46
-4 -39 14 3 8 -1 22 -8 31 -8 9 -19 30 -25 48 -10 30 -8 34 49 91 32 33 59 66
59 74 0 10 3 9 11 -2 8 -11 9 -5 4 25 -18 107 -10 93 -129 203 -20 19 -36 38
-36 44 0 5 -6 8 -12 6 -7 -3 -18 0 -24 6 -6 6 -23 20 -37 31 -15 11 -27 24
-27 29 0 18 -71 75 -86 69 -8 -3 -14 1 -14 10 0 9 8 18 18 21 26 9 44 53 27
69 -8 8 -10 19 -4 33 5 16 2 28 -13 44 -27 29 -12 43 32 30 44 -12 80 -13 80
-1 0 5 -18 12 -40 16 -22 4 -40 11 -40 16 0 11 7 11 46 0 40 -11 66 2 36 18
-12 6 -25 11 -29 10 -24 -4 -23 4 6 31 17 17 31 33 31 36 0 7 -51 0 -90 -11
-24 -7 -23 -6 9 29 39 41 30 46 -24 14 -30 -17 -38 -19 -45 -8 -5 8 -7 17 -4
21 2 4 4 52 4 106 -1 54 -1 113 0 132 0 18 -6 41 -13 50 -8 9 -18 38 -22 64
-3 27 -8 57 -10 67 -4 23 -47 124 -55 130 -4 3 -9 13 -13 22 -3 9 -31 33 -61
52 -31 20 -56 40 -56 45 0 5 -16 16 -35 25 -19 9 -38 23 -42 31 -9 15 -82 67
-99 69 -6 1 -35 22 -65 48 -30 25 -63 48 -75 52 -11 3 -72 11 -135 16 -63 6
-127 12 -144 15 -16 2 -43 0 -60 -6z m733 -1141 c-2 -70 16 -108 51 -108 12 0
12 3 3 12 -7 7 -12 21 -12 31 0 16 2 17 15 7 13 -11 18 -10 30 6 8 10 15 26
15 35 0 22 30 34 30 13 0 -21 -29 -74 -40 -74 -6 0 -10 -4 -10 -10 0 -17 25
-11 43 10 9 11 17 27 17 35 0 7 5 17 10 20 13 8 13 -19 -2 -67 -12 -41 -61
-88 -91 -88 -31 0 -85 41 -96 72 -12 35 -13 133 -2 163 8 19 8 19 19 0 11 -18
12 -16 6 10 -4 23 -3 26 5 15 6 -8 10 -45 9 -82z m36 -12 c-4 -26 -10 -43 -14
-39 -10 12 1 106 11 96 5 -5 6 -31 3 -57z m76 -746 c0 -12 -40 -34 -48 -26 -3
4 3 13 14 21 22 17 34 19 34 5z m-302 -24 c22 -8 51 -12 64 -10 21 5 21 4 5
-6 -28 -18 -144 1 -131 21 7 12 15 11 62 -5z m582 -215 c0 -5 -7 -14 -15 -21
-8 -7 -15 -19 -15 -26 0 -8 -7 -14 -15 -14 -12 0 -11 7 7 35 22 33 38 45 38
26z"/>
<path d="M1351 3825 c-11 -20 -31 -73 -44 -117 -20 -69 -25 -78 -31 -57 -7 20
-9 21 -13 6 -3 -10 7 -36 21 -57 22 -33 23 -40 11 -50 -19 -16 -19 -31 0 -24
8 4 15 12 15 19 0 7 7 16 16 19 13 5 14 9 4 21 -7 9 -10 32 -7 62 9 79 14 97
41 151 29 57 30 62 17 62 -5 0 -18 -16 -30 -35z"/>
<path d="M1488 3722 c-3 -62 -8 -83 -27 -109 -13 -17 -20 -36 -17 -42 10 -16
26 -13 26 5 0 9 16 32 35 51 24 24 35 43 32 57 -3 20 -4 20 -15 -4 -9 -22 -11
-16 -11 42 -1 94 -18 94 -23 0z"/>
<path d="M1210 3695 c0 -8 9 -19 20 -25 23 -12 25 -7 10 21 -13 22 -30 25 -30
4z"/>
<path d="M1635 3591 c-8 -50 -79 -124 -111 -118 -19 3 -22 -1 -22 -41 -1 -46
-30 -92 -59 -92 -7 0 -22 -8 -33 -17 -22 -19 -23 -19 -72 -23 l-33 -2 28 -10
c27 -9 28 -13 23 -47 -4 -20 -7 -45 -8 -56 -2 -25 19 -165 25 -172 3 -2 22 -1
42 3 25 4 39 13 42 25 3 11 9 19 13 19 15 0 33 129 22 158 -23 58 -23 88 -3
123 10 19 22 48 26 65 5 26 12 33 39 38 23 4 36 13 39 27 3 11 15 23 26 26 12
3 21 14 21 24 0 11 7 22 15 25 11 5 13 13 9 28 -4 11 -7 29 -6 39 2 34 -16 16
-23 -22z m-182 -318 c16 -18 30 -176 14 -166 -7 4 -32 -46 -29 -59 3 -15 -36
-8 -49 8 -16 20 -15 199 2 220 16 19 43 18 62 -3z"/>
<path d="M1474 3538 c3 -7 9 -21 12 -30 10 -29 21 -21 16 12 -2 18 -10 30 -19
30 -8 0 -12 -6 -9 -12z"/>
<path d="M1260 3465 c0 -19 4 -35 9 -35 11 0 24 48 16 60 -13 21 -25 8 -25
-25z"/>
<path d="M1264 3383 c6 -25 1 -33 -32 -61 -31 -26 -38 -38 -34 -58 5 -29 26
-27 30 4 2 11 14 31 27 44 27 27 37 88 16 96 -10 3 -12 -3 -7 -25z"/>
<path d="M1656 3344 c-3 -9 -6 -24 -6 -34 0 -11 -11 -31 -24 -47 -21 -24 -27
-26 -47 -16 -13 6 -37 11 -54 12 -29 0 -29 0 -10 -14 11 -9 25 -13 32 -11 7 3
13 1 13 -4 0 -17 56 -11 74 9 9 10 23 38 30 62 9 29 14 36 15 22 1 -13 5 -23
10 -23 6 0 6 12 0 30 -12 33 -24 38 -33 14z"/>
<path d="M1645 3102 c-58 -58 -72 -101 -81 -252 -5 -85 -3 -109 9 -125 9 -11
19 -17 23 -13 4 4 1 14 -6 23 -13 15 -10 208 3 221 4 4 7 20 7 36 0 15 9 37
19 47 11 11 17 22 15 24 -3 3 10 17 29 31 38 29 97 45 97 27 0 -6 7 -11 15
-11 23 0 53 -35 64 -77 14 -49 14 -136 1 -128 -5 3 -10 15 -10 25 0 24 -12 31
-30 19 -13 -8 -12 -12 4 -24 16 -12 17 -17 6 -31 -13 -14 -15 -14 -27 2 -7 9
-10 20 -8 24 7 11 -58 10 -71 -1 -13 -11 -64 5 -76 24 -4 6 -10 8 -14 4 -4 -4
-2 -13 4 -19 17 -17 15 -38 -3 -32 -10 4 -15 0 -15 -13 0 -20 29 -66 30 -48 0
6 -5 16 -11 22 -7 7 -7 13 -1 17 5 3 15 -1 22 -9 12 -14 15 -29 19 -78 2 -29
28 -31 56 -3 34 35 28 55 -7 23 -17 -15 -28 -21 -31 -14 -7 22 5 47 22 45 9
-2 15 3 14 10 -2 6 6 12 17 12 11 0 20 -5 20 -10 0 -6 11 -8 25 -4 18 4 25 2
25 -8 0 -15 -43 -59 -75 -76 -18 -9 -18 -11 -3 -17 26 -10 74 21 88 57 22 59
33 77 42 72 5 -3 6 -24 3 -46 -8 -47 9 -45 18 2 4 19 13 30 24 31 16 0 15 2
-2 9 -19 9 -19 9 3 16 12 3 22 9 23 13 0 3 2 16 5 29 3 18 -1 22 -21 22 -14 0
-25 5 -25 10 0 6 12 10 27 10 32 0 116 47 108 61 -10 15 -29 11 -79 -16 -26
-14 -51 -25 -55 -25 -5 0 -11 18 -14 39 -6 47 -33 87 -64 96 -13 3 -23 10 -23
15 0 6 -20 10 -43 10 -39 0 -49 -5 -92 -48z"/>
<path d="M1167 3123 c-13 -12 -7 -43 8 -43 9 0 15 9 15 25 0 24 -10 32 -23 18z"/>
<path d="M801 3018 c-52 -103 -72 -138 -82 -138 -5 0 -9 -7 -9 -15 0 -16 -20
-56 -32 -65 -10 -8 -48 -93 -48 -108 0 -8 -7 -28 -14 -45 -39 -84 -87 -220
-105 -294 -11 -45 -23 -88 -27 -95 -5 -7 -7 -21 -6 -31 2 -10 -1 -24 -6 -30
-15 -20 -22 -63 -16 -96 9 -46 24 -38 24 13 0 24 7 57 15 72 8 16 15 36 15 45
0 9 14 61 31 115 17 55 33 110 35 123 3 14 11 36 19 50 8 14 23 51 34 82 41
116 173 399 199 427 11 12 17 52 8 52 -2 0 -18 -28 -35 -62z"/>
<path d="M1840 2761 c0 -41 -66 -91 -119 -91 -17 0 -31 -4 -31 -10 0 -15 57
-12 88 4 30 16 60 46 87 89 17 26 17 27 -4 27 -14 0 -21 -6 -21 -19z"/>
<path d="M2025 2720 c-6 -10 13 -50 30 -62 6 -4 17 -5 25 -2 8 3 20 7 27 8 7
1 16 5 19 9 8 7 -9 11 -38 8 -10 -1 -18 4 -18 13 0 19 -36 40 -45 26z"/>
<path d="M1967 2680 c6 -21 -3 -25 -102 -35 -131 -14 -125 -13 -125 -23 0 -10
82 -5 132 9 22 6 57 9 77 8 41 -3 81 8 81 22 0 5 -9 9 -20 9 -11 0 -20 7 -20
15 0 8 -6 15 -14 15 -9 0 -12 -7 -9 -20z"/>
<path d="M1210 2650 c-8 -5 -12 -10 -9 -10 3 0 30 -4 60 -9 30 -6 121 -13 203
-16 83 -3 154 -9 158 -11 11 -7 111 6 104 13 -7 8 -46 11 -224 17 -83 3 -162
8 -175 10 -60 12 -103 14 -117 6z"/>
<path d="M1175 2580 c-4 -6 -15 -8 -25 -5 -10 3 -21 2 -24 -3 -8 -13 36 -24
48 -12 11 11 76 -54 76 -77 0 -8 5 -11 10 -8 6 4 18 -3 28 -14 18 -21 72 -40
72 -24 0 4 -18 19 -40 33 -22 14 -40 30 -40 37 0 7 -7 13 -15 13 -9 0 -18 7
-21 15 -3 8 -14 17 -25 20 -10 4 -19 13 -19 21 0 16 -16 19 -25 4z"/>
<path d="M1317 2424 c-8 -8 7 -22 65 -61 28 -19 50 -28 54 -22 3 6 4 11 3 12
-33 17 -44 27 -41 39 1 9 -5 21 -13 28 -12 10 -18 10 -31 -1 -12 -10 -17 -10
-23 -1 -4 7 -10 9 -14 6z"/>
<path d="M2253 1834 c3 -16 0 -28 -9 -31 -24 -9 -15 -20 16 -20 33 0 38 8 15
27 -12 10 -13 15 -4 20 13 9 4 30 -13 30 -6 0 -8 -11 -5 -26z"/>
</g>
</svg>
