<?xml version="1.0" standalone="no"?>
<!DOCTYPE svg PUBLIC "-//W3C//DTD SVG 20010904//EN"
 "http://www.w3.org/TR/2001/REC-SVG-20010904/DTD/svg10.dtd">
<svg version="1.0" xmlns="http://www.w3.org/2000/svg"
 width="360" height="540" viewBox="0 0 300.000000 450.000000"
 preserveAspectRatio="xMidYMid meet" style="background-color:white">
<g transform="translate(0.000000,450.000000) scale(0.100000,-0.100000)"
fill="#000000" stroke="none">
<path d="M2535 4428 c-4 -10 -14 -18 -22 -18 -8 0 -11 -4 -8 -10 3 -5 -1 -10
-9 -10 -9 0 -16 -3 -16 -7 0 -5 -16 -9 -35 -10 -40 -2 -78 -20 -70 -33 3 -6
-1 -7 -9 -4 -11 4 -16 0 -16 -10 0 -9 -7 -16 -15 -16 -8 0 -23 -9 -32 -20 -10
-11 -21 -20 -26 -20 -5 0 -15 -6 -22 -12 -42 -38 -120 -93 -127 -91 -4 2 -15
-11 -23 -28 -10 -18 -22 -29 -30 -25 -7 2 -21 -6 -30 -20 -9 -14 -19 -22 -24
-20 -4 3 -14 -3 -22 -12 -8 -9 -37 -35 -64 -57 -27 -22 -61 -51 -76 -65 -15
-14 -31 -24 -38 -22 -6 2 -11 -3 -11 -12 0 -19 -50 -66 -70 -66 -9 0 -21 -10
-26 -22 -6 -13 -9 -16 -7 -8 2 8 -7 3 -20 -12 -13 -15 -27 -24 -31 -20 -4 4
-12 -1 -17 -10 -5 -10 -16 -15 -24 -12 -10 4 -15 0 -15 -15 0 -12 -4 -21 -10
-21 -5 0 -10 -7 -10 -16 0 -8 -4 -12 -10 -9 -5 3 -26 -12 -46 -33 l-36 -39
-53 31 c-30 17 -54 37 -55 44 0 8 -6 12 -12 9 -7 -2 -23 0 -36 4 -15 6 -21 5
-17 -1 3 -6 2 -10 -4 -10 -5 0 -12 4 -15 9 -6 10 -56 -9 -56 -21 0 -4 17 -5
37 -2 29 3 53 -3 103 -28 36 -18 70 -40 77 -48 27 -35 44 -54 38 -42 -8 15
134 160 201 205 26 18 58 40 72 49 14 9 30 14 36 12 7 -3 20 4 30 15 16 18 16
19 0 17 -9 0 -19 5 -22 13 -3 9 0 11 7 7 7 -5 28 7 49 26 21 18 55 47 76 63
21 17 51 42 66 57 16 15 48 39 72 54 24 14 52 37 63 50 11 13 65 56 120 94
156 110 188 130 200 127 5 -2 12 -24 15 -48 5 -45 44 -119 61 -119 6 0 7 6 2
13 -4 6 -6 20 -5 30 2 9 -3 17 -11 17 -8 0 -17 11 -19 24 -5 26 7 36 41 36 24
0 55 25 47 38 -5 8 -16 6 -38 -8 -57 -34 -74 4 -26 57 11 12 18 28 15 35 -3 9
-7 8 -12 -4z"/>
<path d="M2560 4421 c0 -12 50 -44 57 -37 9 8 -27 46 -44 46 -7 0 -13 -4 -13
-9z"/>
<path d="M2365 4216 c-26 -19 -12 -44 29 -52 44 -8 66 0 66 24 0 40 -56 57
-95 28z"/>
<path d="M294 4158 c-43 -31 -84 -51 -91 -44 -3 2 -19 -11 -37 -30 -25 -26
-32 -43 -31 -70 0 -19 -5 -40 -12 -46 -7 -6 -13 -22 -13 -37 l0 -26 13 25 c7
14 21 37 31 53 11 16 14 27 7 27 -21 0 -11 26 23 59 23 22 40 31 52 27 22 -6
35 1 50 29 21 38 140 22 167 -22 4 -7 16 -13 26 -13 21 0 64 -43 54 -54 -4 -4
1 -4 11 0 11 4 28 -1 44 -13 15 -11 37 -23 48 -27 29 -9 42 -44 37 -96 -8 -71
-5 -173 5 -200 8 -19 24 -29 74 -43 136 -40 204 -76 267 -141 33 -34 42 -52
78 -159 15 -45 17 -46 33 -30 16 17 16 18 -2 25 -16 7 -23 30 -19 64 1 7 -5
14 -13 17 -9 4 -13 15 -11 28 3 15 -7 35 -33 63 -20 23 -37 39 -38 36 -1 -7
-76 50 -90 69 -6 8 -16 11 -24 6 -7 -4 -15 -3 -19 3 -4 6 -29 17 -56 23 -28 7
-56 18 -64 24 -8 5 -21 9 -30 7 -18 -3 -47 60 -37 77 4 5 0 12 -6 15 -10 5
-10 7 -1 12 7 3 10 23 7 56 -3 29 0 56 6 63 8 10 8 19 0 35 -6 11 -8 26 -4 33
4 6 4 9 0 5 -8 -7 -46 26 -46 41 0 10 -38 24 -62 22 -9 -1 -22 7 -28 18 -6 12
-16 21 -23 21 -7 0 -35 15 -63 33 -28 18 -71 40 -96 48 -45 15 -46 15 -84 -13z"/>
<path d="M2532 4140 c-1 -22 -6 -60 -12 -84 -5 -25 -12 -64 -14 -88 -9 -81
-19 -173 -22 -193 -1 -11 -10 -81 -18 -155 -32 -264 -36 -314 -25 -325 7 -6
10 -7 9 0 -3 16 12 55 21 55 5 0 5 10 0 23 -4 12 -7 36 -5 52 6 78 17 150 23
155 3 3 7 33 8 67 1 34 7 72 13 83 8 14 8 20 0 20 -6 0 -9 4 -5 9 4 8 16 125
18 189 0 6 3 12 6 12 3 0 7 10 7 23 10 159 11 197 5 197 -4 0 -8 -18 -9 -40z"/>
<path d="M295 4080 c-22 -16 -45 -29 -52 -30 -14 0 -77 -79 -69 -87 3 -3 18 8
33 24 15 16 47 42 71 56 23 15 42 32 42 38 0 5 4 8 9 5 5 -3 14 1 21 9 22 26
-11 17 -55 -15z"/>
<path d="M369 4023 c-16 -14 -29 -30 -29 -36 0 -6 10 -1 23 11 23 22 53 31 42
12 -3 -5 0 -10 7 -10 7 0 19 9 25 19 10 16 9 20 -13 24 -17 3 -35 -3 -55 -20z"/>
<path d="M2359 4004 c-11 -14 -10 -20 14 -40 53 -45 107 -22 73 31 -19 29 -66
34 -87 9z"/>
<path d="M2070 3983 c-19 -7 -50 -34 -50 -43 0 -15 50 -16 80 -2 50 24 23 65
-30 45z"/>
<path d="M456 3961 c-9 -14 4 -41 20 -41 8 0 14 6 14 14 0 18 -26 40 -34 27z"/>
<path d="M206 3921 c-8 -9 -18 -29 -21 -46 l-7 -30 28 32 c27 30 32 32 64 24
19 -5 44 -12 55 -17 19 -8 19 -8 0 13 -11 11 -39 25 -62 30 -35 9 -44 8 -57
-6z"/>
<path d="M579 3888 c-11 -4 -25 -6 -29 -3 -11 7 -40 -5 -40 -15 0 -12 99 -10
106 1 3 5 10 7 15 4 5 -4 9 0 9 7 0 15 -28 18 -61 6z"/>
<path d="M150 3861 c0 -5 -3 -18 -6 -28 -5 -15 -4 -16 5 -3 8 11 9 2 5 -35 -4
-27 -15 -59 -24 -70 -17 -18 -17 -23 -4 -55 8 -19 26 -43 39 -53 21 -15 29
-16 47 -5 23 12 22 12 -11 19 -18 4 -37 13 -42 21 -12 18 -11 62 1 74 6 6 13
21 15 34 2 13 10 27 17 32 9 5 7 8 -8 8 -17 0 -20 5 -16 29 2 16 -1 32 -7 35
-6 4 -11 3 -11 -3z"/>
<path d="M272 3853 c4 -22 43 -25 43 -3 0 8 -11 16 -23 18 -19 3 -23 0 -20
-15z"/>
<path d="M420 3850 c0 -8 -9 -11 -29 -7 -24 5 -30 2 -35 -16 -7 -27 -4 -29 28
-21 26 6 53 40 42 52 -3 3 -6 0 -6 -8z"/>
<path d="M564 3825 c-10 -8 -29 -15 -40 -15 -12 0 -33 -9 -47 -20 -14 -11 -34
-20 -44 -20 -25 0 -63 -28 -63 -46 0 -8 -6 -14 -12 -14 -22 -1 -62 -36 -49
-44 17 -11 53 3 45 17 -4 7 -4 9 1 5 4 -4 15 -2 23 4 8 7 20 13 26 13 17 0 90
27 96 35 3 3 27 21 54 40 35 23 47 28 43 16 -4 -9 -3 -15 2 -12 13 8 10 56 -3
56 -7 0 -21 -7 -32 -15z"/>
<path d="M2050 3771 c-5 -11 -10 -24 -10 -29 0 -14 51 -32 75 -28 11 3 23 5
27 5 14 2 19 42 8 56 -19 23 -87 19 -100 -4z m70 -16 c0 -8 -4 -15 -10 -15 -5
0 -13 -1 -17 -2 -3 -2 -7 5 -9 15 -1 11 4 17 17 17 10 0 19 -7 19 -15z"/>
<path d="M2360 3775 c-26 -31 34 -100 66 -74 20 16 18 53 -4 72 -23 21 -46 22
-62 2z"/>
<path d="M194 3741 c-1 -21 3 -28 15 -26 18 2 42 -55 36 -87 -3 -13 0 -18 9
-15 8 3 18 1 24 -5 6 -6 12 -6 16 0 3 5 -1 15 -9 22 -21 18 -19 58 5 72 21 13
27 38 10 38 -5 0 -10 -4 -10 -9 0 -5 -10 -11 -22 -15 -18 -4 -29 1 -48 24
l-25 31 -1 -30z"/>
<path d="M585 3750 c-9 -10 -20 -18 -24 -17 -3 1 -25 -11 -48 -27 -24 -16 -54
-28 -67 -28 -14 0 -27 -7 -30 -15 -3 -8 -2 -12 3 -8 5 3 20 1 33 -4 25 -10 25
-10 -44 -31 -32 -10 -39 -17 -54 -63 -9 -29 -23 -56 -31 -60 -7 -5 -11 -12 -8
-17 3 -5 -3 -26 -14 -47 -11 -21 -33 -68 -50 -105 -17 -38 -35 -68 -40 -68 -5
0 -7 -9 -4 -21 4 -12 -3 -32 -15 -48 -27 -37 -31 -85 -9 -111 9 -11 17 -27 17
-36 0 -8 4 -13 9 -10 5 3 11 -3 14 -14 4 -15 63 -43 74 -35 2 1 -22 28 -52 61
-30 32 -55 65 -55 72 0 7 10 32 22 55 12 23 59 125 104 226 80 180 83 184 126
206 51 25 118 65 118 71 0 5 -33 -8 -47 -19 -9 -6 -13 -6 -13 2 0 6 4 11 8 11
13 0 107 89 101 95 -3 3 -14 -4 -24 -15z"/>
<path d="M1736 3699 c-35 -28 -33 -39 8 -39 35 0 90 35 81 51 -11 16 -62 10
-89 -12z"/>
<path d="M1224 3645 c3 -8 9 -22 12 -30 3 -8 2 -15 -4 -15 -6 0 -8 -9 -5 -20
3 -11 9 -20 13 -20 12 0 19 63 8 83 -11 21 -33 23 -24 2z"/>
<path d="M1286 3588 c-8 -33 -7 -40 5 -32 6 3 15 0 20 -7 4 -7 11 -10 15 -6 4
4 -1 14 -12 23 -17 14 -18 15 -1 10 10 -3 21 -6 23 -6 2 0 4 -8 4 -18 0 -19
25 -36 70 -47 l25 -6 -25 20 c-14 11 -31 21 -38 21 -7 0 -11 4 -8 9 7 11 -39
61 -57 61 -8 0 -17 -10 -21 -22z"/>
<path d="M1400 3561 c0 -12 13 -20 50 -31 39 -11 38 -7 -6 19 -40 24 -44 25
-44 12z"/>
<path d="M2066 3544 c-22 -22 -20 -30 13 -53 31 -22 66 -21 90 4 13 13 12 17
-9 40 -27 29 -71 33 -94 9z"/>
<path d="M2376 3547 c-13 -10 -16 -20 -12 -35 8 -24 33 -52 46 -52 16 0 23 69
10 85 -15 18 -21 19 -44 2z"/>
<path d="M1728 3529 c-10 -5 -18 -15 -18 -21 0 -17 33 -37 61 -38 34 0 62 22
58 46 -3 14 -14 20 -44 21 -22 2 -48 -2 -57 -8z"/>
<path d="M1286 3513 c-8 -20 17 -43 48 -44 21 0 21 -1 1 -9 -14 -6 -15 -9 -5
-10 8 -1 30 -3 48 -6 21 -2 31 0 27 6 -3 6 -10 10 -14 10 -5 0 -30 9 -56 21
-31 14 -43 24 -35 29 8 5 8 10 2 14 -5 3 -13 -2 -16 -11z"/>
<path d="M1544 3518 c3 -20 55 -68 61 -57 15 23 66 -3 57 -30 -3 -10 0 -11 16
-2 27 14 32 14 32 -3 0 -8 5 -16 10 -18 6 -2 2 -13 -9 -25 -13 -14 -18 -29
-14 -44 5 -23 5 -23 -10 -4 -8 10 -28 20 -43 21 -16 1 -33 3 -39 3 -5 1 -4 5
4 10 7 5 9 11 4 14 -6 4 -15 -5 -21 -18 -13 -28 -1 -41 26 -26 27 15 72 -25
77 -68 6 -43 24 -65 26 -31 2 31 2 28 -5 73 -5 28 -3 37 9 37 18 0 44 -49 37
-70 -4 -11 -2 -11 11 2 14 14 15 21 5 42 -6 14 -15 26 -20 26 -4 0 -8 8 -8 18
0 14 -2 15 -10 2 -8 -13 -10 -13 -10 1 0 32 25 41 59 22 17 -10 31 -21 31 -25
0 -5 6 -8 14 -8 7 0 19 -7 26 -15 7 -8 21 -15 31 -15 23 0 25 -16 4 -24 -8 -3
-14 -13 -14 -23 1 -15 2 -16 6 -2 2 9 15 19 29 22 31 6 76 -14 69 -30 -4 -12
8 -18 29 -14 5 1 4 -4 -3 -13 -8 -10 -9 -16 -1 -21 5 -3 13 0 16 8 2 7 11 14
19 14 19 0 19 -6 -2 -30 -17 -20 -17 -20 0 -14 11 4 28 1 40 -8 29 -21 54 -21
37 0 -10 13 -9 15 9 15 11 0 26 -9 33 -20 7 -11 21 -20 31 -20 30 0 77 -29 77
-48 -1 -15 -2 -15 -15 2 -8 11 -15 14 -15 7 0 -7 -5 -9 -10 -6 -6 4 -8 11 -5
16 9 13 -22 11 -46 -3 -17 -10 -23 -10 -26 0 -3 6 -16 12 -29 12 -14 0 -41 7
-61 15 -52 22 -79 19 -114 -13 -43 -38 -60 -89 -41 -119 8 -13 19 -23 24 -23
6 0 5 6 -2 14 -8 10 -8 21 -2 32 5 9 7 26 5 38 -4 18 -1 17 17 -6 34 -43 91
-35 137 19 24 29 57 26 47 -4 -5 -15 -4 -15 5 -3 11 16 68 23 77 9 3 -5 20 -9
37 -9 36 -1 72 -23 62 -39 -3 -6 -17 -11 -30 -11 -13 0 -27 -5 -31 -12 -5 -8
3 -9 28 -5 39 6 64 -9 48 -28 -7 -9 -5 -16 5 -25 9 -7 18 -11 20 -8 9 8 -16
68 -28 68 -7 0 -6 4 3 9 8 6 19 7 25 3 5 -4 21 -8 35 -9 24 -2 24 -2 5 10 -11
6 -42 34 -68 60 -46 46 -211 142 -228 132 -4 -3 -5 -14 -2 -25 3 -11 1 -20 -5
-20 -12 0 -26 36 -19 48 5 7 -334 205 -403 235 -112 49 -129 54 -126 35z m535
-387 c-7 -2 -21 -14 -31 -25 -17 -21 -17 -21 -18 -1 0 13 -7 21 -19 21 -12 0
-17 -6 -13 -18 5 -22 -20 -24 -37 -4 -26 31 47 63 78 34 11 -11 13 -10 8 4 -5
15 -3 16 20 5 16 -7 20 -13 12 -16z"/>
<path d="M1455 3470 c-31 -8 -29 -12 5 -12 40 0 50 2 50 12 0 11 -11 11 -55 0z"/>
<path d="M1510 3439 c0 -6 -7 -9 -15 -5 -8 3 -15 1 -15 -4 0 -10 59 -25 67
-16 7 7 -16 36 -28 36 -5 0 -9 -5 -9 -11z"/>
<path d="M1390 3411 c-33 -4 -40 -8 -27 -13 26 -11 79 -10 73 1 -4 5 0 12 6
14 15 6 8 6 -52 -2z"/>
<path d="M1041 3280 c-9 -81 -10 -115 -2 -123 18 -18 13 -44 -9 -50 -13 -3
-20 0 -20 9 0 8 -5 14 -10 14 -6 0 -35 26 -65 59 -32 33 -67 61 -83 65 -15 3
-37 8 -49 12 -21 6 -23 3 -23 -35 0 -23 -6 -74 -14 -114 -25 -125 -28 -155
-17 -162 18 -10 3 -24 -20 -18 -13 4 -18 11 -14 20 3 10 1 13 -9 10 -8 -3 -20
1 -28 10 -7 9 -55 50 -106 91 -51 41 -96 80 -99 88 -9 25 -22 15 -28 -23 -4
-21 -15 -64 -25 -95 -10 -32 -15 -58 -10 -58 5 0 12 11 16 25 10 41 134 73
134 34 0 -5 6 -9 13 -9 14 -1 87 -66 87 -79 0 -4 -9 -16 -20 -26 -11 -10 -18
-20 -15 -23 2 -3 -3 -10 -12 -17 -11 -8 -12 -14 -5 -19 6 -3 27 9 46 29 40 40
43 41 74 19 16 -11 21 -22 17 -35 -5 -15 -1 -19 14 -19 23 0 25 7 12 43 -6 14
-7 28 -4 31 10 10 11 66 1 66 -5 0 -4 9 2 20 14 26 26 25 34 -2 8 -29 34 -63
42 -55 3 3 -3 18 -14 34 -40 57 -53 147 -24 169 13 11 14 15 4 22 -21 14 -3
45 22 38 11 -3 27 -6 34 -6 6 0 12 -5 12 -10 0 -6 11 -21 25 -34 13 -13 22
-26 18 -29 -3 -4 1 -7 10 -7 24 0 19 -55 -8 -88 -3 -4 -55 47 -55 54 0 3 -9
14 -19 25 -12 13 -21 17 -26 10 -3 -6 -1 -11 4 -11 6 0 11 -4 11 -9 0 -5 15
-31 33 -58 17 -26 43 -71 57 -98 14 -28 28 -52 31 -55 10 -8 57 -92 75 -132
15 -36 43 -56 30 -22 -3 9 -6 27 -6 40 0 17 -4 23 -12 18 -10 -7 -9 7 6 92 1
6 9 22 18 35 13 21 14 28 2 44 -8 10 -17 15 -21 10 -5 -4 -2 -10 5 -12 17 -6
15 -16 -8 -43 -11 -12 -17 -27 -14 -31 3 -5 -1 -9 -8 -9 -11 0 -11 -2 0 -9 10
-6 9 -11 -4 -22 -12 -9 -15 -10 -10 -1 4 7 1 12 -8 12 -10 0 -13 6 -10 15 4 8
-1 17 -10 21 -9 3 -16 13 -16 21 0 8 -7 21 -15 29 -8 9 -15 23 -15 32 1 13 4
11 14 -7 8 -15 16 -20 20 -12 4 6 18 11 32 11 13 0 24 5 24 10 0 6 -13 10 -29
10 -46 0 -59 8 -53 35 10 53 74 63 80 13 2 -16 8 -28 13 -28 6 0 8 4 5 9 -4 5
-1 11 5 13 6 2 12 15 12 29 0 21 4 25 26 24 14 -1 37 -5 50 -10 20 -6 23 -5
18 10 -4 9 -7 19 -7 21 0 10 -29 3 -33 -8 -3 -8 -6 -9 -6 -2 -1 7 -12 9 -28 6
-21 -4 -25 -2 -20 12 4 9 2 16 -3 16 -16 0 -11 37 6 44 21 8 34 -1 34 -24 0
-24 28 -34 32 -12 2 9 -7 27 -19 40 -13 13 -23 27 -23 32 0 6 -6 10 -13 10
-10 0 -13 13 -9 53 2 28 0 63 -5 76 -7 18 -12 -2 -22 -89z m-551 -182 c0 -5 4
-7 9 -3 5 3 12 1 16 -5 3 -5 -6 -15 -20 -20 -37 -14 -55 -12 -50 5 3 8 7 22
10 30 5 16 35 10 35 -7z"/>
<path d="M1455 3369 c-3 -4 -12 -6 -20 -2 -8 3 -15 0 -15 -6 0 -6 6 -11 14
-11 8 0 16 -5 18 -10 2 -6 17 -8 36 -4 25 5 30 10 22 19 -14 17 -48 26 -55 14z"/>
<path d="M1215 3340 c3 -5 12 -7 20 -3 8 3 15 0 15 -7 0 -6 5 -8 10 -5 6 3 10
2 10 -3 0 -5 11 -12 25 -14 37 -7 30 11 -10 28 -39 16 -79 19 -70 4z"/>
<path d="M2086 3327 c-9 -7 -16 -19 -14 -27 4 -17 43 -40 67 -40 13 1 11 4 -6
19 -13 11 -23 25 -23 33 0 7 13 -3 30 -22 27 -32 31 -34 46 -18 15 15 15 18
-9 42 -28 28 -63 33 -91 13z"/>
<path d="M1816 3304 c-5 -19 -1 -30 16 -44 13 -11 26 -19 31 -20 15 0 6 26
-13 38 -11 6 -17 18 -14 26 3 8 1 17 -4 20 -6 3 -13 -6 -16 -20z"/>
<path d="M2374 3317 c-11 -29 0 -72 19 -75 16 -3 18 2 15 39 -3 43 -23 64 -34
36z"/>
<path d="M1360 3299 c0 -14 29 -43 46 -45 27 -4 12 24 -23 44 -16 8 -23 9 -23
1z"/>
<path d="M1601 3301 c-9 -6 -5 -14 17 -30 29 -20 30 -20 25 -1 -7 26 -26 41
-42 31z"/>
<path d="M1929 3263 c-12 -14 -12 -16 0 -8 11 6 12 1 6 -31 l-7 -39 21 19 c22
20 28 46 10 46 -5 0 -8 4 -4 9 10 18 -13 21 -26 4z"/>
<path d="M2426 3244 c-21 -143 -19 -156 17 -114 9 11 31 23 47 27 27 5 42 22
23 24 -5 0 -16 2 -25 4 -10 2 -18 -1 -18 -6 0 -4 -6 -6 -12 -4 -8 3 -13 22
-12 45 1 55 -13 71 -20 24z"/>
<path d="M1740 3214 c1 -11 7 -30 15 -44 l14 -25 1 31 c0 17 -7 37 -15 44 -12
10 -15 9 -15 -6z"/>
<path d="M1580 3189 c-52 -19 -149 -20 -194 -3 -9 3 -13 -1 -13 -13 1 -12 -6
-19 -21 -21 -12 -2 -20 -8 -17 -13 4 -5 -1 -9 -9 -9 -10 0 -13 -6 -9 -16 4
-11 -1 -22 -12 -30 -17 -13 -17 -14 11 -14 22 0 25 3 14 10 -12 8 -12 10 3 16
9 3 15 9 12 14 -2 4 8 13 23 21 15 8 30 18 33 23 4 5 15 5 25 1 23 -10 59 -10
100 -1 28 6 32 4 38 -18 10 -40 48 -59 102 -53 40 4 47 2 51 -14 7 -24 23 -25
23 -1 0 31 -20 90 -38 110 -25 29 -60 32 -122 11z m104 -35 c11 -28 7 -42 -14
-47 -26 -7 -61 3 -54 15 3 5 11 5 19 -2 9 -7 16 -6 24 4 10 12 8 16 -9 21 -12
4 -27 2 -33 -4 -15 -15 -27 -14 -27 3 0 27 84 35 94 10z"/>
<path d="M1871 3178 c-15 -44 -14 -69 2 -42 6 12 18 31 24 42 10 16 10 21 -1
25 -10 4 -18 -5 -25 -25z"/>
<path d="M1172 3183 c12 -15 66 -17 88 -3 12 8 10 10 -10 11 -90 6 -90 6 -78
-8z"/>
<path d="M2503 3126 c-26 -12 -39 -36 -20 -36 15 0 28 9 46 33 15 19 7 20 -26
3z"/>
<path d="M1430 3072 c1 -4 10 -18 20 -31 17 -19 23 -21 35 -11 12 10 15 10 15
-1 0 -18 -61 -66 -94 -75 -14 -3 -26 -11 -26 -16 0 -6 11 -7 25 -4 44 11 75
25 75 35 0 5 8 8 18 6 9 -1 11 0 5 2 -18 6 -16 23 2 23 8 0 15 6 15 13 0 7 15
13 35 14 19 2 47 4 63 5 15 1 32 0 37 -3 6 -2 11 1 13 6 1 6 -18 13 -44 17
-26 4 -52 12 -57 17 -13 13 -37 14 -37 2 0 -5 10 -12 23 -16 l22 -8 -23 -4
c-14 -3 -29 2 -35 10 -12 15 -87 31 -87 19z"/>
<path d="M2076 3052 c-17 -8 -42 -15 -58 -14 -44 1 -42 -15 2 -20 22 -2 40 0
40 4 0 5 8 8 18 8 9 0 23 9 30 20 14 23 8 24 -32 2z"/>
<path d="M2150 3039 c0 -11 -4 -18 -9 -14 -5 3 -12 1 -16 -5 -3 -5 -17 -10
-31 -10 -39 0 -19 -17 25 -22 23 -2 39 1 38 7 -1 5 4 9 11 8 6 -2 12 2 12 7 0
6 -5 10 -11 10 -6 0 -8 9 -4 20 4 11 2 20 -4 20 -6 0 -11 -9 -11 -21z"/>
<path d="M518 3025 c-10 -13 -18 -29 -18 -35 0 -15 -50 -32 -78 -27 -14 3 -21
0 -19 -7 5 -12 20 -13 56 -1 l23 7 -22 -40 c-19 -34 -26 -39 -44 -33 -11 5
-21 16 -21 26 0 10 -6 20 -14 23 -9 3 -12 0 -8 -10 3 -9 0 -21 -6 -27 -8 -8
-5 -11 11 -11 14 0 26 -9 31 -24 5 -13 19 -26 30 -29 23 -6 27 3 9 21 -9 9 -8
12 7 12 10 0 15 3 12 7 -4 3 -1 13 7 22 8 9 15 19 16 23 8 34 14 48 21 48 5 0
5 7 2 17 -5 12 -3 14 7 8 8 -5 11 -4 6 3 -3 6 1 17 9 26 8 8 12 17 8 19 -5 3
-16 -6 -25 -18z"/>
<path d="M1282 3023 c-20 -3 -32 -9 -29 -16 5 -17 45 -21 63 -7 15 13 19 31 7
28 -5 0 -23 -3 -41 -5z"/>
<path d="M2204 3019 c-11 -19 10 -27 46 -16 31 8 33 10 15 18 -29 11 -53 11
-61 -2z"/>
<path d="M1630 2995 c-8 -9 -22 -14 -32 -11 -12 3 -18 0 -15 -7 5 -15 47 -22
47 -8 0 6 7 8 15 5 16 -7 19 4 6 24 -6 10 -11 10 -21 -3z"/>
<path d="M1977 2983 c-4 -3 -7 -10 -7 -14 0 -8 101 -32 107 -25 3 3 -12 8 -33
11 -22 4 -44 13 -50 21 -6 8 -14 11 -17 7z"/>
<path d="M2495 2975 c-11 -9 -15 -14 -10 -12 6 3 28 -3 50 -13 43 -20 51 -19
42 4 -4 9 -13 13 -22 10 -10 -4 -15 -2 -13 7 4 19 -25 22 -47 4z"/>
<path d="M242 2963 c6 -7 16 -13 22 -13 17 -1 50 -51 39 -59 -16 -9 -27 -71
-13 -71 6 0 13 8 17 18 3 9 12 24 20 33 11 13 11 23 1 55 -12 36 -17 40 -55
45 -34 4 -40 3 -31 -8z"/>
<path d="M1154 2955 c-17 -23 -18 -35 -4 -35 6 0 10 9 10 19 0 15 7 19 30 19
17 -1 35 3 40 8 5 5 -5 9 -27 9 -24 0 -40 -6 -49 -20z"/>
<path d="M1746 2962 c-3 -5 2 -18 12 -28 43 -48 45 -53 30 -67 -7 -8 -31 -22
-51 -32 -26 -12 -35 -21 -28 -28 7 -7 16 -6 28 4 21 18 73 23 73 8 0 -8 5 -7
15 1 10 8 19 9 28 3 6 -6 34 -16 60 -23 27 -7 55 -20 63 -28 8 -8 17 -12 21
-9 9 9 -46 59 -58 52 -5 -4 -17 -1 -26 7 -9 7 -32 18 -52 23 -47 14 -51 41
-11 80 16 16 30 32 30 36 0 10 -34 6 -42 -6 -11 -15 -51 -15 -70 2 -9 8 -19
10 -22 5z"/>
<path d="M2095 2960 c3 -5 13 -10 21 -10 8 0 14 -6 14 -12 0 -10 2 -10 9 0 7
11 9 11 14 -1 3 -8 25 -23 49 -35 23 -11 53 -30 66 -42 33 -31 47 -15 20 23
-28 40 -37 47 -68 47 -15 0 -30 4 -36 10 -5 5 -19 11 -31 13 -13 2 -26 6 -29
10 -11 11 -36 8 -29 -3z"/>
<path d="M1270 2951 c0 -4 -11 -20 -26 -36 -25 -27 -26 -48 -2 -27 21 17 50
72 39 72 -6 0 -11 -4 -11 -9z"/>
<path d="M838 2933 c16 -40 55 -108 65 -114 5 -4 6 -12 3 -18 -4 -6 -3 -11 2
-11 5 0 17 -19 26 -42 9 -24 25 -54 36 -68 l20 -25 0 23 c0 12 -7 25 -15 28
-8 4 -15 14 -15 23 0 9 -7 27 -16 39 -8 12 -13 26 -9 31 3 5 0 13 -6 16 -6 4
-19 27 -29 51 -11 24 -26 44 -34 44 -9 0 -12 7 -9 20 4 14 0 20 -11 20 -11 0
-13 -5 -8 -17z"/>
<path d="M1556 2943 c-4 -4 -24 -7 -44 -8 -28 0 -38 -4 -40 -20 -4 -17 -2 -18
12 -6 9 8 33 14 53 15 20 1 38 7 40 14 5 13 -9 17 -21 5z"/>
<path d="M1381 2896 c-22 -24 -22 -24 -3 -19 11 3 28 14 38 24 27 30 -7 25
-35 -5z"/>
<path d="M2390 2910 c-24 -8 -24 -8 7 -9 17 -1 35 -6 39 -13 5 -8 2 -9 -9 -5
-10 3 -17 2 -17 -3 0 -14 24 -12 38 2 32 32 1 47 -58 28z"/>
<path d="M1421 2884 c-13 -13 -29 -24 -36 -24 -7 0 -18 -7 -25 -15 -16 -20
-12 -19 39 5 23 12 45 28 48 36 9 25 -1 24 -26 -2z"/>
<path d="M1515 2885 c-22 -8 -41 -15 -42 -15 -6 0 -2 -40 3 -40 12 0 94 55 94
63 0 10 -8 9 -55 -8z"/>
<path d="M1300 2860 c-6 -11 -19 -20 -29 -20 -10 0 -24 -7 -31 -15 -7 -8 -15
-13 -19 -11 -13 8 -85 -60 -77 -73 5 -8 18 -1 40 24 34 37 60 47 49 18 -6 -15
-5 -15 13 1 10 9 34 28 52 42 17 14 32 32 32 40 0 21 -18 17 -30 -6z"/>
<path d="M2150 2866 c0 -3 15 -13 32 -22 59 -30 137 -98 137 -119 1 -11 16
-45 34 -75 18 -30 44 -85 58 -122 13 -37 29 -70 36 -72 16 -6 6 18 -47 125
-22 44 -39 83 -38 87 1 4 -6 24 -15 45 -9 21 -14 44 -11 51 3 8 1 17 -5 21 -6
3 -11 2 -11 -4 0 -15 -58 17 -75 42 -8 12 -15 18 -15 13 0 -5 -8 -2 -17 6 -19
16 -63 33 -63 24z"/>
<path d="M1540 2839 c-21 -17 -22 -19 -3 -10 36 18 40 12 8 -15 -16 -14 -23
-22 -15 -18 26 12 60 47 54 55 -8 13 -16 11 -44 -12z"/>
<path d="M639 2831 c12 -12 27 -19 31 -16 5 3 20 1 34 -5 17 -6 26 -6 26 0 0
6 6 10 14 10 8 0 17 4 20 9 4 5 -13 9 -36 9 -24 -1 -59 2 -78 6 l-35 7 24 -20z"/>
<path d="M1585 2819 c-19 -17 -35 -38 -35 -48 0 -11 12 -3 37 24 l37 40 6 -25
c5 -21 7 -22 13 -7 7 19 -1 47 -14 47 -4 0 -24 -14 -44 -31z"/>
<path d="M2007 2831 c-4 -15 -10 -20 -18 -15 -8 4 -10 3 -5 -5 6 -9 11 -9 23
1 13 10 18 8 34 -11 11 -13 19 -18 19 -13 0 6 -11 23 -23 38 l-24 27 -6 -22z"/>
<path d="M2348 2832 c20 -20 88 -39 77 -22 -7 11 -70 40 -86 40 -5 0 -1 -8 9
-18z"/>
<path d="M1383 2803 c-7 -15 -13 -34 -13 -42 0 -13 2 -13 16 1 9 8 14 27 12
42 l-3 26 -12 -27z"/>
<path d="M2624 2818 c-4 -6 -2 -14 4 -16 7 -2 12 -15 12 -28 0 -23 10 -31 22
-18 8 7 -13 74 -23 74 -4 0 -11 -5 -15 -12z"/>
<path d="M310 2810 c-9 -6 -8 -10 6 -18 15 -9 16 -12 5 -26 -12 -14 -11 -19 5
-31 20 -15 23 -16 64 -18 27 -2 50 14 50 35 -1 10 -4 9 -13 -2 -10 -14 -37
-17 -84 -12 -7 1 -13 9 -13 18 0 12 9 15 35 13 34 -3 75 19 75 41 0 11 -111
12 -130 0z"/>
<path d="M1654 2809 c-8 -14 14 -29 32 -22 11 4 11 8 -1 19 -16 17 -22 17 -31
3z"/>
<path d="M1318 2775 c-42 -39 -47 -48 -21 -38 17 7 73 59 73 68 0 12 -18 2
-52 -30z"/>
<path d="M2503 2797 c3 -8 28 -47 56 -86 28 -39 51 -78 51 -85 0 -8 9 -21 21
-29 13 -9 16 -17 10 -22 -16 -9 -13 -25 5 -25 8 0 13 4 9 9 -3 5 0 13 5 16 8
5 7 12 -3 23 -7 10 -20 32 -27 51 -8 19 -31 54 -52 78 -21 24 -38 47 -38 51 0
4 -10 13 -21 21 -19 11 -21 11 -16 -2z"/>
<path d="M1520 2746 c0 -8 -8 -13 -17 -12 -10 0 -19 -8 -21 -19 -4 -17 -2 -18
12 -5 16 12 17 11 11 -16 -6 -27 -5 -26 18 11 24 38 26 55 6 55 -5 0 -9 -6 -9
-14z"/>
<path d="M2410 2734 c0 -19 4 -25 15 -20 8 3 15 0 15 -7 0 -13 98 -154 137
-197 l23 -25 0 24 c0 12 -12 35 -27 50 -38 38 -103 131 -103 147 0 8 -4 14
-10 14 -5 0 -10 6 -10 14 0 12 -20 26 -36 26 -2 0 -4 -12 -4 -26z"/>
<path d="M1576 2724 c-8 -22 -8 -26 4 -19 6 3 10 1 10 -4 0 -14 -13 -14 -27 0
-8 8 -13 8 -17 0 -4 -6 -2 -11 3 -11 6 0 9 -10 7 -22 -2 -14 -10 -22 -20 -22
-9 1 -14 -2 -11 -6 3 -4 -2 -11 -11 -14 -12 -4 -14 -1 -9 14 8 24 -8 26 -30 4
-15 -15 -15 -19 -2 -32 22 -21 64 -7 86 28 10 17 21 27 24 23 7 -6 8 -1 11 50
2 30 -8 36 -18 11z"/>
<path d="M2064 2715 c-5 -19 -1 -32 10 -43 16 -16 17 -15 10 12 -5 21 -4 27 5
22 6 -4 11 -20 11 -35 0 -18 11 -38 30 -57 17 -16 40 -47 52 -69 31 -59 35
-24 4 44 -15 34 -26 77 -26 102 -1 39 -2 42 -12 24 -7 -11 -13 -26 -14 -33 -5
-27 -13 -23 -29 12 -23 47 -33 53 -41 21z"/>
<path d="M2250 2735 c0 -13 34 -65 42 -65 10 0 -18 56 -32 65 -5 3 -10 3 -10
0z"/>
<path d="M1362 2700 c-9 -16 -20 -30 -24 -30 -5 0 -8 -8 -8 -18 0 -9 -9 -34
-20 -54 -13 -24 -16 -39 -9 -44 16 -10 51 28 45 49 -4 18 11 66 25 77 9 7 21
50 14 50 -3 0 -14 -13 -23 -30z"/>
<path d="M1070 2717 c0 -13 43 -87 50 -87 6 0 10 2 10 5 0 13 -43 85 -51 85
-5 0 -9 -1 -9 -3z"/>
<path d="M1238 2698 c-35 -43 -17 -65 20 -25 22 23 30 43 13 33 -5 -4 -11 -2
-13 4 -1 5 -11 0 -20 -12z"/>
<path d="M1994 2688 c-4 -13 -2 -24 5 -26 6 -2 11 -21 11 -43 0 -41 7 -48 29
-26 10 10 11 9 6 -5 -9 -22 -36 -32 -47 -16 -6 10 -8 8 -8 -5 0 -24 45 -44 64
-28 8 7 12 18 10 26 -3 7 2 15 11 17 12 2 7 13 -23 48 -22 24 -38 50 -35 56 2
7 0 15 -6 18 -5 4 -13 -4 -17 -16z"/>
<path d="M1706 2672 c-10 -12 -13 -23 -8 -26 6 -3 8 -16 4 -28 -4 -17 -2 -20
13 -14 15 5 16 4 5 -9 -8 -10 -9 -15 -1 -15 6 0 11 -7 11 -16 0 -8 4 -13 9
-10 10 7 2 54 -10 62 -5 3 -5 12 0 22 5 9 6 25 2 35 -6 17 -8 17 -25 -1z"/>
<path d="M2252 2648 c0 -23 8 -48 20 -63 11 -14 27 -48 37 -75 15 -43 20 -48
31 -36 10 13 8 22 -9 52 -12 19 -19 40 -16 45 4 5 1 9 -4 9 -6 0 -10 3 -10 8
4 21 -3 40 -25 67 l-24 30 0 -37z"/>
<path d="M1786 2638 c-9 -51 6 -93 35 -94 40 -3 57 13 23 20 -26 6 -29 11 -30
47 -2 54 -19 71 -28 27z"/>
<path d="M997 2654 c-3 -3 4 -21 15 -40 11 -19 17 -34 12 -34 -4 0 1 -9 11
-20 16 -18 16 -20 1 -26 -20 -8 -56 -87 -56 -124 0 -15 -6 -33 -14 -39 -15
-13 -38 -100 -30 -113 3 -4 -8 -10 -23 -13 -68 -15 -91 -53 -85 -142 2 -36 0
-63 -6 -63 -10 0 2 -93 17 -132 5 -13 27 -36 50 -53 22 -16 44 -39 47 -50 4
-11 10 -22 13 -25 17 -13 43 -92 38 -117 -2 -15 -2 -36 2 -45 6 -16 7 -16 20
3 11 19 11 21 -3 16 -9 -4 -16 -2 -16 3 0 6 7 10 15 10 9 0 15 9 15 21 0 26
-42 119 -53 119 -5 0 -6 8 -2 19 4 14 -8 29 -50 61 -57 44 -70 69 -67 130 8
203 11 210 76 210 l41 0 1 61 c1 45 7 68 23 89 11 16 21 41 21 55 0 22 37 115
45 115 4 0 54 -89 99 -175 18 -33 44 -80 58 -105 14 -25 29 -55 33 -68 6 -21
4 -22 -19 -16 -32 8 -32 3 -3 -41 16 -27 27 -34 43 -30 15 3 27 -4 42 -25 12
-16 22 -32 22 -36 0 -4 10 -21 23 -38 13 -17 26 -39 30 -48 8 -22 27 -24 27
-3 0 17 16 20 25 5 3 -5 15 -10 26 -10 11 0 17 5 14 10 -3 6 -15 10 -26 10
-11 0 -17 5 -14 10 3 6 -4 10 -17 10 -18 0 -34 16 -68 67 -54 81 -67 103 -75
123 -4 8 -13 28 -22 43 -8 16 -12 31 -9 34 3 4 -6 21 -20 40 -14 18 -27 42
-29 52 -5 27 -23 59 -55 101 -15 19 -42 62 -60 95 -47 85 -76 126 -83 119z"/>
<path d="M1593 2637 c-9 -19 -8 -23 8 -24 12 -1 19 5 19 17 0 28 -16 32 -27 7z"/>
<path d="M1875 2630 c-18 -20 -15 -38 4 -25 15 9 33 45 23 45 -5 0 -17 -9 -27
-20z"/>
<path d="M1120 2613 c0 -11 25 -60 102 -200 21 -38 48 -88 60 -113 13 -25 27
-48 32 -51 5 -4 7 -18 4 -33 -3 -14 -2 -23 3 -21 13 9 22 -16 21 -57 -1 -21 2
-38 7 -38 5 0 7 -9 4 -19 -3 -13 2 -23 15 -30 11 -6 22 -21 24 -33 3 -21 4
-21 21 -4 14 14 15 21 6 32 -6 8 -15 12 -19 9 -4 -2 -15 2 -25 9 -18 13 -17
15 4 49 26 42 22 69 -13 85 -13 6 -27 23 -30 38 -4 15 -20 46 -35 68 -16 23
-50 83 -76 134 -37 71 -46 95 -36 102 9 5 10 10 2 14 -6 4 -11 2 -11 -4 0 -6
-5 -8 -11 -4 -6 3 -9 15 -6 25 3 10 1 17 -3 16 -5 -1 -16 7 -24 18 -8 11 -16
15 -16 8z"/>
<path d="M1913 2605 c-7 -20 2 -29 21 -22 9 4 13 13 10 22 -8 19 -23 19 -31 0z"/>
<path d="M1449 2584 c-9 -11 -9 -15 -1 -10 6 4 12 2 12 -4 0 -6 -7 -13 -15
-16 -8 -4 -12 -10 -9 -16 10 -17 46 30 36 48 -8 14 -10 13 -23 -2z"/>
<path d="M1564 2588 c-35 -49 -43 -75 -31 -98 7 -13 18 -25 25 -28 11 -3 12 0
3 16 -6 11 -11 33 -11 48 0 21 3 24 14 15 12 -10 14 -6 13 24 -1 39 -1 40 -13
23z"/>
<path d="M1893 2545 c0 -8 9 -17 19 -21 11 -3 17 -12 14 -19 -2 -7 4 -21 15
-31 17 -16 19 -16 19 -1 0 10 -4 17 -10 17 -5 0 -10 10 -10 23 0 25 -17 47
-35 47 -7 0 -12 -7 -12 -15z"/>
<path d="M2245 2518 c-11 -45 -8 -65 14 -89 17 -19 19 -19 25 -2 5 11 1 22
-10 30 -12 9 -13 13 -5 13 10 0 12 9 7 32 -9 47 -22 54 -31 16z"/>
<path d="M1210 2520 c0 -5 4 -11 9 -14 5 -3 23 -31 40 -61 17 -30 38 -55 46
-55 8 0 15 -5 15 -12 0 -8 6 -7 16 4 17 17 12 38 -9 38 -7 0 -30 22 -52 50
-39 48 -65 68 -65 50z"/>
<path d="M1800 2505 c-14 -17 -5 -68 15 -85 19 -15 66 -9 78 11 31 49 -56 119
-93 74z m61 -9 c5 3 9 2 10 -3 0 -4 2 -16 4 -25 3 -18 -20 -32 -37 -22 -5 3
-8 14 -5 24 3 14 0 17 -12 13 -12 -3 -11 0 4 12 12 9 21 11 23 5 2 -5 8 -8 13
-4z"/>
<path d="M1483 2479 c-13 -13 -6 -42 9 -33 5 3 17 -1 26 -9 30 -25 50 -27 55
-6 4 13 0 19 -12 19 -9 0 -22 9 -29 20 -14 22 -32 26 -49 9z"/>
<path d="M2410 2470 c-1 -3 -3 -16 -4 -30 0 -14 -5 -30 -9 -37 -4 -6 -3 -15 3
-18 6 -4 8 -15 5 -25 -4 -11 7 -33 31 -61 52 -62 111 -195 129 -292 8 -45 20
-83 25 -85 6 -2 10 -14 10 -27 0 -33 8 -35 65 -20 43 10 53 10 75 -4 50 -32
48 -53 -12 -119 -21 -23 -36 -47 -33 -52 10 -16 25 -12 19 5 -5 13 6 20 28 16
4 0 5 5 2 12 -2 7 7 19 21 27 14 7 25 22 25 32 0 10 5 18 10 18 17 0 11 20
-15 46 -14 14 -23 30 -19 36 4 6 -1 8 -12 6 -11 -2 -24 2 -29 10 -8 10 -17 11
-38 3 -32 -12 -77 4 -77 27 0 14 -9 45 -28 102 -3 8 -4 25 -3 37 1 11 -3 24
-8 28 -6 3 -11 15 -11 26 0 10 -8 27 -18 37 -9 9 -17 26 -17 37 0 11 -7 27
-15 36 -38 41 -50 61 -52 84 -1 13 -7 23 -13 22 -6 -1 -10 16 -9 41 0 23 -3
42 -7 42 -4 0 -10 10 -12 23 -2 12 -5 20 -7 17z"/>
<path d="M2480 2421 c-8 -21 -9 -35 -1 -48 11 -19 11 -19 15 12 2 11 6 30 10
43 11 33 -10 27 -24 -7z"/>
<path d="M2173 2408 c-30 -15 -32 -71 -3 -91 43 -30 101 13 85 63 -4 13 -48
43 -58 39 -1 0 -12 -5 -24 -11z m52 -51 c-1 -11 -7 -23 -15 -25 -7 -3 -10 0
-6 7 4 7 -1 11 -13 11 -11 0 -23 5 -27 11 -4 8 1 9 16 4 18 -6 22 -4 17 8 -4
10 0 13 12 10 11 -3 17 -13 16 -26z"/>
<path d="M1460 2381 c-15 -29 -12 -58 6 -65 25 -9 64 -7 64 4 0 6 -11 10 -25
10 -14 0 -28 7 -32 15 -8 23 7 33 18 12 6 -9 14 -15 19 -12 14 8 50 -27 50
-48 0 -16 3 -17 15 -7 12 10 16 9 21 -4 11 -29 19 -9 21 51 2 53 1 55 -9 26
-11 -34 -41 -55 -36 -26 2 11 -11 25 -37 40 -49 28 -61 28 -75 4z"/>
<path d="M1672 2367 c-29 -31 -28 -39 4 -27 14 6 35 10 47 9 18 0 17 -2 -8
-11 -16 -6 -33 -15 -36 -21 -4 -5 -12 -6 -18 -3 -16 10 -13 -10 4 -28 8 -8 15
-19 15 -25 0 -14 17 -14 25 -1 11 17 135 -16 135 -36 0 -6 10 -15 23 -18 22
-6 74 -71 92 -116 14 -34 35 -37 35 -4 0 18 -15 43 -45 75 -25 26 -45 52 -45
58 0 5 -23 23 -50 41 -43 28 -57 32 -95 27 -48 -5 -58 5 -25 23 23 12 25 37 6
63 -18 23 -38 21 -64 -6z"/>
<path d="M1808 2355 c35 -29 42 -31 42 -9 0 8 -4 13 -9 10 -5 -3 -14 1 -21 9
-7 8 -19 15 -27 15 -9 0 -3 -10 15 -25z"/>
<path d="M2273 2305 c-10 -27 6 -30 30 -7 l21 22 -22 0 c-12 0 -25 -7 -29 -15z"/>
<path d="M1068 2276 c-18 -41 -5 -55 49 -52 57 3 68 23 27 55 -35 28 -62 27
-76 -3z"/>
<path d="M1494 2251 c-26 -39 -26 -44 -14 -82 13 -37 40 -79 53 -79 4 0 -10
59 -30 123 -3 9 -1 17 5 17 10 0 26 49 18 57 -2 3 -17 -14 -32 -36z"/>
<path d="M2350 2255 c-12 -22 -12 -28 3 -42 24 -24 41 -4 32 36 -8 38 -17 39
-35 6z"/>
<path d="M1575 2242 c4 -15 10 -29 13 -32 4 -3 8 -21 9 -40 1 -19 14 -71 29
-115 l28 -82 23 20 c13 12 23 27 23 34 0 7 5 13 10 13 16 0 12 31 -6 51 -11
12 -25 16 -43 13 -23 -5 -28 0 -43 35 -21 49 -22 51 -5 51 24 0 8 54 -20 67
-24 12 -25 11 -18 -15z"/>
<path d="M1998 2218 c-2 -13 -8 -22 -14 -21 -7 1 -4 -12 5 -31 14 -29 17 -31
21 -13 5 18 12 20 67 18 35 -1 64 2 68 8 3 7 -3 11 -15 11 -12 0 -36 11 -54
25 -42 32 -73 33 -78 3z"/>
<path d="M2296 2208 c-10 -6 -43 -8 -73 -6 -29 3 -56 1 -59 -4 -3 -4 2 -8 10
-8 21 0 21 -38 0 -80 -21 -41 -31 -120 -15 -120 6 0 11 15 11 33 0 17 7 41 15
51 8 11 15 30 15 43 0 36 55 58 63 26 3 -13 8 -9 17 15 8 23 15 30 20 22 5 -9
10 -6 15 9 9 28 5 32 -19 19z"/>
<path d="M1710 2201 c10 -7 11 -11 3 -11 -7 0 -12 -8 -10 -17 4 -24 16 -43 28
-43 5 0 2 11 -7 25 -16 24 -15 25 5 25 11 0 21 5 21 10 0 6 -4 10 -9 10 -5 0
-18 3 -28 6 -15 5 -15 4 -3 -5z"/>
<path d="M1055 2165 c-48 -24 -84 -25 -112 -3 -7 5 -20 8 -30 6 -12 -3 2 -14
42 -32 35 -16 61 -23 63 -16 2 5 16 10 31 10 15 0 32 5 39 12 6 6 14 9 17 6 9
-9 -7 -38 -21 -38 -8 0 -14 -5 -14 -11 0 -6 15 -2 33 9 l32 20 33 -29 c17 -16
32 -33 32 -38 0 -9 30 -24 37 -18 2 2 -3 10 -12 17 -8 7 -15 18 -15 24 0 14
-85 106 -98 106 -5 0 -31 -11 -57 -25z"/>
<path d="M1018 2098 c-21 -21 -23 -34 -5 -41 6 -3 -12 -5 -42 -4 -47 1 -56 -2
-77 -26 -13 -16 -24 -32 -24 -38 0 -16 26 -10 51 14 14 12 33 21 43 19 10 -2
23 2 28 10 6 9 7 5 3 -11 l-7 -24 31 22 c31 22 38 48 23 81 -6 14 -9 14 -24
-2z"/>
<path d="M1465 2079 c-4 -5 -15 -7 -26 -4 -10 4 -19 2 -19 -3 0 -13 35 -42 51
-42 8 0 15 -9 16 -20 1 -14 -5 -20 -20 -21 -12 -1 -3 -6 21 -12 27 -6 42 -15
42 -26 1 -13 2 -13 11 2 14 24 4 48 -16 41 -8 -3 -15 -1 -15 5 0 6 4 11 8 11
5 0 9 6 9 13 0 6 3 22 7 35 5 15 3 22 -6 23 -7 0 -23 2 -35 5 -12 2 -25 -1
-28 -7z"/>
<path d="M2240 2068 c-6 -45 0 -132 9 -141 8 -8 11 -7 11 6 0 10 5 14 14 11
20 -8 53 12 61 36 10 30 -21 72 -48 68 -12 -2 -27 4 -34 12 -7 8 -13 12 -13 8z
m67 -69 c12 -14 12 -17 -3 -23 -20 -8 -47 12 -37 28 4 6 8 14 9 19 4 19 6 21
11 7 3 -8 12 -22 20 -31z"/>
<path d="M1983 1981 c6 -17 14 -28 18 -26 11 8 -3 55 -16 55 -10 0 -11 -6 -2
-29z"/>
<path d="M1050 1984 c-19 -7 -43 -13 -52 -13 -25 -1 -48 -29 -48 -58 l0 -26
20 23 c11 13 20 26 20 30 0 8 65 32 77 28 4 -2 19 5 33 15 22 15 22 17 5 16
-11 -1 -36 -7 -55 -15z"/>
<path d="M2471 1961 c-23 -23 -26 -38 -12 -60 7 -11 17 -12 43 -5 29 9 33 14
33 44 0 28 -4 36 -22 38 -12 2 -31 -6 -42 -17z"/>
<path d="M1251 1953 c-15 -16 -14 -18 17 -27 24 -8 28 1 9 25 -11 14 -14 14
-26 2z"/>
<path d="M1586 1954 c-15 -15 -21 -34 -11 -34 3 0 14 6 26 13 17 10 22 9 34
-7 13 -17 12 -21 -4 -33 -11 -7 -28 -10 -38 -6 -17 6 -17 5 1 -15 21 -24 46
-28 63 -11 7 7 12 -11 17 -61 8 -78 24 -138 25 -90 0 14 -6 61 -14 105 -8 44
-15 92 -15 107 0 20 -7 28 -31 37 -39 14 -35 14 -53 -5z"/>
<path d="M2153 1958 c-20 -26 -26 -41 -14 -34 6 4 14 0 17 -9 9 -21 -5 -33
-16 -15 -7 11 -10 8 -10 -12 0 -34 19 -36 48 -5 29 30 30 87 3 87 -10 0 -23
-6 -28 -12z"/>
<path d="M2061 1951 c-11 -7 -10 -13 5 -35 23 -31 26 -31 43 -4 12 19 11 23
-5 35 -21 15 -24 16 -43 4z"/>
<path d="M1033 1933 c-4 -10 -11 -21 -16 -24 -5 -4 -5 -9 -1 -11 5 -3 19 8 32
23 19 24 21 29 7 29 -8 0 -19 -8 -22 -17z"/>
<path d="M1821 1926 c-26 -27 -25 -63 1 -80 24 -15 69 3 87 36 14 24 14 28 -3
47 -25 28 -57 26 -85 -3z m69 -26 c0 -5 -6 -10 -14 -10 -8 0 -17 -8 -20 -17
-5 -12 -10 -13 -18 -5 -17 17 -1 42 27 42 14 0 25 -4 25 -10z"/>
<path d="M1986 1924 c-8 -22 -3 -26 24 -22 22 3 22 3 2 21 -18 17 -20 17 -26
1z"/>
<path d="M1370 1910 c0 -13 39 -48 62 -56 10 -3 18 -11 18 -18 0 -11 11 -19
65 -45 13 -6 -13 27 -45 57 -14 14 -24 29 -22 34 2 6 -5 8 -14 4 -12 -4 -15
-2 -10 9 3 8 2 15 -2 16 -4 0 -17 2 -29 5 -13 2 -23 0 -23 -6z"/>
<path d="M2042 1879 c-13 -20 -42 -26 -42 -8 0 5 -5 7 -12 3 -8 -5 -7 -10 4
-18 12 -9 13 -16 2 -41 -16 -37 -18 -104 -3 -142 9 -24 12 -26 20 -11 7 12 5
24 -3 38 -11 18 -10 23 7 37 16 13 17 15 3 10 -14 -5 -18 -1 -18 18 0 26 9 32
26 16 5 -5 19 -5 34 2 l25 10 -32 6 c-40 7 -32 28 15 37 23 5 32 3 32 -6 0 -8
7 -22 16 -32 18 -19 19 -19 -46 -37 -19 -5 -27 -10 -17 -10 9 -1 17 -7 17 -15
0 -15 27 -16 51 -1 9 6 20 24 26 40 9 27 7 33 -19 55 -16 14 -39 35 -52 47
-22 21 -22 21 -34 2z"/>
<path d="M1190 1828 c-16 -22 -26 -46 -23 -57 3 -10 0 -22 -6 -25 -6 -4 -11
-12 -11 -18 0 -24 37 30 44 62 9 50 21 64 42 55 13 -5 15 -9 7 -12 -16 -6 -17
-30 -1 -39 7 -5 9 -2 5 8 -3 9 3 25 14 37 11 12 16 21 12 22 -4 0 -19 2 -32 3
-17 2 -30 -7 -51 -36z"/>
<path d="M2211 1844 c-28 -20 -31 -94 -3 -94 23 0 72 51 56 57 -7 2 -10 12 -7
22 6 25 -20 33 -46 15z"/>
<path d="M1550 1843 c0 -12 74 -157 87 -171 7 -7 13 -19 13 -25 0 -7 14 -32
30 -57 16 -25 30 -39 30 -32 0 7 5 10 10 7 6 -4 8 -10 5 -15 -3 -5 -1 -11 4
-15 6 -3 15 3 21 14 9 17 8 19 -5 15 -20 -8 -20 14 0 36 10 11 25 15 42 12
l26 -5 -24 -18 -24 -18 30 2 c43 3 41 -27 -2 -31 -18 -2 -33 -7 -33 -11 0 -12
37 -20 47 -10 4 4 22 15 38 23 22 12 25 16 11 16 -16 0 -15 3 7 20 14 11 28
35 31 55 4 19 10 35 14 35 4 0 8 9 9 20 2 27 -5 25 -34 -7 -17 -20 -22 -36
-19 -55 4 -22 2 -28 -13 -28 -10 0 -24 7 -31 15 -7 8 -16 13 -20 10 -5 -3 -11
-1 -15 5 -3 5 -17 7 -31 4 -14 -4 -24 -2 -24 5 0 6 4 11 9 11 12 0 7 33 -5 37
-5 1 -16 -2 -24 -7 -12 -7 -12 -12 -2 -22 15 -15 16 -32 1 -23 -6 4 -5 -2 3
-14 9 -15 10 -23 1 -32 -9 -9 -17 -1 -32 29 -12 23 -21 48 -21 57 0 8 -8 23
-18 33 -17 17 -51 82 -65 125 -6 16 -27 24 -27 10z"/>
<path d="M2338 1832 c-35 -21 -37 -52 -5 -52 27 0 57 28 57 53 0 21 -17 21
-52 -1z"/>
<path d="M1474 1754 c4 -16 15 -37 23 -46 9 -10 12 -18 8 -18 -5 0 -1 -6 9
-13 9 -7 16 -17 14 -22 -2 -6 2 -10 7 -10 12 0 8 39 -4 43 -5 2 -7 12 -4 22 3
12 0 20 -6 20 -7 0 -10 3 -8 8 3 4 -7 16 -21 26 l-25 19 7 -29z"/>
<path d="M2656 1763 c-28 -10 -48 -11 -76 -3 -21 6 -44 8 -51 6 -8 -3 -30 -7
-49 -10 -20 -3 -57 -17 -83 -31 -27 -14 -54 -25 -62 -25 -8 0 -33 -17 -55 -38
l-41 -38 23 -21 c20 -19 25 -20 42 -7 17 12 18 14 3 14 -9 0 -17 6 -17 13 0
23 12 27 27 9 12 -16 14 -16 28 3 10 12 12 21 5 23 -15 5 -12 22 4 22 8 0 27
7 43 15 74 38 104 47 140 41 21 -4 48 -8 60 -9 16 -1 19 -5 11 -14 -7 -9 -7
-13 0 -13 6 0 14 5 18 11 4 8 9 7 15 -2 7 -11 9 -11 9 -1 0 7 12 24 27 38 33
30 28 34 -21 17z"/>
<path d="M1350 1755 c-7 -9 -11 -18 -8 -20 9 -10 38 7 38 21 0 18 -14 18 -30
-1z"/>
<path d="M2038 1654 c4 -49 16 -53 14 -4 0 22 4 30 16 31 14 0 13 2 -3 9 -11
5 -22 9 -25 9 -3 1 -4 -20 -2 -45z"/>
<path d="M2670 1631 c0 -6 4 -13 10 -16 5 -3 9 -28 8 -56 0 -27 2 -52 4 -55 3
-2 0 -20 -7 -39 -17 -51 1 -139 46 -228 6 -10 7 -22 4 -27 -4 -6 -2 -10 4 -10
11 0 11 -81 0 -90 -3 -3 -15 -26 -27 -52 -15 -33 -34 -54 -62 -70 -22 -13 -38
-28 -36 -35 3 -7 0 -10 -7 -8 -7 3 -29 -1 -50 -9 -25 -8 -34 -15 -24 -19 8 -3
26 1 41 8 15 8 33 12 40 9 7 -3 16 2 19 10 4 9 13 16 21 16 7 0 17 7 20 16 3
9 12 14 20 11 9 -4 16 3 20 19 4 13 10 24 15 24 5 0 7 9 4 19 -3 13 2 21 15
25 18 6 20 14 18 79 -2 40 -8 82 -14 94 -6 11 -9 23 -6 25 3 3 -5 24 -16 46
-22 43 -26 74 -18 157 3 28 1 58 -3 67 -6 10 -5 18 3 20 16 6 -9 78 -28 78 -8
0 -14 -4 -14 -9z"/>
<path d="M2337 1592 c-32 -33 -36 -54 -6 -26 20 18 44 54 36 54 -2 0 -15 -13
-30 -28z"/>
<path d="M1457 1588 c-4 -12 -1 -25 5 -29 7 -4 6 -8 -3 -11 -7 -2 1 -10 19
-16 19 -6 32 -7 32 -1 0 5 -7 9 -15 9 -8 0 -15 7 -15 16 0 8 5 12 10 9 17 -11
11 11 -9 29 -17 16 -19 16 -24 -6z"/>
<path d="M1005 1588 c-4 -12 -6 -31 -22 -163 -3 -27 -11 -53 -17 -57 -7 -4
-11 -19 -10 -35 0 -15 -4 -31 -10 -35 -7 -5 -6 -8 3 -8 12 0 11 -3 -1 -17 -9
-10 -19 -33 -23 -52 -4 -18 -16 -42 -28 -54 -16 -16 -17 -19 -4 -14 21 8 22
-6 3 -26 -11 -11 -12 -17 -3 -26 8 -8 8 -11 0 -11 -11 0 -29 -56 -24 -74 1 -5
-4 -6 -12 -3 -10 4 -13 -1 -9 -18 2 -12 -1 -32 -7 -42 -7 -14 -7 -24 2 -33 10
-10 9 -11 -2 -5 -11 6 -13 4 -8 -8 3 -10 3 -17 -2 -17 -5 0 -7 -15 -5 -32 2
-18 6 -58 9 -88 3 -30 8 -77 11 -104 3 -34 1 -52 -8 -58 -9 -5 -8 -8 6 -8 14
0 17 -5 12 -25 -5 -18 -2 -25 7 -25 8 0 27 -11 43 -25 16 -14 37 -25 47 -25
11 0 17 -8 17 -22 1 -21 2 -21 11 -5 6 9 14 15 20 12 16 -11 10 -32 -13 -42
-15 -6 -18 -12 -10 -17 7 -4 12 -3 12 2 0 5 11 7 25 5 20 -4 28 2 46 31 16 27
28 36 48 36 15 0 32 -5 38 -11 6 -6 18 -9 27 -7 8 1 -30 24 -87 50 -138 63
-137 63 -137 44 0 -17 48 -46 78 -46 11 0 26 -7 33 -17 13 -15 9 -16 -42 -10
-66 6 -84 16 -121 64 -20 26 -26 42 -21 63 3 16 -2 63 -12 104 -25 115 -18
158 75 436 42 128 62 207 74 293 9 65 16 123 16 128 0 14 -20 11 -25 -3z"/>
<path d="M2123 1578 c-23 -27 -36 -58 -24 -58 11 0 61 58 61 71 0 16 -16 10
-37 -13z"/>
<path d="M2281 1518 c-2 -56 -6 -90 -14 -108 -4 -8 -8 -35 -9 -60 -3 -43 -2
-45 25 -46 24 -1 26 1 14 15 -8 9 -17 26 -20 39 -4 19 -3 21 8 12 19 -16 40
23 26 49 -11 19 -7 26 57 111 23 30 16 44 -8 15 -7 -8 -23 -15 -36 -15 -15 0
-24 6 -24 15 0 8 -4 15 -9 15 -5 0 -10 -19 -10 -42z"/>
<path d="M1441 1513 c1 -5 1 -16 0 -25 -1 -22 -21 -24 -21 -3 0 13 -3 13 -13
3 -11 -10 -9 -16 15 -36 15 -13 28 -30 28 -38 0 -16 26 -19 36 -3 7 12 -11 34
-28 34 -6 0 -13 6 -15 13 -3 6 0 12 6 12 6 0 11 11 11 25 0 14 -4 25 -10 25
-5 0 -9 -3 -9 -7z"/>
<path d="M1840 1512 c0 -6 -6 -17 -12 -24 -7 -8 -19 -24 -26 -36 -10 -18 -10
-22 1 -22 16 0 54 77 44 87 -4 3 -7 1 -7 -5z"/>
<path d="M2217 1475 c-31 -53 -32 -55 -14 -55 15 0 51 72 46 89 -2 6 -16 -9
-32 -34z"/>
<path d="M1559 1492 c16 -30 38 -45 46 -32 4 6 5 12 4 14 -2 1 -17 10 -32 20
-28 17 -28 17 -18 -2z"/>
<path d="M1322 1403 c-11 -20 -5 -43 10 -43 6 0 8 10 5 23 -6 21 -6 21 8 3 8
-11 15 -16 15 -10 0 5 -7 17 -15 27 -13 18 -14 18 -23 0z"/>
<path d="M1173 1380 c11 -28 47 -59 47 -40 0 7 7 7 22 -1 18 -10 20 -9 15 6
-4 9 -7 21 -7 26 0 5 -9 9 -19 9 -11 0 -22 4 -25 9 -3 5 -14 11 -24 14 -17 4
-18 1 -9 -23z"/>
<path d="M1378 1360 c-5 -35 17 -49 26 -17 9 35 7 47 -8 47 -8 0 -16 -13 -18
-30z"/>
<path d="M1911 1381 c-34 -9 -47 -34 -35 -68 13 -37 54 -43 83 -12 42 45 11
94 -48 80z"/>
<path d="M2315 1348 c12 -43 14 -72 3 -85 -8 -10 -6 -13 10 -13 33 0 43 67 15
100 -23 27 -37 25 -28 -2z"/>
<path d="M1147 1293 c-3 -5 -2 -15 3 -23 5 -8 6 -27 3 -42 -3 -17 -1 -28 6
-28 6 0 11 16 11 38 0 39 -13 71 -23 55z"/>
<path d="M1656 1275 c-3 -8 -12 -12 -21 -9 -8 3 -15 1 -15 -5 0 -6 6 -11 14
-11 28 0 25 -17 -20 -109 -44 -93 -89 -231 -74 -231 5 0 18 30 30 67 12 37 28
80 36 95 8 15 12 28 9 28 -2 0 4 15 15 33 11 17 20 40 20 50 0 9 4 17 9 17 5
0 12 12 15 28 4 15 9 35 12 45 7 21 -21 24 -30 2z"/>
<path d="M2286 1265 c-8 -8 -18 -15 -23 -15 -4 0 -17 -11 -27 -25 -10 -13 -22
-22 -27 -19 -5 3 -9 1 -9 -4 0 -4 -9 -18 -20 -30 -22 -23 -11 -31 12 -9 8 6
23 17 33 24 11 6 19 16 17 22 -1 6 8 16 21 22 13 6 28 19 35 30 15 23 9 25
-12 4z"/>
<path d="M2041 1234 c-53 -44 -37 -95 25 -80 31 8 57 62 43 88 -13 25 -32 22
-68 -8z m33 0 c26 -10 19 -43 -9 -50 -31 -8 -40 -1 -31 23 6 13 9 14 15 4 7
-10 9 -10 14 3 3 8 1 17 -6 20 -18 7 -1 7 17 0z"/>
<path d="M1719 1240 c-17 -11 6 -40 32 -40 24 0 24 5 0 29 -11 11 -24 16 -32
11z"/>
<path d="M2348 1190 c-5 -31 6 -50 15 -28 4 10 6 10 6 0 1 -8 -8 -16 -18 -19
-16 -4 -18 -10 -11 -33 6 -21 4 -31 -10 -43 -29 -24 -46 -91 -32 -122 14 -30
39 -42 55 -26 9 9 6 13 -10 17 -12 3 -24 12 -27 20 -7 18 4 45 15 38 5 -3 6 2
3 11 -4 8 -1 21 5 29 6 7 8 16 4 19 -3 4 0 13 6 21 7 8 10 20 6 26 -3 5 -1 10
5 10 6 0 8 5 5 10 -10 17 12 11 26 -7 8 -9 15 -37 15 -62 2 -54 11 -81 28 -81
6 0 18 -9 26 -20 17 -24 36 -26 44 -4 9 23 7 36 -4 29 -6 -3 -25 -1 -43 6 -28
10 -33 17 -34 45 -1 19 3 37 8 40 17 10 9 36 -21 65 -24 24 -28 34 -20 49 16
29 12 40 -14 40 -19 0 -25 -6 -28 -30z"/>
<path d="M1449 1173 c-1 -5 -1 -12 0 -16 1 -5 -4 -5 -10 -1 -14 8 -29 -13 -29
-42 0 -15 11 -27 34 -38 19 -9 37 -16 40 -16 12 0 46 45 46 60 0 22 -35 54
-49 45 -6 -3 -11 -1 -11 4 0 12 -19 15 -21 4z m42 -50 c-9 -35 -22 -38 -52
-14 l-24 19 35 15 c43 18 50 14 41 -20z"/>
<path d="M1736 1125 c-15 -25 -26 -48 -23 -51 3 -3 -4 -29 -15 -57 -11 -29
-22 -59 -25 -68 -2 -8 -24 -21 -49 -27 -43 -12 -50 -21 -44 -62 2 -17 19 -30
38 -30 22 0 54 41 50 65 -4 18 -1 21 15 17 17 -4 19 -1 15 16 -4 14 -1 22 11
25 14 4 14 5 -1 6 -10 0 -18 6 -18 12 0 5 4 8 8 5 5 -3 15 10 22 29 9 22 18
31 28 28 12 -5 12 -3 0 16 -11 18 -11 23 2 31 8 5 20 8 27 5 8 -2 10 2 6 12
-4 10 -2 14 4 10 5 -3 10 0 10 9 0 9 -7 12 -19 8 -13 -4 -16 -1 -12 10 3 9 10
16 16 16 5 0 6 5 3 10 -11 17 -19 11 -49 -35z m-83 -245 c-4 -14 -14 -20 -35
-20 -17 0 -27 4 -23 10 4 6 10 8 15 5 4 -3 13 2 20 10 18 21 29 19 23 -5z"/>
<path d="M2180 1121 c-18 -35 -12 -67 16 -81 46 -25 77 15 55 73 -13 33 -55
37 -71 8z m37 -16 c-4 -8 -2 -17 3 -20 6 -4 10 -13 10 -22 0 -14 -2 -14 -20 2
-20 18 -22 35 -5 47 15 11 18 10 12 -7z"/>
<path d="M942 1083 c-13 -42 -9 -51 13 -33 16 13 21 70 7 70 -5 0 -14 -17 -20
-37z"/>
<path d="M1957 1073 c3 -10 11 -24 16 -31 5 -7 6 -16 2 -20 -4 -4 -10 -1 -12
6 -3 6 -9 12 -14 12 -4 0 -6 -7 -3 -15 4 -8 1 -15 -5 -15 -6 0 -11 -7 -11 -16
0 -9 5 -13 13 -10 6 3 20 9 30 12 21 8 22 26 2 64 -17 33 -28 40 -18 13z"/>
<path d="M1056 1052 c-10 -17 -10 -82 1 -93 15 -15 53 23 53 54 0 36 -39 63
-54 39z"/>
<path d="M1224 1038 c-10 -16 -6 -70 5 -81 9 -9 65 16 76 33 4 6 -1 22 -9 35
-18 27 -59 34 -72 13z"/>
<path d="M2572 1002 c-19 -6 -31 -20 -19 -23 6 -2 57 21 57 26 0 6 -7 5 -38
-3z"/>
<path d="M1843 958 c-30 -34 -7 -78 42 -78 30 0 70 44 60 67 -7 16 -9 15 -18
-9 -15 -39 -77 -48 -77 -11 0 22 25 44 38 31 6 -6 12 -6 16 1 4 6 3 11 -3 11
-5 0 -16 2 -23 5 -8 3 -23 -5 -35 -17z"/>
<path d="M2247 920 c-9 -16 -12 -30 -7 -30 13 0 41 48 31 55 -5 3 -16 -8 -24
-25z"/>
<path d="M2367 924 c-14 -14 -7 -79 13 -109 16 -25 18 -40 13 -100 -3 -38 -12
-88 -20 -110 -9 -22 -19 -69 -23 -105 -3 -36 -10 -73 -14 -83 -9 -20 -47 -32
-76 -24 -21 5 -27 -7 -9 -18 5 -4 14 -18 19 -31 9 -21 12 -23 30 -12 12 8 18
19 14 30 -3 10 -1 18 5 18 23 0 56 46 55 75 -1 17 2 35 7 40 4 6 4 17 -1 24
-11 19 8 71 27 71 12 0 13 3 3 15 -6 8 -9 23 -5 34 14 45 13 138 -2 191 -8 30
-18 65 -22 78 -3 13 -10 20 -14 16z"/>
<path d="M1261 886 c-9 -23 -9 -32 4 -46 8 -9 15 -28 15 -43 0 -14 11 -46 24
-70 13 -25 26 -56 30 -70 3 -14 15 -28 25 -32 23 -7 46 -33 38 -41 -3 -4 -20
4 -36 16 -17 12 -31 18 -30 13 0 -4 32 -30 72 -58 39 -27 77 -61 83 -73 8 -16
13 -19 16 -11 6 19 -14 53 -48 82 -17 14 -39 42 -49 61 -11 21 -25 34 -32 31
-8 -2 -13 4 -13 15 0 11 5 20 11 20 8 0 8 5 -1 15 -7 8 -18 15 -24 15 -17 0
-51 68 -48 97 1 14 -3 32 -9 39 -6 7 -9 17 -6 21 2 4 1 17 -3 28 -7 18 -9 18
-19 -9z"/>
<path d="M1510 863 c-12 -34 -27 -102 -33 -158 -1 -11 -6 -23 -11 -26 -5 -4
-6 -14 -3 -23 13 -34 25 -13 31 54 4 39 16 96 27 127 22 64 22 63 11 63 -4 0
-14 -17 -22 -37z"/>
<path d="M1171 801 c-18 -70 -2 -97 52 -92 9 1 17 -2 17 -7 0 -13 61 -72 74
-72 6 0 -10 20 -34 45 -28 29 -54 69 -70 110 l-26 66 -13 -50z"/>
<path d="M2049 837 c-18 -13 -39 -50 -39 -66 0 -6 17 -11 38 -11 71 0 115 82
47 87 -17 2 -37 -3 -46 -10z"/>
<path d="M1346 801 c-14 -15 -15 -24 -7 -38 9 -15 10 -16 11 -2 0 9 7 20 15
23 16 6 55 -13 55 -26 0 -5 7 -8 15 -8 8 0 15 4 15 8 0 11 -39 52 -50 52 -4 0
-15 2 -22 5 -8 3 -22 -3 -32 -14z"/>
<path d="M1612 745 c-18 -35 -37 -76 -41 -92 -4 -17 -19 -34 -38 -43 l-31 -15
19 -24 19 -23 0 25 c0 14 5 29 10 32 6 3 10 1 10 -6 0 -22 16 4 30 49 8 24 19
42 28 42 9 0 13 7 9 20 -6 24 14 27 46 5 18 -11 27 -12 46 -2 14 7 26 17 28
23 6 19 -40 62 -72 67 -29 5 -32 2 -63 -58z m88 19 c0 -8 5 -12 10 -9 6 3 10
2 10 -4 0 -18 -18 -22 -44 -10 -33 16 -34 39 -1 39 16 0 25 -6 25 -16z"/>
<path d="M2225 750 c-29 -12 -67 -50 -62 -63 7 -23 53 -19 85 7 16 15 37 26
46 26 9 0 16 5 16 11 0 5 4 8 9 5 5 -4 17 -3 28 1 16 6 15 8 -7 13 -16 4 -29
1 -36 -9 -10 -13 -14 -13 -28 2 -19 19 -22 19 -51 7z"/>
<path d="M1057 674 c-9 -10 21 -62 42 -74 30 -16 41 -12 41 14 0 36 -62 81
-83 60z"/>
<path d="M2345 658 c-4 -9 -26 -30 -51 -47 -26 -19 -44 -40 -44 -52 0 -10 4
-19 9 -19 5 0 16 -3 25 -6 12 -5 16 1 16 24 0 17 6 32 14 35 17 7 50 66 42 74
-3 3 -8 -1 -11 -9z"/>
<path d="M1823 630 c-26 -11 -39 -46 -23 -65 26 -32 110 -6 110 34 0 37 -38
51 -87 31z m57 -17 c-1 -24 -45 -50 -56 -32 -8 14 15 39 37 39 11 0 19 -3 19
-7z"/>
<path d="M2226 516 c-4 -18 -23 -33 -68 -55 l-63 -30 45 6 c25 3 53 14 63 24
10 11 22 19 27 19 6 0 10 8 10 18 0 13 2 14 9 3 6 -9 10 -10 16 -2 7 12 -11
41 -25 41 -4 0 -11 -11 -14 -24z"/>
<path d="M1682 512 c3 -10 -1 -24 -9 -31 -11 -10 -12 -16 -4 -24 14 -14 28 0
31 28 4 33 1 45 -11 45 -6 0 -9 -8 -7 -18z"/>
<path d="M1964 507 c-22 -19 -26 -29 -20 -50 13 -54 106 -16 106 44 0 25 -4
29 -29 29 -17 0 -42 -10 -57 -23z"/>
<path d="M1250 509 c0 -5 23 -20 50 -33 29 -14 50 -19 50 -13 0 8 4 7 12 -1 7
-7 13 -31 14 -54 2 -67 3 -68 24 -68 21 0 45 43 34 61 -3 6 -1 16 6 23 13 16
47 10 73 -13 18 -15 18 -14 7 10 -9 19 -20 26 -47 27 -20 2 -45 8 -57 14 -12
6 -22 11 -23 10 -4 -2 -34 8 -58 19 -38 18 -85 28 -85 18z"/>
<path d="M1226 471 c-4 -5 15 -14 41 -19 48 -11 73 -8 37 3 -10 4 -27 11 -36
16 -22 11 -35 11 -42 0z"/>
<path d="M1526 374 c-9 -23 -8 -24 13 -24 14 0 18 5 14 20 -6 24 -19 26 -27 4z"/>
<path d="M1884 371 c-17 -4 -36 -11 -42 -15 -7 -4 -41 -9 -76 -11 -50 -3 -65
-1 -70 10 -3 8 -10 15 -16 15 -8 0 -8 -6 0 -20 6 -12 21 -20 35 -20 14 0 25
-5 25 -11 0 -5 5 -7 10 -4 7 4 9 -3 6 -18 -2 -14 2 -42 9 -63 11 -34 13 -35
20 -15 4 12 2 28 -5 36 -26 31 36 90 106 101 24 3 44 10 44 15 0 10 -2 10 -46
0z"/>
<path d="M885 343 c-28 -7 -57 -35 -47 -45 12 -12 34 -1 55 27 10 14 17 24 15
24 -2 -1 -12 -4 -23 -6z"/>
<path d="M1340 315 c7 -8 27 -14 44 -14 21 1 24 3 11 6 -11 3 -24 9 -29 14 -6
5 -16 9 -24 9 -12 0 -12 -3 -2 -15z"/>
<path d="M2110 321 c0 -5 14 -11 31 -15 47 -9 56 -7 35 9 -22 16 -66 20 -66 6z"/>
<path d="M2310 320 c-12 -7 -12 -12 -2 -22 16 -16 15 -40 -4 -88 -12 -30 -21
-39 -37 -37 -17 1 -23 -4 -25 -25 -4 -30 13 -68 30 -68 7 0 6 5 -2 15 -8 9 -9
15 -2 15 6 0 9 9 7 20 -2 11 1 20 7 20 13 0 61 50 54 57 -3 3 0 16 5 30 6 17
6 30 -2 39 -6 8 -9 20 -6 29 8 18 -5 26 -23 15z"/>
<path d="M1434 277 c0 -14 6 -16 31 -11 66 14 71 21 20 25 -43 3 -51 1 -51
-14z"/>
<path d="M830 255 c-10 -12 -15 -13 -21 -4 -4 7 -7 -4 -7 -25 0 -42 14 -55 36
-32 19 19 8 34 -13 16 -21 -18 -19 -3 6 31 21 30 21 40 -1 14z"/>
<path d="M1345 260 c-3 -5 -15 -10 -26 -10 -10 0 -19 -5 -19 -10 0 -6 -19 -19
-42 -30 -24 -10 -57 -32 -75 -49 -18 -18 -43 -31 -57 -31 -14 0 -28 -5 -31
-10 -4 -6 -14 -10 -23 -9 -38 4 -99 -14 -111 -33 -12 -19 -11 -20 16 -14 15 4
48 9 73 11 82 8 123 17 110 25 -8 5 -3 9 13 14 13 3 27 15 30 26 6 23 37 18
37 -6 0 -8 5 -14 10 -14 7 0 7 7 0 21 -9 16 -8 25 6 40 9 10 23 19 31 19 7 0
13 5 13 10 0 6 6 10 13 10 6 0 26 11 42 25 22 18 26 24 13 25 -9 0 -20 -4 -23
-10z"/>
<path d="M1825 230 c-20 -22 -12 -58 16 -78 11 -7 19 -22 19 -33 0 -11 7 -22
15 -25 8 -4 15 -12 15 -18 0 -16 30 -31 99 -51 66 -18 61 -18 61 -1 0 11 8 10
38 -5 22 -11 48 -16 64 -12 38 7 26 21 -18 21 -19 0 -43 7 -53 16 -20 18 -41
21 -41 6 0 -11 -48 -3 -66 11 -6 5 -14 6 -17 3 -3 -4 -24 12 -45 34 -40 41
-55 82 -46 119 8 28 -20 36 -41 13z"/>
<path d="M880 101 c-28 -9 -90 -40 -90 -45 0 -2 21 0 46 5 25 5 48 8 52 8 26
-4 34 2 23 15 -9 11 -9 15 1 19 20 8 -4 6 -32 -2z"/>
<path d="M2220 69 c0 -6 -6 -9 -14 -6 -8 3 -17 0 -20 -8 -5 -15 27 -30 44 -20
13 8 13 45 0 45 -5 0 -10 -5 -10 -11z"/>
</g>
</svg>
